<svg id="svg" version="1.1" xmlns="http://www.w3.org/2000/svg" xmlns:xlink="http://www.w3.org/1999/xlink" width="400" height="105" viewBox="0, 0, 400,105"><g id="svgg"><path id="path0" d="M42.667 0.250 C 42.667 0.467,39.135 0.665,37.895 0.517 C 37.792 0.505,37.465 0.721,37.169 0.997 C 36.662 1.472,36.555 1.500,35.266 1.500 C 33.862 1.500,33.500 1.642,33.500 2.192 C 33.500 2.430,33.324 2.493,32.542 2.533 L 31.583 2.583 31.555 3.866 C 31.526 5.203,31.720 5.643,32.248 5.441 C 32.465 5.357,32.500 5.642,32.500 7.482 L 32.500 9.619 32.050 9.601 C 31.619 9.584,31.597 9.623,31.548 10.488 C 31.490 11.518,31.479 11.538,30.964 11.564 C 30.694 11.578,30.578 11.691,30.565 11.953 C 30.554 12.157,30.311 12.530,30.023 12.782 C 29.735 13.034,29.500 13.331,29.500 13.442 C 29.500 13.553,29.331 13.667,29.125 13.697 C 28.881 13.731,28.731 13.884,28.696 14.134 C 28.663 14.361,28.470 14.583,28.221 14.678 C 27.990 14.765,27.762 14.986,27.714 15.169 C 27.649 15.418,27.486 15.500,27.059 15.500 L 26.489 15.500 26.536 17.458 L 26.583 19.417 27.018 19.467 C 27.446 19.517,27.456 19.547,27.560 21.134 C 27.649 22.494,27.553 27.334,27.434 27.455 C 27.413 27.475,27.213 27.520,26.990 27.555 C 26.766 27.589,26.574 27.703,26.563 27.808 C 26.551 27.914,26.532 28.113,26.521 28.250 C 26.509 28.387,26.365 28.500,26.200 28.500 C 25.816 28.500,25.500 28.816,25.500 29.200 C 25.500 29.365,25.425 29.500,25.333 29.500 C 25.113 29.500,24.587 30.034,24.447 30.398 C 24.386 30.558,24.260 30.641,24.167 30.583 C 23.955 30.452,23.479 30.911,23.539 31.187 C 23.566 31.311,23.295 31.445,22.857 31.524 C 22.062 31.668,21.667 31.916,21.667 32.270 C 21.667 32.487,20.554 32.602,19.378 32.507 C 19.173 32.490,18.911 32.536,18.794 32.609 C 18.456 32.821,17.867 32.856,17.753 32.671 C 17.618 32.453,15.167 32.445,15.167 32.661 C 15.167 32.750,15.041 32.775,14.888 32.716 C 14.676 32.635,14.635 32.676,14.716 32.888 C 14.775 33.041,14.748 33.167,14.657 33.167 C 14.490 33.167,14.589 36.073,14.766 36.359 C 14.814 36.437,14.774 36.500,14.677 36.500 C 14.565 36.500,14.500 37.052,14.500 37.989 L 14.500 39.478 14.042 39.531 C 13.703 39.570,13.568 39.688,13.527 39.985 C 13.456 40.485,13.155 40.802,12.847 40.699 C 12.687 40.646,12.646 40.707,12.718 40.894 C 12.776 41.044,12.750 41.167,12.661 41.167 C 12.573 41.167,12.500 41.270,12.500 41.397 C 12.500 41.524,12.351 41.667,12.169 41.714 C 11.809 41.808,11.500 42.447,11.500 43.094 C 11.500 43.501,11.134 43.611,10.125 43.509 C 9.965 43.492,9.833 43.563,9.833 43.666 C 9.833 43.769,9.746 43.799,9.638 43.732 C 9.507 43.651,9.478 43.703,9.550 43.889 C 9.617 44.066,9.572 44.167,9.425 44.167 C 9.298 44.167,9.169 44.243,9.138 44.336 C 9.106 44.432,8.453 44.510,7.624 44.516 C 6.823 44.522,6.167 44.593,6.167 44.675 C 6.167 44.756,6.044 44.776,5.894 44.718 C 5.708 44.647,5.646 44.687,5.698 44.845 C 5.862 45.336,5.444 45.454,5.072 45.021 C 4.722 44.615,4.641 44.600,2.647 44.592 L 0.583 44.583 0.531 45.042 C 0.497 45.333,0.376 45.504,0.197 45.512 C -0.030 45.521,-0.020 45.551,0.250 45.667 C 0.535 45.789,0.541 45.812,0.292 45.822 C -0.124 45.838,-0.165 58.333,0.250 58.333 C 0.460 58.333,0.500 58.702,0.500 60.653 C 0.500 62.984,0.566 63.500,0.863 63.500 C 1.285 63.500,1.500 64.018,1.500 65.038 C 1.500 66.137,1.674 66.500,2.200 66.500 C 2.452 66.500,2.503 66.653,2.517 67.458 C 2.540 68.785,2.691 69.240,3.132 69.303 C 3.483 69.354,3.617 69.820,3.512 70.625 C 3.498 70.740,3.561 70.833,3.654 70.833 C 3.747 70.833,3.776 70.956,3.718 71.106 C 3.646 71.293,3.687 71.354,3.847 71.301 C 4.227 71.174,4.500 71.596,4.500 72.310 C 4.500 72.992,4.825 73.500,5.262 73.500 C 5.415 73.500,5.500 73.678,5.500 74.000 C 5.500 74.275,5.562 74.500,5.638 74.500 C 5.714 74.500,5.771 74.669,5.763 74.875 C 5.753 75.160,5.840 75.247,6.125 75.237 C 6.454 75.225,6.500 75.306,6.502 75.903 C 6.506 76.919,6.655 77.294,7.099 77.406 C 7.410 77.484,7.500 77.617,7.500 78.003 C 7.500 78.444,7.556 78.500,8.000 78.500 C 8.419 78.500,8.500 78.566,8.500 78.906 C 8.500 79.553,8.809 80.192,9.169 80.286 C 9.372 80.339,9.500 80.513,9.500 80.736 C 9.500 81.174,9.794 81.500,10.189 81.500 C 10.380 81.500,10.496 81.655,10.531 81.958 C 10.572 82.315,10.682 82.428,11.032 82.468 C 11.378 82.508,11.492 82.622,11.532 82.968 C 11.572 83.318,11.685 83.428,12.042 83.469 C 12.467 83.518,12.612 83.793,12.520 84.375 C 12.509 84.444,12.618 84.500,12.762 84.500 C 13.099 84.500,13.500 84.901,13.500 85.238 C 13.500 85.418,13.657 85.500,14.000 85.500 C 14.444 85.500,14.500 85.556,14.500 86.000 C 14.500 86.442,14.557 86.500,14.989 86.500 C 15.398 86.500,15.486 86.574,15.531 86.958 C 15.572 87.315,15.682 87.428,16.032 87.468 C 16.378 87.508,16.492 87.622,16.532 87.968 C 16.572 88.318,16.685 88.428,17.042 88.469 C 17.345 88.504,17.500 88.620,17.500 88.811 C 17.500 89.184,17.820 89.500,18.197 89.500 C 18.371 89.500,18.535 89.665,18.594 89.901 C 18.701 90.328,19.082 90.494,19.958 90.498 C 20.449 90.500,20.500 90.547,20.500 91.000 C 20.500 91.442,20.557 91.500,20.989 91.500 C 21.398 91.500,21.486 91.574,21.531 91.958 C 21.578 92.371,21.656 92.422,22.314 92.469 C 23.063 92.523,23.352 92.696,23.546 93.208 C 23.616 93.394,23.833 93.500,24.142 93.500 C 24.487 93.500,24.653 93.596,24.714 93.831 C 24.821 94.237,25.466 94.500,26.356 94.500 C 27.051 94.500,27.500 94.790,27.500 95.238 C 27.500 95.418,27.656 95.500,27.997 95.500 C 28.388 95.500,28.516 95.589,28.598 95.917 C 28.656 96.146,28.751 96.338,28.810 96.344 C 30.422 96.500,30.855 96.685,30.699 97.153 C 30.646 97.313,30.707 97.354,30.894 97.282 C 31.044 97.224,31.167 97.238,31.167 97.313 C 31.167 97.387,31.587 97.462,32.100 97.479 C 33.035 97.510,33.339 97.663,33.546 98.208 C 33.640 98.456,33.881 98.500,35.161 98.500 C 36.329 98.500,36.667 98.552,36.667 98.730 C 36.667 99.260,37.157 99.364,40.046 99.446 C 43.786 99.551,43.625 99.777,43.198 95.000 C 43.096 93.854,42.933 91.604,42.836 90.000 C 42.739 88.396,42.550 85.958,42.417 84.583 C 42.207 82.426,41.720 75.496,41.415 70.333 C 41.363 69.462,41.206 67.813,41.065 66.667 C 40.924 65.521,40.742 63.008,40.661 61.083 C 40.581 59.158,40.401 56.908,40.262 56.083 C 40.123 55.258,39.930 52.708,39.834 50.417 C 39.737 48.125,39.604 46.063,39.536 45.833 C 39.469 45.604,39.452 44.968,39.499 44.421 C 39.617 43.025,39.676 43.005,43.649 43.002 C 45.426 43.001,50.189 42.926,54.232 42.836 C 82.098 42.216,79.694 42.159,81.290 43.481 C 83.375 45.209,83.409 45.287,83.656 48.833 C 83.761 50.346,83.919 52.371,84.008 53.333 C 84.239 55.846,84.466 59.084,84.585 61.583 C 84.642 62.775,84.801 64.644,84.937 65.736 C 85.073 66.828,85.250 69.303,85.329 71.236 C 85.409 73.169,85.555 75.011,85.653 75.330 C 86.132 76.881,86.074 79.344,85.532 80.500 C 85.252 81.096,84.785 82.146,84.493 82.833 C 84.202 83.521,83.773 84.287,83.540 84.535 C 83.136 84.966,82.977 85.018,80.807 85.435 C 79.928 85.603,80.010 86.943,80.933 87.488 C 81.245 87.672,81.500 87.937,81.500 88.078 C 81.500 88.218,81.606 88.333,81.736 88.333 C 82.191 88.333,82.500 88.128,82.500 87.826 C 82.500 87.604,82.647 87.507,83.042 87.469 C 83.529 87.422,83.578 87.369,83.528 86.945 C 83.477 86.515,83.514 86.477,83.942 86.528 C 84.297 86.570,84.426 86.506,84.473 86.262 C 84.554 85.849,84.904 85.500,85.238 85.500 C 85.382 85.500,85.501 85.406,85.503 85.292 C 85.505 85.129,85.535 85.131,85.641 85.297 C 85.716 85.415,85.896 85.465,86.042 85.409 C 86.390 85.276,86.563 84.809,86.320 84.659 C 86.180 84.572,86.184 84.522,86.335 84.472 C 86.449 84.434,86.542 84.199,86.542 83.949 C 86.542 83.699,86.626 83.505,86.729 83.517 C 87.207 83.574,87.515 83.471,87.929 83.115 C 88.378 82.729,88.439 82.515,88.479 81.208 C 88.497 80.607,88.553 80.500,88.849 80.500 C 89.268 80.500,90.169 79.891,90.162 79.614 C 90.159 79.505,90.080 79.548,89.987 79.708 C 89.665 80.261,89.500 79.997,89.500 78.927 C 89.500 77.782,89.729 77.404,90.109 77.923 C 90.232 78.092,90.333 78.145,90.333 78.042 C 90.333 77.938,90.258 77.807,90.167 77.750 C 90.075 77.693,90.000 77.169,90.000 76.585 C 90.000 75.882,89.919 75.443,89.759 75.283 C 89.570 75.093,89.512 74.391,89.487 71.952 C 89.454 68.746,89.322 68.245,88.681 68.886 C 88.551 69.016,88.502 68.436,88.506 66.825 L 88.511 64.583 88.839 64.977 C 89.019 65.193,89.167 65.282,89.167 65.174 C 89.167 64.938,88.834 64.284,88.653 64.164 C 88.582 64.117,88.508 62.017,88.489 59.497 C 88.463 56.025,88.400 54.808,88.229 54.469 C 87.939 53.895,87.670 53.725,87.792 54.192 C 87.854 54.431,87.824 54.514,87.701 54.438 C 87.574 54.359,87.507 52.715,87.486 49.120 C 87.469 46.258,87.447 43.373,87.436 42.709 C 87.421 41.748,87.468 41.496,87.667 41.475 C 87.804 41.461,87.995 41.441,88.091 41.430 C 88.186 41.419,88.485 41.206,88.755 40.955 C 89.219 40.526,89.337 40.500,90.832 40.499 C 92.553 40.498,93.503 40.304,94.192 39.814 C 94.565 39.550,94.941 39.500,96.571 39.500 L 98.506 39.500 98.489 37.417 C 98.479 36.271,98.411 35.333,98.338 35.333 C 98.264 35.333,98.214 35.202,98.227 35.042 C 98.240 34.881,98.138 34.750,98.000 34.750 C 97.611 34.750,97.515 34.474,97.481 33.251 C 97.451 32.142,97.152 31.500,96.667 31.500 C 96.527 31.500,96.405 30.577,96.483 30.116 C 96.520 29.898,96.016 29.470,95.846 29.575 C 95.617 29.717,95.522 29.483,95.475 28.655 C 95.432 27.894,95.174 27.460,94.810 27.539 C 94.696 27.563,94.576 27.433,94.542 27.250 C 94.508 27.067,94.437 26.804,94.383 26.667 C 94.329 26.529,94.277 26.267,94.268 26.083 C 94.255 25.850,94.138 25.754,93.875 25.763 C 93.583 25.774,93.497 25.682,93.487 25.347 C 93.457 24.342,93.214 23.906,92.538 23.650 C 92.323 23.568,92.193 23.425,92.251 23.332 C 92.386 23.113,91.887 22.614,91.668 22.749 C 91.393 22.919,91.478 23.165,91.773 23.052 C 91.960 22.980,92.021 23.020,91.968 23.182 C 91.924 23.317,91.614 23.439,91.237 23.470 C 90.823 23.503,90.461 23.658,90.250 23.891 C 89.031 25.239,89.028 25.240,86.365 25.362 C 81.054 25.605,79.689 25.915,79.794 26.857 C 79.883 27.659,79.903 27.667,81.791 27.667 L 83.593 27.667 84.532 26.750 C 85.593 25.714,85.690 25.695,88.299 25.995 C 90.678 26.268,91.809 27.897,90.850 29.667 C 90.676 29.988,90.383 30.562,90.199 30.944 C 89.694 31.992,89.381 32.114,86.917 32.225 C 85.725 32.278,83.850 32.474,82.750 32.659 C 78.325 33.405,74.564 33.399,73.692 32.645 C 72.669 31.760,72.667 31.753,72.667 29.845 C 72.667 28.588,72.568 27.695,72.334 26.822 C 71.879 25.125,71.500 16.805,71.840 15.983 C 72.560 14.245,73.547 13.837,77.394 13.687 L 80.372 13.571 80.853 13.033 C 81.146 12.705,81.345 12.284,81.362 11.956 C 81.433 10.629,81.430 10.619,81.010 10.554 C 80.513 10.479,80.521 10.487,80.448 10.004 C 80.408 9.744,80.256 9.592,79.996 9.552 C 79.504 9.477,79.459 9.431,79.436 8.968 C 79.421 8.669,79.306 8.583,78.879 8.548 C 78.536 8.520,78.166 8.322,77.861 8.002 C 77.564 7.692,77.213 7.500,76.940 7.500 C 76.627 7.500,76.500 7.413,76.500 7.200 C 76.500 6.707,76.146 6.500,75.300 6.500 C 74.641 6.500,74.500 6.447,74.500 6.200 C 74.500 5.708,74.146 5.500,73.311 5.500 C 72.574 5.500,72.519 5.470,72.469 5.042 C 72.419 4.608,72.366 4.581,71.458 4.533 C 70.767 4.497,70.494 4.416,70.479 4.242 C 70.414 3.491,70.525 3.556,69.250 3.521 C 68.837 3.509,68.500 3.425,68.500 3.333 C 68.500 2.809,67.820 2.500,66.667 2.500 C 65.654 2.500,65.500 2.460,65.500 2.200 C 65.500 1.609,65.157 1.500,63.300 1.500 C 61.851 1.500,61.500 1.454,61.500 1.262 C 61.500 0.898,61.000 0.478,60.604 0.509 C 58.846 0.646,55.500 0.476,55.500 0.250 C 55.500 0.032,54.676 0.000,49.083 0.000 C 43.491 0.000,42.667 0.032,42.667 0.250 M57.309 9.071 C 57.936 9.395,58.108 10.129,58.268 13.154 C 58.409 15.829,58.392 15.813,60.647 15.434 C 62.756 15.080,65.914 14.755,67.261 14.755 L 68.439 14.755 69.278 15.586 C 69.777 16.079,70.205 16.687,70.331 17.083 C 70.448 17.450,70.602 17.825,70.674 17.917 C 70.856 18.149,71.166 23.129,71.166 25.828 C 71.167 27.063,71.290 29.064,71.441 30.276 C 71.885 33.839,71.722 34.000,67.693 34.000 C 64.107 34.000,64.442 34.415,63.999 29.417 C 63.271 21.192,63.389 21.486,61.000 21.966 C 60.221 22.122,59.481 22.316,59.357 22.396 C 59.089 22.569,59.212 24.728,59.591 26.500 C 60.107 28.909,60.329 33.547,59.954 34.061 C 59.665 34.456,58.692 34.653,55.835 34.897 C 52.871 35.150,52.767 35.096,52.588 33.232 C 52.528 32.600,52.414 31.933,52.335 31.750 C 52.257 31.567,52.149 29.917,52.095 28.083 C 52.041 26.250,51.925 24.225,51.837 23.583 C 51.749 22.942,51.671 21.404,51.662 20.167 C 51.654 18.929,51.578 17.542,51.493 17.083 C 50.782 13.222,50.613 9.584,51.125 9.121 C 51.660 8.638,56.397 8.599,57.309 9.071 M39.897 12.375 C 40.366 12.800,40.833 14.065,40.833 14.913 C 40.833 16.406,41.702 16.639,45.554 16.180 L 47.524 15.945 48.304 16.724 L 49.083 17.504 49.138 19.210 C 49.229 22.066,49.224 22.069,44.930 22.259 C 41.214 22.423,41.059 22.691,41.733 27.789 C 42.035 30.075,42.239 30.377,43.382 30.235 C 44.497 30.096,44.692 29.895,44.851 28.717 C 45.073 27.073,45.707 26.820,49.167 26.993 C 50.858 27.077,51.269 27.698,51.434 30.422 C 51.540 32.172,51.525 32.301,51.112 33.175 C 50.190 35.123,50.027 35.195,45.833 35.498 C 44.504 35.594,42.817 35.747,42.083 35.837 C 38.649 36.259,37.453 36.318,36.913 36.093 C 35.542 35.520,35.008 32.921,34.726 25.446 L 34.614 22.476 33.969 22.218 C 32.420 21.598,32.389 18.396,33.920 17.167 L 34.646 16.583 34.657 14.884 C 34.672 12.317,34.919 12.143,38.699 12.024 C 39.299 12.006,39.578 12.087,39.897 12.375 M79.750 19.121 C 79.078 19.286,78.956 19.524,79.054 20.477 C 79.173 21.627,79.216 21.662,80.617 21.780 C 83.399 22.013,83.944 21.721,83.391 20.295 C 82.901 19.031,81.695 18.642,79.750 19.121 M93.070 24.198 C 93.376 24.635,93.349 24.683,92.868 24.557 C 92.653 24.501,92.500 24.331,92.500 24.147 C 92.500 23.727,92.756 23.750,93.070 24.198 M88.062 49.500 C 88.062 50.462,88.089 50.856,88.123 50.375 C 88.157 49.894,88.157 49.106,88.123 48.625 C 88.089 48.144,88.062 48.538,88.062 49.500 M88.292 53.421 C 88.248 53.652,88.276 53.881,88.356 53.930 C 88.435 53.980,88.500 53.790,88.500 53.510 C 88.500 52.891,88.401 52.849,88.292 53.421 M58.084 56.166 C 57.816 56.462,57.796 56.696,57.900 58.291 C 58.242 63.529,58.314 65.190,58.323 68.049 C 58.334 71.349,58.591 73.113,59.149 73.706 C 59.479 74.056,63.994 73.740,65.345 73.271 C 65.764 73.126,66.605 72.937,67.214 72.850 C 67.823 72.764,68.411 72.638,68.520 72.571 C 68.753 72.427,68.594 65.198,68.333 64.083 C 68.247 63.717,68.056 61.842,67.908 59.917 C 67.760 57.992,67.574 56.349,67.494 56.266 C 66.967 55.719,58.570 55.629,58.084 56.166 M88.169 82.663 C 87.870 83.222,87.366 83.403,87.459 82.919 C 87.505 82.677,87.677 82.491,87.893 82.449 C 88.089 82.410,88.271 82.369,88.298 82.356 C 88.324 82.344,88.266 82.482,88.169 82.663 M84.939 85.976 C 84.682 86.259,84.721 86.500,85.023 86.500 C 85.096 86.500,85.108 86.374,85.049 86.221 C 84.968 86.010,85.010 85.968,85.221 86.049 C 85.374 86.108,85.500 86.088,85.500 86.005 C 85.500 85.698,85.204 85.683,84.939 85.976 M60.615 88.287 C 59.744 88.418,59.460 89.163,59.580 91.000 C 59.636 91.871,59.749 93.732,59.829 95.136 C 60.003 98.161,60.139 98.500,61.180 98.500 C 61.550 98.500,61.812 98.567,61.762 98.648 C 61.711 98.729,61.798 98.785,61.954 98.773 C 62.110 98.760,62.264 98.881,62.298 99.042 C 62.338 99.235,62.256 99.332,62.054 99.331 C 61.799 99.329,61.790 99.303,61.998 99.171 C 62.195 99.047,62.173 99.020,61.891 99.041 C 61.676 99.058,61.569 99.153,61.619 99.284 C 61.740 99.597,62.288 99.549,62.487 99.208 C 62.581 99.046,62.659 99.009,62.662 99.125 C 62.669 99.427,63.159 99.381,63.280 99.067 C 63.336 98.920,63.277 98.733,63.149 98.652 C 62.954 98.529,65.009 98.387,65.559 98.486 C 65.638 98.500,65.795 98.435,65.908 98.341 C 66.021 98.247,66.170 98.225,66.238 98.293 C 66.306 98.361,66.343 98.342,66.321 98.250 C 66.225 97.855,66.555 97.500,67.018 97.500 C 67.283 97.500,67.500 97.421,67.500 97.323 C 67.500 97.226,67.436 97.187,67.357 97.235 C 67.279 97.284,67.250 97.137,67.294 96.909 C 67.338 96.681,67.439 96.454,67.520 96.404 C 67.932 96.150,67.109 93.984,66.260 93.091 C 66.071 92.892,65.786 92.509,65.627 92.240 C 63.139 88.030,63.008 87.927,60.615 88.287 M37.467 99.013 C 37.649 99.022,37.674 99.057,37.536 99.112 C 37.288 99.212,36.831 98.880,36.838 98.605 C 36.841 98.501,36.920 98.548,37.013 98.708 C 37.107 98.869,37.311 99.006,37.467 99.013 " stroke="none" fill="#f1a135" fill-rule="evenodd"></path><path id="path1" d="M52.083 8.796 C 50.569 8.937,50.408 11.195,51.493 17.083 C 51.578 17.542,51.654 18.929,51.662 20.167 C 51.671 21.404,51.749 22.942,51.837 23.583 C 51.925 24.225,52.041 26.250,52.095 28.083 C 52.149 29.917,52.257 31.567,52.335 31.750 C 52.414 31.933,52.528 32.600,52.588 33.232 C 52.767 35.096,52.871 35.150,55.835 34.897 C 58.692 34.653,59.665 34.456,59.954 34.061 C 60.329 33.547,60.107 28.909,59.591 26.500 C 59.212 24.728,59.089 22.569,59.357 22.396 C 59.481 22.316,60.221 22.122,61.000 21.966 C 63.389 21.486,63.271 21.192,63.999 29.417 C 64.442 34.415,64.107 34.000,67.693 34.000 C 71.722 34.000,71.885 33.839,71.441 30.276 C 71.290 29.064,71.167 27.063,71.166 25.828 C 71.166 23.129,70.856 18.149,70.674 17.917 C 70.602 17.825,70.448 17.450,70.331 17.083 C 70.205 16.687,69.777 16.079,69.278 15.586 L 68.439 14.755 67.261 14.755 C 65.914 14.755,62.756 15.080,60.647 15.434 C 58.392 15.813,58.409 15.829,58.268 13.154 C 58.108 10.129,57.936 9.395,57.309 9.071 C 56.817 8.817,53.646 8.649,52.083 8.796 M56.749 10.311 C 57.098 10.886,57.654 13.467,57.660 14.542 C 57.671 16.405,57.648 16.396,61.811 16.262 C 64.615 16.171,65.453 16.087,66.349 15.804 L 67.448 15.456 68.380 16.053 C 69.627 16.850,69.667 16.957,69.844 19.969 C 70.012 22.829,70.077 23.268,70.433 23.983 C 70.626 24.369,70.664 25.271,70.628 28.603 L 70.583 32.743 69.173 32.974 C 68.177 33.137,67.420 33.162,66.599 33.061 C 65.195 32.887,65.276 33.082,65.015 29.250 C 64.915 27.783,64.725 26.191,64.594 25.712 C 64.462 25.232,64.300 24.111,64.235 23.221 C 64.079 21.088,63.861 20.833,62.193 20.833 C 60.715 20.833,58.899 21.598,58.724 22.294 C 58.528 23.075,58.818 29.042,59.099 30.013 C 60.072 33.373,59.988 33.601,57.723 33.756 C 56.061 33.869,53.728 33.784,53.547 33.603 C 53.504 33.559,53.368 31.267,53.245 28.509 C 53.065 24.452,52.969 23.393,52.742 22.956 C 52.516 22.521,52.435 21.642,52.323 18.417 C 52.174 14.094,52.078 13.067,51.743 12.167 C 50.945 10.019,51.222 9.803,54.583 9.951 C 56.192 10.021,56.616 10.092,56.749 10.311 M81.333 11.997 C 81.333 12.310,81.155 12.694,80.853 13.033 L 80.372 13.571 77.394 13.687 C 73.547 13.837,72.560 14.245,71.840 15.983 C 71.500 16.805,71.879 25.125,72.334 26.822 C 72.568 27.695,72.667 28.588,72.667 29.845 C 72.667 31.753,72.669 31.760,73.692 32.645 C 74.564 33.399,78.325 33.405,82.750 32.659 C 83.850 32.474,85.725 32.278,86.917 32.225 C 89.381 32.114,89.694 31.992,90.199 30.944 C 90.383 30.562,90.676 29.988,90.850 29.667 C 91.809 27.897,90.678 26.268,88.299 25.995 C 85.690 25.695,85.593 25.714,84.532 26.750 L 83.593 27.667 81.791 27.667 C 79.903 27.667,79.883 27.659,79.794 26.857 C 79.689 25.915,81.054 25.605,86.365 25.362 C 89.028 25.240,89.031 25.239,90.250 23.891 C 90.461 23.658,90.823 23.503,91.237 23.470 C 91.614 23.439,91.924 23.317,91.968 23.182 C 92.021 23.020,91.960 22.980,91.773 23.052 C 91.478 23.165,91.393 22.919,91.668 22.749 C 91.880 22.618,92.388 23.110,92.258 23.321 C 92.205 23.407,92.237 23.524,92.331 23.582 C 92.571 23.730,92.543 22.943,92.300 22.700 C 92.190 22.590,91.974 22.500,91.821 22.500 C 91.554 22.500,91.499 22.272,91.313 20.417 C 91.304 20.325,91.352 19.725,91.421 19.083 L 91.545 17.917 91.176 18.377 C 90.973 18.630,90.753 18.803,90.687 18.762 C 90.621 18.722,90.551 18.965,90.532 19.302 C 90.396 21.694,89.831 23.539,89.169 23.749 C 88.984 23.808,88.757 23.998,88.664 24.171 C 88.436 24.597,88.016 24.644,83.563 24.742 C 78.721 24.849,78.833 24.800,78.833 26.821 C 78.833 28.153,78.944 28.218,81.340 28.303 C 83.775 28.390,84.381 28.283,85.043 27.651 C 85.328 27.378,85.667 27.195,85.795 27.244 C 85.923 27.293,86.845 27.333,87.845 27.333 L 89.662 27.333 89.900 27.902 C 90.237 28.708,89.825 30.362,89.099 31.123 L 88.583 31.663 86.500 31.673 C 82.908 31.690,79.959 31.926,79.340 32.247 C 78.297 32.786,75.644 32.806,74.850 32.281 C 74.489 32.042,74.000 31.798,73.763 31.738 L 73.333 31.631 73.333 29.682 C 73.333 26.750,73.022 23.388,72.654 22.339 C 72.393 21.597,72.333 20.967,72.333 18.945 L 72.333 16.461 72.958 15.846 C 73.990 14.830,75.027 14.582,79.196 14.354 C 80.908 14.261,81.759 14.145,82.030 13.969 C 82.243 13.830,82.690 13.666,83.023 13.604 C 83.962 13.430,84.046 12.705,83.144 12.560 C 82.694 12.488,82.500 12.373,82.500 12.179 C 82.500 11.788,82.168 11.500,81.717 11.500 C 81.402 11.500,81.333 11.589,81.333 11.997 M36.683 12.162 C 34.887 12.327,34.670 12.618,34.657 14.884 L 34.646 16.583 33.920 17.167 C 32.912 17.975,32.773 18.374,32.918 20.036 C 33.064 21.714,33.149 21.890,33.969 22.218 L 34.614 22.476 34.726 25.446 C 35.008 32.921,35.542 35.520,36.913 36.093 C 37.453 36.318,38.649 36.259,42.083 35.837 C 42.817 35.747,44.504 35.594,45.833 35.498 C 50.027 35.195,50.190 35.123,51.112 33.175 C 51.525 32.301,51.540 32.172,51.434 30.422 C 51.269 27.698,50.858 27.077,49.167 26.993 C 45.707 26.820,45.073 27.073,44.851 28.717 C 44.692 29.895,44.497 30.096,43.382 30.235 C 42.239 30.377,42.035 30.075,41.733 27.789 C 41.059 22.691,41.214 22.423,44.930 22.259 C 49.224 22.069,49.229 22.066,49.138 19.210 L 49.083 17.504 48.304 16.724 L 47.524 15.945 45.554 16.180 C 41.702 16.639,40.833 16.406,40.833 14.913 C 40.833 14.065,40.366 12.800,39.897 12.375 C 39.448 11.969,39.062 11.944,36.683 12.162 M39.574 13.319 C 39.626 13.403,39.734 14.118,39.814 14.909 C 40.053 17.269,40.370 17.423,44.642 17.254 L 47.583 17.137 48.125 17.849 C 48.912 18.882,48.912 20.194,48.126 21.017 L 47.585 21.583 44.584 21.681 C 40.432 21.816,40.772 21.434,40.795 25.940 C 40.819 30.722,41.034 31.167,43.330 31.167 C 44.882 31.167,45.104 30.991,45.333 29.584 C 45.419 29.054,45.511 28.609,45.537 28.593 C 45.562 28.578,45.807 28.425,46.081 28.253 C 46.721 27.851,48.890 27.715,49.500 28.038 C 49.908 28.254,50.008 28.502,50.523 30.583 C 50.716 31.367,50.579 32.297,50.209 32.709 C 50.065 32.871,49.863 33.169,49.761 33.373 C 49.660 33.577,49.353 33.811,49.080 33.891 C 48.807 33.972,48.324 34.148,48.007 34.283 C 47.234 34.611,45.063 34.817,42.352 34.818 C 40.555 34.820,39.886 34.890,38.909 35.180 L 37.697 35.540 37.015 34.992 C 36.535 34.607,36.333 34.317,36.333 34.014 C 36.329 32.208,35.943 28.017,35.727 27.440 C 35.570 27.019,35.440 25.971,35.393 24.750 C 35.297 22.202,35.263 22.058,34.667 21.750 C 34.361 21.592,34.136 21.320,34.079 21.039 C 34.028 20.788,33.877 20.371,33.743 20.111 C 33.305 19.262,33.426 18.455,34.035 18.167 C 35.012 17.704,35.240 17.181,35.333 15.197 L 35.417 13.417 36.000 13.314 C 36.934 13.149,39.471 13.152,39.574 13.319 M79.182 18.051 C 77.941 18.486,77.382 20.956,78.314 21.888 C 78.883 22.458,83.454 22.546,84.003 21.997 C 84.671 21.329,84.189 18.526,83.328 18.080 C 82.741 17.777,80.020 17.758,79.182 18.051 M82.865 19.292 C 83.176 19.655,83.667 20.899,83.667 21.325 C 83.667 21.858,79.807 22.041,79.298 21.531 C 79.022 21.255,78.937 19.592,79.189 19.388 C 79.770 18.915,82.482 18.844,82.865 19.292 M91.118 19.873 C 91.078 20.080,91.044 19.950,91.042 19.583 C 91.040 19.217,91.073 19.047,91.115 19.206 C 91.156 19.366,91.158 19.666,91.118 19.873 M27.557 22.750 C 27.558 23.483,27.587 23.763,27.622 23.371 C 27.657 22.979,27.657 22.379,27.621 22.037 C 27.585 21.696,27.557 22.017,27.557 22.750 M92.500 24.130 C 92.500 24.307,92.703 24.503,93.001 24.616 L 93.503 24.805 93.157 24.319 C 92.764 23.769,92.500 23.692,92.500 24.130 M94.167 39.822 C 93.517 40.302,92.553 40.498,90.832 40.499 C 88.552 40.500,88.389 40.670,88.493 42.926 C 88.534 43.837,88.596 44.283,88.629 43.917 C 88.662 43.550,88.750 43.188,88.824 43.112 C 88.898 43.037,88.929 43.187,88.892 43.446 C 88.831 43.881,88.839 43.888,88.991 43.542 C 89.082 43.335,89.233 43.167,89.328 43.167 C 89.423 43.167,89.500 42.985,89.500 42.762 C 89.500 42.100,89.876 41.892,91.279 41.774 C 91.996 41.714,93.016 41.629,93.545 41.584 C 94.074 41.540,94.675 41.393,94.881 41.258 C 95.288 40.991,96.372 40.747,97.888 40.580 C 98.608 40.500,98.836 40.415,98.772 40.247 C 98.719 40.108,98.827 39.993,99.051 39.950 C 99.347 39.892,99.321 39.869,98.917 39.827 C 98.628 39.798,98.874 39.731,99.500 39.669 C 100.231 39.597,99.609 39.555,97.583 39.539 C 94.904 39.517,94.539 39.547,94.167 39.822 M69.000 42.515 C 65.654 42.586,59.167 42.725,54.583 42.824 C 50.000 42.923,44.938 43.004,43.333 43.004 C 39.710 43.005,39.616 43.040,39.499 44.421 C 39.452 44.968,39.469 45.604,39.536 45.833 C 39.604 46.063,39.737 48.125,39.834 50.417 C 39.930 52.708,40.123 55.258,40.262 56.083 C 40.401 56.908,40.581 59.158,40.661 61.083 C 40.742 63.008,40.924 65.521,41.065 66.667 C 41.206 67.813,41.363 69.462,41.415 70.333 C 41.720 75.496,42.207 82.426,42.417 84.583 C 42.550 85.958,42.739 88.396,42.836 90.000 C 42.933 91.604,43.096 93.854,43.198 95.000 C 43.484 98.200,43.445 99.007,42.984 99.380 C 42.682 99.624,42.638 99.750,42.776 99.970 C 43.075 100.445,43.500 100.418,43.500 99.924 C 43.500 99.685,43.609 99.448,43.742 99.397 C 44.392 99.147,44.397 95.359,43.755 90.167 C 43.625 89.112,43.440 86.487,43.343 84.333 C 43.065 78.117,43.012 77.381,42.672 75.000 C 42.495 73.762,42.275 70.858,42.182 68.546 C 42.045 65.143,41.958 64.237,41.728 63.796 C 41.492 63.341,41.421 62.477,41.308 58.633 C 41.233 56.094,41.104 53.731,41.021 53.383 C 40.937 53.035,40.749 52.303,40.601 51.757 C 40.259 50.488,40.207 44.431,40.537 44.227 C 40.649 44.158,46.382 44.010,53.278 43.899 C 60.174 43.788,65.876 43.660,65.950 43.614 C 66.025 43.568,69.160 43.478,72.918 43.414 L 79.750 43.297 80.398 43.815 C 80.754 44.100,81.146 44.333,81.269 44.333 C 81.391 44.333,81.608 44.558,81.750 44.833 C 81.892 45.108,82.119 45.333,82.254 45.333 C 82.389 45.333,82.501 45.465,82.502 45.625 C 82.521 48.332,83.053 55.748,83.327 57.137 C 83.549 58.261,83.668 59.533,83.670 60.804 C 83.676 63.927,83.966 67.563,84.330 69.068 C 84.552 69.988,84.667 71.027,84.667 72.122 C 84.667 73.035,84.748 74.952,84.847 76.383 C 85.048 79.292,84.891 80.701,84.333 81.000 C 84.161 81.092,83.910 81.558,83.767 82.049 C 83.402 83.304,81.931 84.426,80.237 84.740 C 79.091 84.953,78.507 86.216,79.264 86.845 C 79.409 86.965,79.652 87.326,79.805 87.647 C 80.012 88.082,80.232 88.268,80.667 88.376 C 80.987 88.456,81.325 88.610,81.417 88.719 C 81.649 88.995,82.533 88.994,82.427 88.718 C 82.382 88.601,82.512 88.418,82.715 88.311 C 83.420 87.939,83.530 87.500,82.917 87.500 C 82.619 87.500,82.500 87.590,82.500 87.816 C 82.500 88.127,82.196 88.333,81.736 88.333 C 81.606 88.333,81.500 88.218,81.500 88.078 C 81.500 87.937,81.245 87.672,80.933 87.488 C 80.010 86.943,79.928 85.603,80.807 85.435 C 82.977 85.018,83.136 84.966,83.540 84.535 C 83.773 84.287,84.202 83.521,84.493 82.833 C 84.785 82.146,85.252 81.096,85.532 80.500 C 86.074 79.344,86.132 76.881,85.653 75.330 C 85.555 75.011,85.409 73.169,85.329 71.236 C 85.250 69.303,85.073 66.828,84.937 65.736 C 84.801 64.644,84.642 62.775,84.585 61.583 C 84.466 59.084,84.239 55.846,84.008 53.333 C 83.919 52.371,83.761 50.346,83.656 48.833 C 83.409 45.287,83.375 45.209,81.290 43.481 C 79.737 42.195,80.658 42.268,69.000 42.515 M87.507 50.747 C 87.517 53.139,87.582 54.365,87.704 54.440 C 87.825 54.514,87.852 54.422,87.785 54.165 C 87.693 53.814,87.708 53.803,87.945 54.040 C 88.089 54.184,88.235 54.547,88.270 54.845 C 88.305 55.144,88.362 55.417,88.397 55.452 C 88.498 55.554,88.490 54.119,88.388 53.954 C 88.338 53.873,88.274 53.381,88.247 52.861 C 87.950 47.237,87.943 47.167,87.659 47.167 C 87.551 47.167,87.497 48.446,87.507 50.747 M89.165 52.337 C 89.066 52.522,89.030 52.747,89.085 52.837 C 89.278 53.149,89.449 52.997,89.463 52.500 C 89.480 51.913,89.412 51.876,89.165 52.337 M88.747 52.508 C 88.621 52.905,88.921 53.338,89.312 53.323 C 89.487 53.316,89.445 53.257,89.191 53.155 C 88.876 53.029,88.819 52.915,88.902 52.582 C 89.027 52.084,88.901 52.023,88.747 52.508 M57.329 55.136 C 56.582 55.741,56.674 61.185,57.483 64.250 C 57.580 64.617,57.665 66.492,57.673 68.417 C 57.698 74.640,57.827 75.078,59.638 75.078 C 60.312 75.078,60.755 74.981,61.095 74.758 C 61.486 74.502,62.031 74.415,63.833 74.321 C 66.131 74.201,66.547 74.123,67.019 73.720 C 67.166 73.593,67.721 73.420,68.250 73.333 C 69.878 73.068,70.083 72.606,69.583 70.333 C 69.452 69.737,69.342 68.387,69.339 67.333 C 69.330 64.417,69.000 60.002,68.735 59.252 C 68.605 58.884,68.451 58.021,68.393 57.333 C 68.278 55.977,68.011 55.273,67.509 55.005 C 66.874 54.665,57.766 54.783,57.329 55.136 M66.550 55.985 C 67.658 56.167,67.609 56.025,67.908 59.917 C 68.056 61.842,68.247 63.717,68.333 64.083 C 68.594 65.198,68.753 72.427,68.520 72.571 C 68.411 72.638,67.823 72.764,67.214 72.850 C 66.605 72.937,65.764 73.126,65.345 73.271 C 63.994 73.740,59.479 74.056,59.149 73.706 C 58.591 73.113,58.334 71.349,58.323 68.049 C 58.314 65.190,58.242 63.529,57.900 58.291 C 57.730 55.685,57.481 55.831,62.067 55.843 C 64.093 55.849,66.110 55.912,66.550 55.985 M90.219 56.325 C 90.066 56.503,89.878 56.611,89.802 56.564 C 89.726 56.517,89.613 56.615,89.550 56.781 C 89.487 56.947,89.337 57.182,89.218 57.304 C 88.789 57.737,89.000 58.833,89.513 58.833 C 89.720 58.833,89.791 58.750,89.727 58.583 C 89.674 58.446,89.714 58.324,89.816 58.313 C 89.917 58.301,90.081 58.282,90.180 58.271 C 90.689 58.212,91.034 56.733,90.579 56.559 C 90.383 56.483,90.369 56.408,90.516 56.231 C 90.621 56.104,90.660 56.000,90.602 56.000 C 90.544 56.000,90.372 56.146,90.219 56.325 M89.833 59.510 C 89.833 59.607,89.758 59.640,89.667 59.583 C 89.565 59.520,89.507 59.758,89.517 60.198 C 89.533 60.869,89.543 60.883,89.663 60.417 C 89.734 60.142,89.847 59.785,89.914 59.625 C 89.981 59.465,89.990 59.333,89.934 59.333 C 89.879 59.333,89.833 59.413,89.833 59.510 M89.557 64.875 C 89.582 66.227,89.543 67.333,89.468 67.333 C 89.394 67.333,89.333 67.031,89.333 66.661 C 89.333 65.951,88.992 64.951,88.684 64.761 C 88.553 64.680,88.500 65.290,88.500 66.857 C 88.500 68.445,88.551 69.016,88.681 68.886 C 88.994 68.573,89.472 68.819,89.423 69.269 C 89.398 69.492,89.443 69.715,89.522 69.764 C 89.602 69.813,89.669 70.130,89.672 70.468 C 89.682 71.592,90.556 72.272,90.623 71.208 C 90.864 67.393,90.633 64.764,90.067 64.906 C 89.693 65.000,89.667 64.961,89.667 64.327 C 89.667 63.953,89.735 63.689,89.818 63.741 C 90.050 63.884,90.500 63.660,90.500 63.401 C 90.500 63.263,90.354 63.187,90.137 63.210 C 89.878 63.239,89.736 63.131,89.642 62.833 C 89.569 62.601,89.531 63.505,89.557 64.875 M89.611 77.778 C 89.550 77.839,89.500 78.370,89.500 78.958 C 89.500 80.203,89.771 80.306,90.157 79.208 C 90.472 78.315,90.085 77.303,89.611 77.778 M88.958 80.469 C 88.301 80.545,88.267 81.500,88.922 81.500 C 89.368 81.500,89.562 81.224,89.472 80.720 C 89.431 80.497,89.296 80.431,88.958 80.469 M90.539 81.000 C 90.539 81.321,90.573 81.452,90.615 81.292 C 90.657 81.131,90.657 80.869,90.615 80.708 C 90.573 80.548,90.539 80.679,90.539 81.000 M88.276 82.243 C 88.222 82.384,88.034 82.500,87.858 82.500 C 87.651 82.500,87.511 82.644,87.461 82.909 C 87.395 83.254,87.427 83.295,87.668 83.166 C 87.989 82.994,88.567 82.178,88.451 82.062 C 88.409 82.020,88.330 82.101,88.276 82.243 M86.542 83.938 C 86.542 84.365,86.812 84.454,87.133 84.133 C 87.454 83.812,87.365 83.542,86.938 83.542 C 86.632 83.542,86.542 83.632,86.542 83.938 M85.500 85.306 C 85.500 85.412,85.382 85.500,85.238 85.500 C 84.904 85.500,84.554 85.849,84.473 86.262 C 84.426 86.504,84.297 86.570,83.952 86.529 C 83.531 86.480,83.496 86.519,83.532 86.992 C 83.560 87.351,83.641 87.482,83.799 87.421 C 83.925 87.373,84.096 87.333,84.180 87.333 C 84.264 87.333,84.333 87.226,84.333 87.095 C 84.333 86.964,84.451 86.739,84.595 86.595 C 84.739 86.451,84.803 86.333,84.736 86.333 C 84.669 86.333,84.749 86.185,84.913 86.004 C 85.077 85.823,85.268 85.710,85.338 85.753 C 85.486 85.844,85.717 85.328,85.587 85.198 C 85.539 85.150,85.500 85.199,85.500 85.306 M59.726 87.782 C 58.774 87.968,58.746 88.129,58.796 93.139 C 58.831 96.595,58.903 97.946,59.088 98.567 C 59.223 99.022,59.333 99.685,59.333 100.041 C 59.333 100.948,59.590 101.386,59.994 101.170 C 60.218 101.050,60.330 101.061,60.390 101.210 C 60.436 101.324,60.480 100.940,60.487 100.356 L 60.500 99.296 61.106 99.410 C 61.581 99.499,61.692 99.474,61.624 99.296 C 61.568 99.151,61.666 99.058,61.891 99.041 C 62.173 99.020,62.195 99.047,61.998 99.171 C 61.790 99.303,61.799 99.329,62.054 99.331 C 62.256 99.332,62.338 99.235,62.298 99.042 C 62.264 98.881,62.110 98.760,61.954 98.773 C 61.798 98.785,61.711 98.729,61.762 98.648 C 61.812 98.567,61.550 98.500,61.180 98.500 C 60.139 98.500,60.003 98.161,59.829 95.136 C 59.749 93.732,59.636 91.871,59.580 91.000 C 59.442 88.885,59.695 88.416,61.071 88.244 C 62.931 88.012,63.155 88.147,64.406 90.250 C 65.352 91.839,65.855 92.604,66.325 93.167 C 67.220 94.237,67.927 96.153,67.520 96.404 C 67.439 96.454,67.338 96.681,67.294 96.909 C 67.250 97.137,67.279 97.284,67.357 97.235 C 67.436 97.187,67.500 97.231,67.500 97.334 C 67.500 97.445,67.721 97.500,68.042 97.469 C 68.884 97.388,68.678 94.795,67.762 93.940 C 67.552 93.744,67.325 93.410,67.259 93.199 C 67.192 92.987,66.957 92.745,66.736 92.661 C 66.429 92.545,66.333 92.385,66.333 91.988 C 66.333 91.624,66.182 91.326,65.833 91.000 C 65.558 90.743,65.333 90.409,65.333 90.258 C 65.333 89.902,64.867 89.000,64.683 89.000 C 64.604 89.000,64.445 88.769,64.328 88.486 C 64.018 87.738,61.736 87.389,59.726 87.782 M36.838 98.605 C 36.831 98.880,37.288 99.212,37.536 99.112 C 37.674 99.057,37.649 99.022,37.467 99.013 C 37.311 99.006,37.107 98.869,37.013 98.708 C 36.920 98.548,36.841 98.501,36.838 98.605 M38.708 99.448 C 38.869 99.490,39.131 99.490,39.292 99.448 C 39.452 99.406,39.321 99.372,39.000 99.372 C 38.679 99.372,38.548 99.406,38.708 99.448 " stroke="none" fill="#5c350e" fill-rule="evenodd"></path><path id="path2" d="M36.916 1.001 C 36.490 1.472,36.671 1.516,37.119 1.050 C 37.322 0.839,37.427 0.667,37.353 0.667 C 37.279 0.667,37.082 0.817,36.916 1.001 M52.167 9.947 C 51.284 10.127,51.183 10.659,51.743 12.167 C 52.078 13.067,52.174 14.094,52.323 18.417 C 52.435 21.642,52.516 22.521,52.742 22.956 C 52.969 23.393,53.065 24.452,53.245 28.509 C 53.368 31.267,53.504 33.559,53.547 33.603 C 53.728 33.784,56.061 33.869,57.723 33.756 C 59.988 33.601,60.072 33.373,59.099 30.013 C 58.818 29.042,58.528 23.075,58.724 22.294 C 58.899 21.598,60.715 20.833,62.193 20.833 C 63.861 20.833,64.079 21.088,64.235 23.221 C 64.300 24.111,64.462 25.232,64.594 25.712 C 64.725 26.191,64.915 27.783,65.015 29.250 C 65.276 33.082,65.195 32.887,66.599 33.061 C 67.420 33.162,68.177 33.137,69.173 32.974 L 70.583 32.743 70.628 28.603 C 70.664 25.271,70.626 24.369,70.433 23.983 C 70.077 23.268,70.012 22.829,69.844 19.969 C 69.667 16.957,69.627 16.850,68.380 16.053 L 67.448 15.456 66.349 15.804 C 65.453 16.087,64.615 16.171,61.811 16.262 C 57.648 16.396,57.671 16.405,57.660 14.542 C 57.654 13.467,57.098 10.886,56.749 10.311 C 56.577 10.028,53.121 9.754,52.167 9.947 M83.517 12.608 C 84.054 12.756,83.695 13.480,83.023 13.604 C 82.690 13.666,82.243 13.830,82.030 13.969 C 81.759 14.145,80.908 14.261,79.196 14.354 C 75.027 14.582,73.990 14.830,72.958 15.846 L 72.333 16.461 72.333 18.945 C 72.333 20.967,72.393 21.597,72.654 22.339 C 73.022 23.388,73.333 26.750,73.333 29.682 L 73.333 31.631 73.763 31.738 C 74.000 31.798,74.489 32.042,74.850 32.281 C 75.644 32.806,78.297 32.786,79.340 32.247 C 79.959 31.926,82.908 31.690,86.500 31.673 L 88.583 31.663 89.099 31.123 C 89.825 30.362,90.237 28.708,89.900 27.902 L 89.662 27.333 87.845 27.333 C 86.845 27.333,85.923 27.293,85.795 27.244 C 85.667 27.195,85.328 27.378,85.043 27.651 C 84.381 28.283,83.775 28.390,81.340 28.303 C 78.944 28.218,78.833 28.153,78.833 26.821 C 78.833 24.800,78.721 24.849,83.563 24.742 C 88.016 24.644,88.436 24.597,88.664 24.171 C 88.757 23.998,88.984 23.808,89.169 23.749 C 89.831 23.539,90.396 21.694,90.532 19.302 C 90.551 18.965,90.621 18.722,90.687 18.762 C 91.185 19.070,91.507 17.912,91.462 15.980 C 91.411 13.764,91.363 13.667,90.274 13.544 C 89.608 13.469,89.512 13.407,89.467 13.021 L 89.417 12.583 86.333 12.559 C 84.637 12.546,83.370 12.568,83.517 12.608 M36.000 13.314 L 35.417 13.417 35.333 15.197 C 35.240 17.181,35.012 17.704,34.035 18.167 C 33.426 18.455,33.305 19.262,33.743 20.111 C 33.877 20.371,34.028 20.788,34.079 21.039 C 34.136 21.320,34.361 21.592,34.667 21.750 C 35.263 22.058,35.297 22.202,35.393 24.750 C 35.440 25.971,35.570 27.019,35.727 27.440 C 35.943 28.017,36.329 32.208,36.333 34.014 C 36.333 34.317,36.535 34.607,37.015 34.992 L 37.697 35.540 38.909 35.180 C 39.886 34.890,40.555 34.820,42.352 34.818 C 45.063 34.817,47.234 34.611,48.007 34.283 C 48.324 34.148,48.807 33.972,49.080 33.891 C 49.353 33.811,49.660 33.577,49.761 33.373 C 49.863 33.169,50.065 32.871,50.209 32.709 C 50.579 32.297,50.716 31.367,50.523 30.583 C 50.008 28.502,49.908 28.254,49.500 28.038 C 48.890 27.715,46.721 27.851,46.081 28.253 C 45.807 28.425,45.562 28.578,45.537 28.593 C 45.511 28.609,45.419 29.054,45.333 29.584 C 45.104 30.991,44.882 31.167,43.330 31.167 C 41.034 31.167,40.819 30.722,40.795 25.940 C 40.772 21.434,40.432 21.816,44.584 21.681 L 47.585 21.583 48.126 21.017 C 48.912 20.194,48.912 18.882,48.125 17.849 L 47.583 17.137 44.642 17.254 C 40.370 17.423,40.053 17.269,39.814 14.909 C 39.734 14.118,39.626 13.403,39.574 13.319 C 39.471 13.152,36.934 13.149,36.000 13.314 M368.611 16.611 C 368.425 16.797,368.485 26.523,368.677 27.213 C 368.773 27.559,368.997 27.933,369.176 28.044 C 369.487 28.238,369.500 28.481,369.502 33.915 C 369.505 40.125,369.517 40.260,370.099 40.406 L 370.500 40.506 370.502 46.545 C 370.505 53.143,370.515 53.259,371.099 53.406 L 371.500 53.506 371.500 57.012 L 371.500 60.517 378.334 60.467 L 385.168 60.417 385.554 59.967 L 385.941 59.517 391.555 59.467 L 397.168 59.417 397.562 58.958 C 397.886 58.581,398.092 58.500,398.728 58.500 L 399.500 58.500 399.483 54.625 C 399.465 50.385,399.416 49.995,398.870 49.752 C 398.534 49.603,398.500 49.469,398.500 48.306 C 398.500 46.552,398.430 46.496,396.280 46.517 C 394.217 46.537,393.767 46.644,393.697 47.132 L 393.643 47.500 388.572 47.500 L 383.500 47.500 383.490 41.708 C 383.479 35.420,383.399 34.424,382.864 33.992 C 382.525 33.717,382.518 33.572,382.468 26.008 L 382.417 18.304 381.958 17.910 C 381.645 17.640,381.500 17.356,381.500 17.008 L 381.500 16.500 375.111 16.500 C 371.597 16.500,368.672 16.550,368.611 16.611 M333.974 17.615 C 333.822 17.653,333.652 17.868,333.596 18.093 C 333.516 18.411,333.385 18.500,332.997 18.500 C 332.556 18.500,332.500 18.556,332.500 19.000 C 332.500 19.444,332.444 19.500,332.000 19.500 C 331.556 19.500,331.500 19.556,331.500 20.000 C 331.500 20.444,331.444 20.500,331.000 20.500 C 330.558 20.500,330.500 20.557,330.500 20.989 C 330.500 21.398,330.426 21.486,330.042 21.531 C 329.682 21.572,329.572 21.682,329.531 22.042 C 329.496 22.345,329.380 22.500,329.189 22.500 C 329.030 22.500,328.815 22.585,328.711 22.689 C 328.569 22.831,328.484 22.736,328.376 22.314 C 328.275 21.924,328.120 21.734,327.873 21.698 C 327.558 21.652,327.509 21.523,327.466 20.614 L 327.417 19.583 325.628 19.536 C 323.479 19.479,322.771 19.624,322.697 20.135 C 322.644 20.495,322.605 20.500,319.572 20.500 C 316.890 20.500,316.500 20.533,316.500 20.762 C 316.500 21.099,316.099 21.500,315.762 21.500 C 315.582 21.500,315.500 21.657,315.500 22.000 C 315.500 22.444,315.444 22.500,315.000 22.500 C 314.556 22.500,314.500 22.444,314.500 22.000 L 314.500 21.500 310.277 21.500 C 302.975 21.500,300.504 21.647,300.041 22.111 L 299.652 22.500 293.776 22.500 C 287.684 22.500,287.500 22.520,287.500 23.189 C 287.500 23.380,287.345 23.496,287.042 23.531 C 286.682 23.572,286.572 23.682,286.531 24.041 C 286.494 24.359,286.358 24.529,286.088 24.597 C 285.673 24.701,285.506 25.087,285.502 25.947 C 285.500 26.402,285.434 26.485,285.042 26.531 C 284.682 26.572,284.572 26.682,284.531 27.041 C 284.494 27.361,284.359 27.529,284.082 27.599 C 283.815 27.666,283.651 27.859,283.577 28.196 C 283.517 28.471,283.250 28.903,282.984 29.157 L 282.500 29.619 282.501 33.851 C 282.501 38.214,282.650 39.167,283.331 39.167 C 283.439 39.167,283.506 40.435,283.517 42.708 C 283.535 46.607,283.589 47.007,284.130 47.248 C 284.499 47.412,284.500 47.425,284.510 52.081 C 284.520 57.352,284.585 58.009,285.118 58.244 C 285.475 58.402,285.484 58.481,285.533 62.114 C 285.590 66.285,285.590 66.288,286.810 66.451 C 287.437 66.535,287.500 66.588,287.500 67.022 C 287.500 67.442,287.561 67.500,288.000 67.500 C 288.444 67.500,288.500 67.556,288.500 68.000 C 288.500 68.444,288.556 68.500,289.000 68.500 C 289.444 68.500,289.500 68.556,289.500 69.000 C 289.500 69.442,289.557 69.500,289.989 69.500 C 290.398 69.500,290.486 69.574,290.531 69.958 C 290.583 70.413,290.595 70.417,292.083 70.501 C 292.908 70.548,293.396 70.623,293.167 70.668 C 292.894 70.722,292.732 70.879,292.697 71.125 C 292.645 71.491,292.593 71.500,290.572 71.500 L 288.500 71.500 288.500 71.989 C 288.500 72.398,288.426 72.486,288.042 72.531 C 287.608 72.580,287.581 72.635,287.534 73.531 C 287.487 74.423,287.457 74.482,287.034 74.531 L 286.583 74.583 286.583 79.000 L 286.583 83.417 287.042 83.469 C 287.470 83.519,287.500 83.574,287.500 84.311 C 287.500 85.141,287.708 85.500,288.189 85.500 C 288.380 85.500,288.496 85.655,288.531 85.958 C 288.572 86.315,288.682 86.428,289.032 86.468 C 289.378 86.508,289.492 86.622,289.532 86.968 C 289.571 87.312,289.686 87.429,290.021 87.467 C 290.407 87.512,290.469 87.608,290.544 88.274 C 290.676 89.450,290.510 89.411,295.716 89.469 C 301.206 89.530,302.020 89.465,302.570 88.915 L 302.963 88.522 313.829 88.469 L 324.696 88.417 325.090 87.958 C 325.440 87.551,325.598 87.500,326.505 87.500 C 327.730 87.500,328.500 86.926,328.500 86.013 C 328.500 85.554,328.553 85.500,329.000 85.500 C 329.444 85.500,329.500 85.444,329.500 85.000 C 329.500 84.556,329.556 84.500,330.000 84.500 C 330.444 84.500,330.500 84.444,330.500 84.000 C 330.500 83.556,330.556 83.500,331.000 83.500 C 331.442 83.500,331.500 83.443,331.500 83.011 C 331.500 82.602,331.574 82.514,331.958 82.469 L 332.417 82.417 332.464 80.831 C 332.524 78.824,332.359 77.970,331.870 77.752 L 331.500 77.588 331.498 72.002 C 331.495 65.879,331.482 65.740,330.901 65.594 L 330.500 65.494 330.500 60.497 L 330.500 55.500 331.000 55.500 C 331.444 55.500,331.500 55.556,331.500 56.000 C 331.500 56.444,331.556 56.500,331.997 56.500 C 332.383 56.500,332.516 56.590,332.594 56.901 C 332.747 57.508,332.417 57.495,348.258 57.498 C 363.769 57.500,363.500 57.512,363.500 56.800 C 363.500 56.622,363.622 56.500,363.800 56.500 C 364.292 56.500,364.500 56.146,364.500 55.311 C 364.500 54.574,364.530 54.519,364.958 54.469 C 365.340 54.425,365.425 54.326,365.469 53.875 C 365.507 53.475,365.603 53.333,365.834 53.333 C 366.237 53.333,366.313 53.197,366.446 52.224 C 366.522 51.668,366.676 51.326,366.945 51.115 C 367.446 50.720,367.438 50.273,366.922 49.867 C 366.532 49.560,366.509 49.443,366.464 47.564 L 366.417 45.583 365.958 45.531 C 365.655 45.496,365.500 45.380,365.500 45.189 C 365.500 44.626,365.141 44.500,363.538 44.500 C 362.118 44.500,362.000 44.476,362.238 44.238 C 362.382 44.094,362.500 43.869,362.500 43.738 C 362.500 43.598,362.664 43.500,362.899 43.500 C 363.119 43.500,363.539 43.275,363.833 43.000 C 364.128 42.725,364.533 42.500,364.734 42.500 C 365.174 42.500,365.500 42.206,365.500 41.811 C 365.500 41.620,365.655 41.504,365.958 41.469 L 366.417 41.417 366.461 36.858 C 366.504 32.457,366.518 32.289,366.855 32.016 C 367.318 31.641,367.479 30.086,367.491 25.896 L 367.500 22.709 366.946 22.104 C 366.581 21.705,366.245 21.500,365.958 21.500 C 365.606 21.500,365.512 21.411,365.469 21.042 C 365.428 20.682,365.318 20.572,364.958 20.531 C 364.655 20.496,364.500 20.380,364.500 20.189 C 364.500 19.707,364.140 19.500,363.300 19.500 C 362.522 19.500,362.500 19.486,362.500 19.000 L 362.500 18.500 349.992 18.500 L 337.484 18.500 337.117 18.100 C 336.756 17.706,334.801 17.404,333.974 17.615 M83.328 18.080 C 84.189 18.526,84.671 21.329,84.003 21.997 C 83.454 22.546,78.883 22.458,78.314 21.888 C 77.796 21.370,77.771 19.388,78.273 18.711 C 78.900 17.866,82.132 17.462,83.328 18.080 M91.042 19.583 C 91.044 19.950,91.078 20.080,91.118 19.873 C 91.158 19.666,91.156 19.366,91.115 19.206 C 91.073 19.047,91.040 19.217,91.042 19.583 M91.303 19.904 C 91.267 20.218,91.291 20.611,91.357 20.779 C 91.430 20.966,91.481 20.746,91.488 20.208 C 91.502 19.215,91.403 19.052,91.303 19.904 M272.116 24.614 C 271.950 24.659,271.746 24.876,271.661 25.097 L 271.508 25.500 268.204 25.500 C 264.784 25.500,264.500 25.554,264.500 26.200 C 264.500 26.479,264.263 26.500,261.094 26.500 C 257.558 26.500,256.861 26.606,256.714 27.169 C 256.632 27.483,256.482 27.500,253.764 27.500 C 250.806 27.500,250.500 27.565,250.500 28.197 C 250.500 28.371,250.335 28.535,250.099 28.594 C 249.674 28.701,249.506 29.082,249.502 29.947 C 249.500 30.402,249.434 30.485,249.042 30.531 L 248.583 30.583 248.538 34.044 C 248.486 38.090,248.590 39.011,249.127 39.248 L 249.500 39.412 249.520 50.748 C 249.541 62.806,249.550 62.995,250.118 63.245 C 250.481 63.404,250.485 63.455,250.534 67.773 C 250.561 70.174,250.646 72.202,250.723 72.278 C 251.077 72.628,254.235 72.334,254.595 71.917 C 254.935 71.523,254.979 71.518,258.539 71.468 C 260.520 71.440,262.202 71.354,262.278 71.278 C 262.354 71.202,262.438 68.295,262.464 64.820 L 262.511 58.500 263.381 58.483 C 264.576 58.461,265.055 58.303,265.248 57.870 C 265.405 57.517,265.506 57.500,267.456 57.500 L 269.500 57.500 269.502 61.042 C 269.505 65.019,269.538 65.265,270.095 65.405 C 270.487 65.503,270.492 65.530,270.537 67.960 L 270.583 70.417 274.833 70.465 C 279.709 70.521,280.119 70.480,280.334 69.914 C 280.477 69.538,280.578 69.510,281.952 69.465 L 283.417 69.417 283.465 65.000 C 283.519 60.053,283.480 59.631,282.906 59.057 L 282.500 58.652 282.500 54.761 L 282.500 50.871 282.002 50.477 L 281.503 50.083 281.502 45.977 L 281.500 41.871 281.002 41.477 L 280.503 41.083 280.501 37.000 C 280.499 32.806,280.343 31.833,279.675 31.833 C 279.583 31.833,279.491 31.124,279.464 30.208 L 279.417 28.583 278.958 28.531 C 278.574 28.486,278.500 28.398,278.500 27.989 C 278.500 27.557,278.442 27.500,278.000 27.500 C 277.514 27.500,277.500 27.478,277.500 26.700 C 277.500 25.860,277.293 25.500,276.811 25.500 C 276.620 25.500,276.504 25.345,276.469 25.042 L 276.417 24.583 274.417 24.559 C 273.317 24.545,272.281 24.570,272.116 24.614 M205.500 29.613 C 204.200 29.708,203.735 29.828,203.381 30.158 C 203.178 30.347,202.737 30.501,202.310 30.531 L 201.583 30.583 201.538 33.378 C 201.486 36.517,201.592 37.224,202.125 37.302 L 202.480 37.354 202.531 46.469 C 202.585 55.942,202.655 56.833,203.345 56.833 C 203.422 56.833,203.508 59.834,203.534 63.501 L 203.583 70.168 204.042 70.562 L 204.500 70.955 204.500 76.900 C 204.500 83.090,204.566 83.741,205.231 84.113 C 205.457 84.239,205.500 84.830,205.539 88.338 L 205.583 92.417 209.417 92.465 C 213.905 92.522,214.260 92.483,214.403 91.912 L 214.506 91.500 218.378 91.483 C 222.615 91.465,223.005 91.416,223.248 90.870 C 223.411 90.503,223.448 90.500,227.248 90.499 C 231.186 90.499,232.167 90.333,232.167 89.669 C 232.167 89.560,233.480 89.499,235.875 89.498 C 240.026 89.495,240.264 89.464,240.404 88.906 C 240.501 88.521,240.557 88.509,242.460 88.464 L 244.417 88.417 244.468 87.968 C 244.508 87.622,244.622 87.508,244.968 87.468 C 245.318 87.428,245.428 87.315,245.469 86.958 C 245.514 86.574,245.602 86.500,246.011 86.500 C 246.443 86.500,246.500 86.442,246.500 86.000 C 246.500 85.556,246.556 85.500,247.000 85.500 C 247.444 85.500,247.500 85.444,247.500 85.000 C 247.500 84.554,247.555 84.500,248.006 84.500 L 248.513 84.500 248.465 76.902 L 248.417 69.304 247.958 68.910 L 247.500 68.516 247.500 65.008 L 247.500 61.500 247.000 61.500 C 246.556 61.500,246.500 61.444,246.500 61.000 C 246.500 60.556,246.444 60.500,246.000 60.500 C 245.556 60.500,245.500 60.444,245.500 60.000 C 245.500 59.556,245.444 59.500,245.000 59.500 C 244.208 59.500,244.218 57.606,245.014 56.845 L 245.500 56.381 245.500 54.202 C 245.500 51.964,245.371 51.500,244.750 51.500 C 244.568 51.500,244.513 50.795,244.470 47.902 L 244.417 44.304 243.958 43.910 L 243.500 43.516 243.483 40.550 C 243.465 37.200,243.397 36.773,242.868 36.697 C 242.524 36.647,242.500 36.558,242.500 35.334 C 242.500 34.007,242.294 33.500,241.756 33.500 C 241.635 33.500,241.489 33.314,241.432 33.086 C 241.368 32.830,241.170 32.632,240.914 32.568 C 240.677 32.508,240.500 32.343,240.500 32.182 C 240.500 31.818,240.179 31.500,239.811 31.500 C 239.620 31.500,239.504 31.345,239.469 31.042 C 239.428 30.685,239.318 30.572,238.968 30.532 C 238.622 30.492,238.508 30.378,238.468 30.032 L 238.417 29.583 222.333 29.570 C 213.487 29.563,205.912 29.582,205.500 29.613 M181.173 30.648 C 180.556 30.820,180.535 31.058,180.517 38.042 L 180.500 44.500 179.958 44.502 C 179.087 44.506,178.702 44.672,178.597 45.088 C 178.529 45.358,178.359 45.494,178.041 45.531 C 177.682 45.572,177.572 45.682,177.531 46.042 C 177.486 46.426,177.398 46.500,176.989 46.500 C 176.557 46.500,176.500 46.558,176.500 47.000 C 176.500 47.444,176.444 47.500,176.000 47.500 C 175.657 47.500,175.500 47.582,175.500 47.762 C 175.500 48.189,175.062 48.500,174.462 48.500 C 173.838 48.500,173.500 48.746,173.500 49.200 C 173.500 49.422,173.370 49.500,173.000 49.500 L 172.500 49.500 172.480 43.708 C 172.459 37.361,172.427 36.995,171.875 36.752 C 171.518 36.595,171.499 36.493,171.483 34.585 C 171.461 31.887,171.419 31.763,170.508 31.697 C 169.902 31.654,169.720 31.714,169.424 32.059 L 169.068 32.473 163.326 32.556 C 160.167 32.602,157.208 32.644,156.750 32.648 C 156.095 32.655,155.820 32.747,155.466 33.078 C 155.066 33.452,154.872 33.500,153.757 33.500 L 152.500 33.500 152.520 37.792 C 152.542 42.591,152.589 43.012,153.125 43.248 L 153.500 43.412 153.501 51.915 C 153.503 61.416,153.533 61.942,154.105 62.559 L 154.500 62.985 154.520 69.034 C 154.541 75.647,154.571 76.004,155.125 76.248 L 155.500 76.412 155.517 81.915 C 155.535 87.851,155.570 88.222,156.129 88.303 C 156.492 88.355,156.494 88.381,156.539 92.386 L 156.583 96.417 158.583 96.465 C 160.972 96.523,161.295 96.460,161.432 95.914 L 161.536 95.500 163.818 95.500 C 166.174 95.500,166.500 95.415,166.500 94.800 C 166.500 94.523,166.727 94.499,169.458 94.483 C 172.784 94.465,173.227 94.395,173.302 93.878 C 173.341 93.611,173.489 93.506,173.885 93.468 L 174.417 93.417 174.460 86.947 C 174.508 79.848,174.448 79.006,173.873 78.752 C 173.502 78.588,173.500 78.570,173.500 74.544 L 173.500 70.500 174.300 70.500 C 175.146 70.500,175.500 70.293,175.500 69.800 C 175.500 69.578,175.630 69.500,176.000 69.500 C 176.444 69.500,176.500 69.444,176.500 69.000 C 176.500 67.884,177.474 68.316,177.533 69.458 C 177.581 70.366,177.608 70.419,178.042 70.469 C 178.498 70.522,178.500 70.529,178.500 71.811 C 178.500 73.142,178.649 73.500,179.200 73.500 C 179.453 73.500,179.500 73.646,179.500 74.440 C 179.500 75.268,179.560 75.438,180.000 75.858 C 180.446 76.285,180.502 76.449,180.517 77.376 C 180.539 78.777,180.685 79.239,181.126 79.302 C 181.463 79.351,181.491 79.459,181.536 80.886 C 181.583 82.413,181.584 82.417,182.035 82.469 C 182.484 82.521,182.488 82.532,182.535 83.969 C 182.583 85.411,182.585 85.417,183.042 85.469 C 183.486 85.521,183.500 85.553,183.502 86.553 C 183.505 87.921,183.621 88.286,184.091 88.404 C 184.438 88.491,184.489 88.613,184.533 89.459 C 184.581 90.365,184.608 90.419,185.042 90.469 C 185.498 90.522,185.500 90.529,185.500 91.811 C 185.500 93.142,185.649 93.500,186.200 93.500 C 186.422 93.500,186.500 93.630,186.500 94.000 L 186.500 94.500 187.800 94.500 C 189.142 94.500,189.500 94.353,189.500 93.800 C 189.500 93.537,189.659 93.500,190.800 93.500 C 192.142 93.500,192.500 93.353,192.500 92.800 C 192.500 92.538,192.657 92.500,193.738 92.500 C 194.997 92.500,195.500 92.285,195.500 91.746 C 195.500 91.584,195.779 91.502,196.458 91.467 C 197.366 91.419,197.419 91.392,197.469 90.958 C 197.520 90.521,197.565 90.499,198.469 90.483 C 199.785 90.460,200.240 90.308,200.303 89.868 C 200.340 89.614,200.472 89.500,200.728 89.500 C 201.452 89.500,201.500 89.277,201.500 85.901 L 201.500 82.702 201.000 82.167 C 200.577 81.714,200.500 81.498,200.500 80.766 C 200.500 79.863,200.302 79.500,199.808 79.500 C 199.570 79.500,199.507 79.324,199.467 78.542 C 199.419 77.634,199.392 77.581,198.958 77.531 C 198.502 77.478,198.500 77.471,198.500 76.189 C 198.500 74.858,198.351 74.500,197.800 74.500 C 197.538 74.500,197.500 74.343,197.500 73.262 C 197.500 71.997,197.285 71.500,196.738 71.500 C 196.552 71.500,196.500 71.216,196.500 70.200 C 196.500 68.863,196.352 68.500,195.808 68.500 C 195.570 68.500,195.507 68.324,195.467 67.542 C 195.419 66.634,195.392 66.581,194.958 66.531 C 194.502 66.478,194.500 66.471,194.500 65.189 C 194.500 63.864,194.351 63.500,193.808 63.500 C 193.570 63.500,193.507 63.324,193.467 62.542 C 193.419 61.634,193.392 61.581,192.958 61.531 C 192.505 61.478,192.500 61.466,192.500 60.251 C 192.500 58.997,192.284 58.500,191.738 58.500 C 191.241 58.500,191.449 57.528,191.958 57.469 C 192.318 57.428,192.428 57.318,192.469 56.958 C 192.514 56.574,192.602 56.500,193.011 56.500 C 193.443 56.500,193.500 56.442,193.500 56.000 C 193.500 55.520,193.529 55.500,194.238 55.500 C 194.986 55.500,195.500 55.194,195.500 54.749 C 195.500 54.624,195.706 54.498,195.958 54.469 C 196.315 54.428,196.428 54.318,196.468 53.968 C 196.508 53.622,196.622 53.508,196.968 53.468 L 197.417 53.417 197.460 44.381 L 197.503 35.346 197.902 34.947 C 198.714 34.134,198.658 30.879,197.827 30.648 C 197.291 30.498,181.709 30.498,181.173 30.648 M351.500 32.500 L 351.500 34.500 348.000 34.500 L 344.500 34.500 344.500 32.500 L 344.500 30.500 348.000 30.500 L 351.500 30.500 351.500 32.500 M135.762 34.762 C 135.618 34.906,135.500 35.131,135.500 35.262 C 135.500 35.460,134.949 35.500,132.200 35.500 C 128.785 35.500,128.500 35.554,128.500 36.200 C 128.500 36.479,128.269 36.500,125.262 36.500 C 121.889 36.500,121.500 36.579,121.500 37.262 C 121.500 37.460,120.957 37.500,118.262 37.500 C 114.894 37.500,114.500 37.579,114.500 38.257 C 114.500 38.445,114.017 38.500,112.042 38.537 L 109.583 38.583 109.532 39.032 C 109.492 39.378,109.378 39.492,109.032 39.532 C 108.682 39.572,108.572 39.685,108.531 40.042 C 108.502 40.294,108.376 40.500,108.251 40.500 C 107.811 40.500,107.500 41.014,107.500 41.743 C 107.500 42.701,106.557 43.022,106.467 42.095 C 106.426 41.676,106.334 41.574,105.958 41.531 C 105.574 41.486,105.500 41.398,105.500 40.989 C 105.500 40.559,105.441 40.500,105.011 40.500 C 104.602 40.500,104.514 40.426,104.469 40.042 C 104.420 39.612,104.360 39.580,103.500 39.528 C 102.090 39.442,98.316 39.702,98.917 39.843 C 99.305 39.934,99.334 39.965,99.047 39.980 C 98.800 39.993,98.707 40.079,98.768 40.236 C 98.837 40.417,98.631 40.498,97.888 40.580 C 96.372 40.747,95.288 40.991,94.881 41.258 C 94.675 41.393,94.074 41.540,93.545 41.584 C 93.016 41.629,91.996 41.714,91.279 41.774 C 89.876 41.892,89.500 42.100,89.500 42.762 C 89.500 42.985,89.423 43.167,89.328 43.167 C 89.233 43.167,89.082 43.335,88.991 43.542 C 88.839 43.888,88.831 43.881,88.892 43.446 C 88.935 43.146,88.901 43.033,88.799 43.134 C 88.631 43.303,88.559 44.792,88.474 49.853 C 88.420 53.119,88.493 53.500,89.176 53.500 C 89.381 53.500,89.495 53.646,89.531 53.958 C 89.574 54.337,89.675 54.426,90.108 54.468 C 90.461 54.502,90.660 54.625,90.717 54.842 C 90.764 55.020,90.978 55.236,91.193 55.322 C 91.561 55.470,91.553 55.479,91.053 55.489 C 90.311 55.504,89.667 55.778,89.667 56.078 C 89.667 56.217,89.442 56.531,89.167 56.776 C 88.329 57.522,88.535 59.611,89.413 59.275 C 89.550 59.222,89.655 59.232,89.645 59.298 C 89.596 59.629,89.691 59.723,89.852 59.500 C 89.995 59.300,90.006 59.317,89.906 59.583 C 89.319 61.147,89.451 63.283,90.130 63.210 C 90.353 63.186,90.500 63.262,90.500 63.401 C 90.500 63.660,90.050 63.884,89.818 63.741 C 89.735 63.689,89.667 63.953,89.667 64.327 C 89.667 64.961,89.693 65.000,90.067 64.906 C 90.633 64.764,90.864 67.393,90.623 71.208 C 90.557 72.248,89.871 71.751,89.644 70.500 C 89.573 70.108,89.557 70.217,89.594 70.833 C 89.639 71.571,89.733 71.822,90.079 72.120 L 90.508 72.491 90.524 76.454 C 90.533 78.633,90.524 81.211,90.505 82.182 C 90.470 84.005,90.630 84.500,91.256 84.500 C 91.450 84.500,91.496 85.551,91.536 90.834 L 91.583 97.168 92.042 97.562 C 92.467 97.927,92.500 98.046,92.500 99.228 L 92.500 100.500 95.958 100.483 C 99.810 100.465,100.225 100.406,100.303 99.868 C 100.356 99.502,100.377 99.500,103.728 99.500 C 107.207 99.500,107.500 99.446,107.500 98.811 C 107.500 98.620,107.655 98.504,107.958 98.469 L 108.417 98.417 108.415 91.917 C 108.412 85.223,108.308 84.167,107.648 84.167 C 107.563 84.167,107.508 79.234,107.520 72.625 C 107.531 66.277,107.587 61.308,107.645 61.583 C 107.707 61.874,107.906 62.152,108.123 62.247 C 108.490 62.408,108.495 62.452,108.539 66.413 L 108.583 70.417 109.032 70.468 C 109.378 70.508,109.492 70.622,109.532 70.968 C 109.572 71.315,109.685 71.428,110.032 71.468 C 110.378 71.508,110.492 71.622,110.532 71.968 C 110.572 72.315,110.685 72.428,111.032 72.468 C 111.378 72.508,111.492 72.622,111.532 72.968 L 111.583 73.417 116.816 73.461 L 122.049 73.505 122.440 73.961 L 122.832 74.417 129.666 74.469 L 136.500 74.520 136.500 78.510 L 136.500 82.500 133.708 82.520 C 130.451 82.543,129.976 82.615,129.752 83.125 C 129.599 83.475,129.484 83.500,128.057 83.500 L 126.527 83.500 126.418 82.375 C 126.281 80.949,126.236 80.820,125.839 80.716 C 125.549 80.641,125.507 80.458,125.464 79.107 L 125.417 77.583 124.950 77.530 C 124.645 77.495,124.432 77.343,124.337 77.093 C 124.065 76.379,122.069 76.404,121.752 77.125 L 121.588 77.500 116.244 77.500 C 110.692 77.500,110.500 77.523,110.500 78.200 C 110.500 78.378,110.378 78.500,110.200 78.500 C 109.506 78.500,109.500 78.573,109.502 86.742 C 109.505 95.232,109.506 95.257,110.099 95.406 C 110.382 95.477,110.500 95.623,110.500 95.902 C 110.500 96.120,110.720 96.534,110.990 96.823 C 111.272 97.125,111.502 97.574,111.532 97.882 C 111.575 98.326,111.661 98.426,112.042 98.469 C 112.426 98.514,112.500 98.602,112.500 99.011 C 112.500 99.441,112.559 99.500,112.989 99.500 C 113.398 99.500,113.486 99.574,113.531 99.958 L 113.583 100.417 115.333 100.468 C 117.604 100.534,118.444 100.405,118.935 99.913 L 119.328 99.520 126.248 99.468 L 133.168 99.417 133.562 98.958 L 133.955 98.500 138.900 98.500 C 144.033 98.500,144.751 98.416,145.112 97.770 C 145.233 97.554,145.702 97.501,147.837 97.463 L 150.417 97.417 150.468 96.968 C 150.508 96.622,150.622 96.508,150.968 96.468 C 151.318 96.428,151.428 96.315,151.469 95.958 C 151.504 95.655,151.620 95.500,151.811 95.500 C 152.179 95.500,152.500 95.182,152.500 94.818 C 152.500 94.657,152.677 94.492,152.914 94.432 C 153.170 94.368,153.368 94.170,153.432 93.914 C 153.489 93.686,153.635 93.500,153.756 93.500 C 154.455 93.500,154.500 93.185,154.493 88.363 C 154.485 83.376,154.388 82.416,153.849 81.979 C 153.505 81.701,153.500 81.600,153.500 74.798 C 153.500 67.619,153.489 67.500,152.800 67.500 C 152.553 67.500,152.500 67.359,152.500 66.700 C 152.500 65.854,152.293 65.500,151.800 65.500 C 151.573 65.500,151.499 65.368,151.498 64.958 C 151.494 64.087,151.328 63.702,150.912 63.597 C 150.642 63.529,150.506 63.359,150.469 63.041 C 150.428 62.682,150.318 62.572,149.958 62.531 C 149.530 62.481,149.500 62.426,149.500 61.689 C 149.500 60.414,150.378 60.500,137.300 60.500 L 125.500 60.500 125.500 56.500 L 125.500 52.500 127.542 52.498 C 129.960 52.495,130.273 52.430,130.406 51.901 C 130.505 51.505,130.534 51.500,132.495 51.500 L 134.483 51.500 134.533 52.458 C 134.581 53.366,134.608 53.419,135.042 53.469 C 135.479 53.520,135.501 53.565,135.517 54.469 C 135.540 55.775,135.693 56.240,136.122 56.302 C 136.389 56.341,136.494 56.489,136.532 56.885 C 136.616 57.759,139.214 57.785,139.432 56.914 L 139.536 56.500 142.810 56.499 C 146.151 56.499,147.167 56.305,147.167 55.669 C 147.167 55.574,147.591 55.500,148.133 55.500 C 149.129 55.500,149.500 55.313,149.500 54.811 C 149.500 54.620,149.655 54.504,149.958 54.469 C 150.315 54.428,150.428 54.318,150.468 53.968 C 150.508 53.622,150.622 53.508,150.968 53.468 L 151.417 53.417 151.464 50.917 C 151.520 47.999,151.472 47.708,150.914 47.568 L 150.500 47.464 150.500 44.244 C 150.500 40.890,150.421 40.500,149.738 40.500 C 149.546 40.500,149.500 40.149,149.500 38.700 C 149.500 36.441,149.559 36.500,147.303 36.500 C 145.544 36.500,145.504 36.492,145.406 36.099 C 145.273 35.570,144.960 35.505,142.542 35.502 C 140.688 35.500,140.500 35.472,140.500 35.200 C 140.500 34.596,140.165 34.500,138.062 34.500 C 136.431 34.500,135.971 34.552,135.762 34.762 M310.502 40.542 C 310.505 45.047,310.531 45.263,311.099 45.406 L 311.500 45.506 311.500 49.003 L 311.500 52.500 309.042 52.502 C 306.212 52.505,305.863 52.567,305.658 53.106 C 305.516 53.479,305.430 53.500,304.035 53.500 L 302.561 53.500 302.405 52.625 C 302.277 51.902,302.185 51.741,301.875 51.697 L 301.500 51.643 301.500 45.612 C 301.500 42.295,301.429 39.334,301.343 39.033 C 301.201 38.538,301.224 38.470,301.588 38.332 C 301.809 38.248,302.085 38.026,302.202 37.839 C 302.401 37.520,302.577 37.500,305.195 37.500 C 308.082 37.500,308.500 37.404,308.500 36.738 C 308.500 36.558,308.744 36.500,309.500 36.500 L 310.500 36.500 310.502 40.542 M267.501 39.792 C 267.501 41.078,267.882 42.167,268.331 42.167 C 268.437 42.167,268.500 43.006,268.500 44.417 L 268.500 46.667 267.707 46.667 C 267.091 46.667,266.812 46.760,266.464 47.083 C 266.044 47.473,265.901 47.500,264.257 47.500 L 262.500 47.500 262.500 43.000 L 262.500 38.500 265.000 38.500 L 267.500 38.500 267.501 39.792 M220.956 42.824 C 221.276 43.337,222.229 43.498,224.958 43.499 L 227.500 43.500 227.500 45.800 C 227.500 48.175,227.584 48.500,228.200 48.500 C 228.472 48.500,228.500 48.685,228.500 50.500 L 228.500 52.500 224.706 52.500 L 220.912 52.500 220.611 52.098 C 220.445 51.877,220.127 51.651,219.905 51.595 L 219.500 51.494 219.498 47.455 C 219.495 43.150,219.454 42.726,219.025 42.612 C 218.874 42.571,219.201 42.530,219.752 42.519 C 220.576 42.503,220.789 42.557,220.956 42.824 M68.250 43.531 C 66.600 43.595,59.736 43.748,52.996 43.873 C 46.257 43.998,40.651 44.157,40.538 44.227 C 40.207 44.431,40.258 50.485,40.601 51.757 C 40.749 52.303,40.937 53.035,41.021 53.383 C 41.104 53.731,41.233 56.094,41.308 58.633 C 41.421 62.477,41.492 63.341,41.728 63.796 C 41.958 64.237,42.045 65.143,42.182 68.546 C 42.275 70.858,42.495 73.762,42.672 75.000 C 43.012 77.381,43.065 78.117,43.343 84.333 C 43.440 86.487,43.625 89.112,43.755 90.167 C 44.397 95.359,44.392 99.147,43.742 99.397 C 43.609 99.448,43.500 99.685,43.500 99.924 C 43.500 100.482,43.015 100.425,42.715 99.832 C 42.571 99.547,42.504 99.504,42.502 99.696 C 42.499 100.038,42.937 100.500,43.262 100.500 C 43.456 100.500,43.500 100.911,43.500 102.750 L 43.500 105.000 46.833 105.000 C 49.685 105.000,50.167 104.964,50.167 104.750 C 50.167 104.537,50.601 104.500,53.071 104.500 C 56.084 104.500,56.500 104.408,56.500 103.743 C 56.500 103.560,56.915 103.501,58.458 103.464 L 60.417 103.417 60.453 102.583 C 60.508 101.310,60.395 100.955,60.003 101.165 C 59.589 101.387,59.333 100.958,59.333 100.041 C 59.333 99.685,59.223 99.022,59.088 98.567 C 58.623 97.001,58.652 88.610,59.124 88.137 C 59.974 87.284,63.847 87.500,64.288 88.426 C 64.438 88.741,64.621 89.000,64.693 89.000 C 64.869 89.000,65.333 89.913,65.333 90.258 C 65.333 90.409,65.558 90.743,65.833 91.000 C 66.182 91.326,66.333 91.624,66.333 91.988 C 66.333 92.385,66.429 92.545,66.736 92.661 C 66.957 92.745,67.192 92.987,67.259 93.199 C 67.325 93.410,67.552 93.744,67.762 93.940 C 68.296 94.438,68.566 95.516,68.562 97.126 C 68.559 98.011,68.622 98.494,68.737 98.481 C 69.413 98.404,69.500 98.498,69.500 99.300 C 69.500 100.146,69.707 100.500,70.200 100.500 C 70.422 100.500,70.500 100.630,70.500 101.000 C 70.500 101.444,70.556 101.500,71.000 101.500 C 71.486 101.500,71.500 101.522,71.500 102.300 C 71.500 103.430,71.625 103.500,73.640 103.500 C 75.350 103.500,75.389 103.491,75.851 103.008 C 76.259 102.581,76.459 102.510,77.369 102.466 C 78.374 102.419,78.419 102.398,78.469 101.958 C 78.521 101.514,78.553 101.500,79.553 101.498 C 80.921 101.495,81.286 101.379,81.404 100.909 C 81.491 100.562,81.613 100.511,82.459 100.467 C 83.365 100.419,83.419 100.392,83.469 99.958 C 83.520 99.516,83.556 99.500,84.511 99.500 C 85.491 99.500,85.500 99.495,85.500 99.018 C 85.500 98.644,85.593 98.513,85.914 98.432 C 86.737 98.226,86.778 94.625,85.958 94.531 C 85.586 94.488,85.500 94.394,85.498 94.031 C 85.494 93.253,85.300 92.812,84.894 92.658 C 84.600 92.546,84.500 92.381,84.500 92.004 C 84.500 91.555,84.445 91.500,84.000 91.500 C 83.514 91.500,83.500 91.478,83.500 90.700 C 83.500 89.864,83.293 89.500,82.819 89.500 C 82.665 89.500,82.497 89.340,82.446 89.145 C 82.374 88.871,82.258 88.809,81.935 88.871 C 81.691 88.917,81.484 88.865,81.438 88.745 C 81.394 88.632,81.072 88.472,80.721 88.389 C 80.223 88.271,80.023 88.110,79.805 87.651 C 79.652 87.328,79.409 86.965,79.264 86.845 C 78.507 86.216,79.091 84.953,80.237 84.740 C 81.931 84.426,83.402 83.304,83.767 82.049 C 83.910 81.558,84.161 81.092,84.333 81.000 C 84.891 80.701,85.048 79.292,84.847 76.383 C 84.748 74.952,84.667 73.035,84.667 72.122 C 84.667 71.027,84.552 69.988,84.330 69.068 C 83.966 67.563,83.676 63.927,83.670 60.804 C 83.668 59.533,83.549 58.261,83.327 57.137 C 83.053 55.748,82.521 48.332,82.502 45.625 C 82.501 45.465,82.389 45.333,82.254 45.333 C 82.119 45.333,81.892 45.108,81.750 44.833 C 81.608 44.558,81.391 44.333,81.269 44.333 C 81.146 44.333,80.755 44.102,80.399 43.820 L 79.753 43.306 75.501 43.361 C 73.163 43.392,69.900 43.468,68.250 43.531 M351.997 43.871 C 352.247 44.180,352.514 44.256,353.607 44.327 L 354.917 44.413 353.750 44.498 L 352.583 44.583 352.532 45.115 C 352.493 45.515,352.390 45.659,352.115 45.698 C 351.884 45.731,351.730 45.888,351.697 46.125 C 351.609 46.744,346.627 46.707,346.137 46.083 C 345.887 45.765,345.654 45.667,345.155 45.667 L 344.500 45.667 344.500 44.583 L 344.500 43.500 348.098 43.500 C 351.617 43.500,351.703 43.508,351.997 43.871 M107.053 47.571 L 107.500 47.955 107.480 52.436 C 107.469 54.900,107.413 56.692,107.354 56.418 C 107.286 56.100,107.081 55.840,106.787 55.699 C 106.534 55.578,106.141 55.292,105.913 55.064 C 105.335 54.486,103.781 54.529,103.697 55.125 C 103.662 55.371,103.529 55.500,103.310 55.500 C 103.007 55.500,103.000 55.476,103.238 55.238 C 103.382 55.094,103.500 54.874,103.500 54.749 C 103.500 54.624,103.706 54.498,103.958 54.469 C 104.318 54.428,104.428 54.318,104.469 53.958 C 104.504 53.655,104.620 53.500,104.811 53.500 C 105.455 53.500,105.500 53.225,105.500 49.303 L 105.500 45.506 105.917 45.402 C 106.146 45.344,106.344 45.174,106.358 45.024 C 106.371 44.873,106.433 45.298,106.494 45.969 C 106.590 47.010,106.671 47.243,107.053 47.571 M87.500 46.917 C 87.500 47.054,87.567 47.167,87.649 47.167 C 87.945 47.167,88.074 47.784,88.171 49.667 L 88.271 51.583 88.302 49.401 C 88.330 47.474,88.298 47.186,88.029 46.942 C 87.651 46.601,87.500 46.593,87.500 46.917 M89.463 52.500 C 89.449 52.997,89.278 53.149,89.085 52.837 C 88.992 52.686,89.260 52.000,89.411 52.000 C 89.448 52.000,89.471 52.225,89.463 52.500 M88.902 52.582 C 88.819 52.915,88.876 53.029,89.191 53.155 C 89.445 53.257,89.487 53.316,89.312 53.323 C 88.921 53.338,88.621 52.905,88.747 52.508 C 88.901 52.023,89.027 52.084,88.902 52.582 M67.509 55.005 C 68.011 55.273,68.278 55.977,68.393 57.333 C 68.451 58.021,68.605 58.884,68.735 59.252 C 69.000 60.002,69.330 64.417,69.339 67.333 C 69.342 68.387,69.452 69.737,69.583 70.333 C 70.083 72.606,69.878 73.068,68.250 73.333 C 67.721 73.420,67.166 73.593,67.019 73.720 C 66.547 74.123,66.131 74.201,63.833 74.321 C 62.031 74.415,61.486 74.502,61.095 74.758 C 60.755 74.981,60.312 75.078,59.638 75.078 C 57.827 75.078,57.698 74.640,57.673 68.417 C 57.665 66.492,57.580 64.617,57.483 64.250 C 56.674 61.185,56.582 55.741,57.329 55.136 C 57.766 54.783,66.874 54.665,67.509 55.005 M90.516 56.231 C 90.369 56.408,90.383 56.483,90.579 56.559 C 91.034 56.733,90.689 58.212,90.180 58.271 C 90.081 58.282,89.917 58.301,89.816 58.313 C 89.714 58.324,89.674 58.446,89.727 58.583 C 89.791 58.750,89.720 58.833,89.513 58.833 C 89.000 58.833,88.789 57.737,89.218 57.304 C 89.337 57.182,89.487 56.947,89.550 56.781 C 89.613 56.615,89.726 56.517,89.802 56.564 C 89.878 56.611,90.066 56.503,90.219 56.325 C 90.372 56.146,90.544 56.000,90.602 56.000 C 90.660 56.000,90.621 56.104,90.516 56.231 M220.896 64.758 C 221.136 65.383,221.994 65.500,226.320 65.500 L 230.485 65.500 230.584 66.125 C 230.638 66.469,230.720 66.995,230.766 67.295 C 230.812 67.595,230.996 67.932,231.175 68.044 C 231.478 68.233,231.500 68.454,231.500 71.373 L 231.500 74.500 230.700 74.500 C 229.854 74.500,229.500 74.707,229.500 75.200 C 229.500 75.467,229.331 75.500,227.958 75.502 C 226.059 75.505,225.722 75.590,225.594 76.099 C 225.499 76.477,225.423 76.500,224.270 76.500 C 223.597 76.500,222.699 76.548,222.273 76.606 L 221.500 76.712 221.500 71.368 C 221.500 65.742,221.469 65.500,220.738 65.500 C 220.585 65.500,220.500 65.322,220.500 65.000 C 220.500 64.469,220.731 64.327,220.896 64.758 M89.367 66.167 C 89.367 66.396,89.427 66.771,89.500 67.000 L 89.633 67.417 89.633 67.000 C 89.633 66.771,89.573 66.396,89.500 66.167 L 89.367 65.750 89.367 66.167 M312.549 69.625 C 312.644 71.637,312.672 71.770,313.075 72.117 C 313.357 72.361,313.500 72.654,313.500 72.992 L 313.500 73.500 311.762 73.500 C 309.976 73.500,309.500 73.660,309.500 74.262 C 309.500 74.458,309.057 74.500,307.011 74.500 L 304.522 74.500 304.469 74.042 C 304.429 73.688,304.317 73.572,303.980 73.533 C 303.560 73.484,303.540 73.433,303.462 72.232 C 303.352 70.505,303.572 70.593,299.200 70.519 C 297.119 70.484,295.604 70.405,295.833 70.345 C 296.092 70.278,296.270 70.097,296.303 69.868 C 296.356 69.504,296.390 69.500,299.334 69.500 C 302.445 69.500,303.142 69.382,303.286 68.831 C 303.368 68.517,303.526 68.499,306.394 68.483 C 309.801 68.465,310.227 68.398,310.303 67.868 C 310.352 67.533,310.451 67.500,311.403 67.500 L 312.449 67.500 312.549 69.625 M278.539 71.747 C 278.240 71.879,277.951 72.102,277.896 72.243 C 277.814 72.456,277.426 72.500,275.607 72.502 C 273.034 72.505,272.728 72.566,272.594 73.099 C 272.495 73.493,272.462 73.500,270.591 73.500 C 268.523 73.500,267.848 73.657,267.714 74.169 C 267.634 74.474,267.484 74.500,265.764 74.500 C 263.841 74.500,263.500 74.605,263.500 75.200 C 263.500 75.474,263.306 75.500,261.262 75.500 C 258.950 75.500,258.500 75.624,258.500 76.262 C 258.500 76.454,258.120 76.503,256.542 76.517 C 254.215 76.536,253.769 76.633,253.697 77.132 C 253.648 77.468,253.550 77.500,252.572 77.500 L 251.500 77.500 251.502 79.542 C 251.505 81.947,251.571 82.273,252.084 82.402 C 252.451 82.494,252.472 82.581,252.526 84.241 C 252.601 86.524,252.427 86.405,255.784 86.470 C 258.975 86.531,259.289 86.483,259.432 85.914 L 259.536 85.500 261.917 85.500 L 264.298 85.500 264.833 85.000 L 265.369 84.500 267.672 84.500 C 270.053 84.500,270.500 84.380,270.500 83.738 C 270.500 83.543,270.956 83.498,273.042 83.488 C 276.283 83.472,277.033 83.364,277.244 82.885 C 277.399 82.530,277.496 82.518,280.550 82.468 L 283.696 82.417 284.079 81.971 C 284.290 81.726,284.677 81.501,284.939 81.471 L 285.417 81.417 285.409 79.618 C 285.401 77.874,285.387 77.807,284.951 77.432 C 284.506 77.050,284.500 77.018,284.500 74.972 C 284.500 72.843,284.405 72.500,283.811 72.500 C 283.620 72.500,283.504 72.345,283.469 72.042 L 283.417 71.583 281.250 71.546 C 279.664 71.518,278.938 71.572,278.539 71.747 M90.186 79.532 C 90.175 79.687,90.000 79.931,89.796 80.074 C 89.518 80.268,89.492 80.333,89.693 80.333 C 90.059 80.333,90.377 79.912,90.283 79.550 C 90.215 79.288,90.203 79.285,90.186 79.532 " stroke="none" fill="#040404" fill-rule="evenodd"></path></g></svg>