<svg id="svg" version="1.1" xmlns="http://www.w3.org/2000/svg" xmlns:xlink="http://www.w3.org/1999/xlink" width="400" height="400" viewBox="0, 0, 400,400"><g id="svgg"><path id="path0" d="M50.000 158.380 C 49.670 158.604,48.376 158.791,47.124 158.794 C 45.872 158.797,44.736 158.980,44.600 159.200 C 44.464 159.420,43.643 159.600,42.776 159.600 C 41.909 159.600,41.200 159.780,41.200 160.000 C 41.200 160.220,40.737 160.400,40.171 160.400 C 38.404 160.400,37.028 163.352,38.400 164.200 C 38.620 164.336,38.800 164.977,38.800 165.624 C 38.800 166.271,38.620 166.800,38.400 166.800 C 38.180 166.800,38.000 167.274,38.000 167.853 C 38.000 168.432,37.685 169.200,37.300 169.559 C 36.915 169.918,36.408 170.557,36.173 170.979 C 35.939 171.401,35.399 171.939,34.973 172.173 C 34.548 172.408,34.110 172.703,34.000 172.829 C 33.890 172.955,33.485 173.175,33.100 173.317 C 32.164 173.662,32.213 175.033,33.200 176.092 C 33.640 176.564,34.000 177.367,34.000 177.875 C 34.000 178.384,34.180 178.800,34.400 178.800 C 34.620 178.800,34.800 179.520,34.800 180.400 C 34.800 181.280,34.620 182.000,34.400 182.000 C 34.180 182.000,34.000 182.500,34.000 183.112 C 34.000 183.765,33.670 184.461,33.200 184.800 C 32.760 185.117,32.400 185.682,32.400 186.055 C 32.400 186.428,31.860 186.972,31.200 187.264 C 30.540 187.556,30.000 187.931,30.000 188.098 C 30.000 188.264,29.640 188.400,29.200 188.400 C 28.760 188.400,28.400 188.580,28.400 188.800 C 28.400 189.033,27.067 189.200,25.200 189.200 L 22.000 189.200 22.000 191.720 C 22.000 194.099,21.363 196.390,20.700 196.397 C 20.535 196.399,20.400 196.636,20.400 196.925 C 20.400 197.571,18.335 199.600,17.678 199.600 C 17.415 199.600,17.200 199.780,17.200 200.000 C 17.200 200.220,16.660 200.400,16.000 200.400 C 15.340 200.400,14.800 200.580,14.800 200.800 C 14.800 201.020,13.900 201.200,12.800 201.200 C 11.700 201.200,10.800 201.020,10.800 200.800 C 10.800 200.580,10.080 200.400,9.200 200.400 L 7.600 200.400 7.600 205.976 C 7.600 209.263,7.764 211.654,8.000 211.800 C 8.220 211.936,8.400 213.027,8.400 214.224 C 8.400 215.421,8.580 216.400,8.800 216.400 C 9.020 216.400,9.200 217.120,9.200 218.000 C 9.200 218.880,9.380 219.600,9.600 219.600 C 9.820 219.600,10.000 220.140,10.000 220.800 C 10.000 221.460,10.180 222.000,10.400 222.000 C 10.620 222.000,10.800 222.439,10.800 222.976 C 10.800 223.513,10.980 224.064,11.200 224.200 C 11.420 224.336,11.600 224.797,11.600 225.224 C 11.600 225.651,11.780 226.000,12.000 226.000 C 12.220 226.000,12.400 226.360,12.400 226.800 C 12.400 227.240,12.580 227.600,12.800 227.600 C 13.020 227.600,13.200 227.960,13.200 228.400 C 13.200 228.840,13.380 229.200,13.600 229.200 C 13.820 229.200,14.000 229.560,14.000 230.000 C 14.000 230.440,14.180 230.800,14.400 230.800 C 14.620 230.800,14.800 231.043,14.800 231.341 C 14.800 231.638,15.340 232.446,16.000 233.137 C 16.660 233.828,17.200 234.577,17.200 234.801 C 17.200 235.357,24.676 242.800,25.234 242.800 C 25.479 242.800,26.183 243.340,26.800 244.000 C 27.417 244.660,28.169 245.200,28.472 245.200 C 28.775 245.200,29.283 245.560,29.600 246.000 C 29.917 246.440,30.497 246.800,30.888 246.800 C 31.280 246.800,31.600 246.980,31.600 247.200 C 31.600 247.420,31.960 247.600,32.400 247.600 C 32.840 247.600,33.200 247.780,33.200 248.000 C 33.200 248.220,33.560 248.400,34.000 248.400 C 34.440 248.400,34.800 248.580,34.800 248.800 C 34.800 249.020,35.160 249.200,35.600 249.200 C 36.040 249.200,36.400 249.380,36.400 249.600 C 36.400 249.820,36.940 250.000,37.600 250.000 C 38.260 250.000,38.800 250.180,38.800 250.400 C 38.800 250.620,39.340 250.800,40.000 250.800 C 40.660 250.800,41.200 250.980,41.200 251.200 C 41.200 251.420,41.884 251.600,42.720 251.600 C 43.556 251.600,44.431 251.791,44.664 252.024 C 44.898 252.258,45.969 252.393,47.044 252.324 L 49.000 252.200 48.886 248.800 C 48.824 246.930,48.605 243.510,48.401 241.200 C 48.196 238.890,47.837 234.480,47.603 231.400 C 47.369 228.320,47.007 223.730,46.799 221.200 C 46.000 211.485,45.594 205.682,45.499 202.600 L 45.400 199.400 51.800 199.151 C 55.320 199.015,63.919 198.770,70.908 198.607 L 83.616 198.311 85.408 200.103 C 87.154 201.848,87.200 201.960,87.200 204.429 C 87.200 205.823,87.379 208.861,87.597 211.182 C 87.815 213.502,88.183 217.830,88.416 220.800 C 88.648 223.770,88.988 227.730,89.172 229.600 C 89.643 234.388,88.083 238.167,85.332 238.903 C 83.309 239.444,83.263 239.587,84.627 241.078 C 85.314 241.829,85.723 242.035,85.861 241.700 C 85.974 241.425,86.326 241.200,86.644 241.200 C 87.237 241.200,90.799 237.867,90.801 237.311 C 90.801 237.140,91.341 236.370,92.000 235.600 C 93.251 234.138,93.835 228.440,92.800 227.800 C 92.580 227.664,92.400 226.134,92.400 224.400 C 92.400 222.666,92.220 221.136,92.000 221.000 C 91.380 220.617,91.479 216.684,92.100 217.035 C 92.500 217.261,92.500 217.210,92.100 216.779 C 91.761 216.414,91.600 214.782,91.600 211.720 C 91.600 208.973,91.443 207.200,91.200 207.200 C 90.980 207.200,90.800 207.009,90.800 206.776 C 90.800 206.543,91.025 206.488,91.300 206.653 C 91.640 206.857,91.624 206.737,91.251 206.277 C 90.804 205.726,90.800 205.600,91.231 205.600 C 91.642 205.600,91.653 205.493,91.280 205.120 C 90.378 204.218,90.640 197.200,91.576 197.200 C 92.003 197.200,92.464 197.020,92.600 196.800 C 92.736 196.580,94.412 196.394,96.324 196.387 C 100.423 196.372,101.200 195.969,101.200 193.856 C 101.200 193.055,101.020 192.400,100.800 192.400 C 100.580 192.400,100.400 191.860,100.400 191.200 C 100.400 190.540,100.220 190.000,100.000 190.000 C 99.780 190.000,99.600 189.460,99.600 188.800 C 99.600 188.140,99.420 187.600,99.200 187.600 C 98.980 187.600,98.800 187.240,98.800 186.800 C 98.800 186.360,98.620 186.000,98.400 186.000 C 98.180 186.000,98.000 185.640,98.000 185.200 C 98.000 184.760,97.820 184.400,97.600 184.400 C 97.380 184.400,97.200 184.040,97.200 183.600 C 97.200 183.160,97.020 182.800,96.800 182.800 C 96.580 182.800,96.400 182.522,96.400 182.182 C 96.400 180.866,94.363 179.356,93.765 180.229 C 92.472 182.116,92.055 182.282,87.889 182.567 C 83.815 182.846,82.868 183.139,83.378 183.965 C 83.805 184.655,87.581 184.516,87.855 183.800 C 88.029 183.348,88.756 183.200,90.794 183.200 C 94.256 183.200,95.125 184.402,93.611 187.094 L 92.745 188.635 88.073 189.122 C 78.638 190.105,76.800 189.748,76.800 186.929 C 76.800 186.059,76.635 184.369,76.433 183.173 C 74.748 173.192,75.490 171.502,81.691 171.200 C 85.152 171.031,85.812 170.893,85.923 170.313 C 86.067 169.557,83.539 166.800,82.702 166.800 C 82.413 166.800,81.917 166.440,81.600 166.000 C 81.283 165.560,80.703 165.200,80.312 165.200 C 79.920 165.200,79.600 165.020,79.600 164.800 C 79.600 164.580,79.280 164.400,78.888 164.400 C 78.497 164.400,77.917 164.040,77.600 163.600 C 77.283 163.160,76.703 162.800,76.312 162.800 C 75.920 162.800,75.600 162.620,75.600 162.400 C 75.600 162.180,75.060 162.000,74.400 162.000 C 73.740 162.000,73.200 161.820,73.200 161.600 C 73.200 161.380,72.660 161.200,72.000 161.200 C 71.340 161.200,70.800 161.020,70.800 160.800 C 70.800 160.580,70.260 160.400,69.600 160.400 C 68.940 160.400,68.400 160.220,68.400 160.000 C 68.400 159.780,67.500 159.600,66.400 159.600 C 65.300 159.600,64.400 159.434,64.400 159.230 C 64.400 158.598,50.856 157.797,50.000 158.380 M62.626 167.242 C 62.776 167.485,62.992 168.840,63.105 170.253 C 63.218 171.665,63.441 172.902,63.599 173.000 C 63.918 173.196,69.679 172.596,71.245 172.203 C 74.160 171.472,75.102 174.178,75.281 183.800 L 75.400 190.200 72.200 190.200 L 69.000 190.200 68.385 184.600 L 67.770 179.000 66.185 179.126 C 63.949 179.305,63.835 179.545,64.347 182.989 C 65.118 188.170,64.973 190.749,63.900 190.971 C 58.109 192.172,57.792 191.947,57.448 186.400 C 57.304 184.090,57.025 180.310,56.826 178.000 C 56.628 175.690,56.334 172.225,56.174 170.300 L 55.882 166.800 59.117 166.800 C 61.047 166.800,62.463 166.978,62.626 167.242 M45.876 170.100 C 46.054 170.375,46.380 171.320,46.601 172.200 L 47.002 173.800 50.032 173.692 C 53.824 173.557,54.512 174.097,54.324 177.058 L 54.200 179.000 51.200 179.297 C 46.872 179.727,47.101 179.484,47.428 183.298 C 47.584 185.114,47.895 186.718,48.120 186.863 C 48.905 187.369,50.171 186.516,50.496 185.260 C 51.005 183.297,55.677 183.297,56.361 185.260 C 58.280 190.766,55.984 192.121,44.000 192.550 C 41.926 192.624,41.303 191.061,40.956 184.908 C 40.730 180.882,40.550 179.898,39.940 179.346 C 38.907 178.411,38.931 175.568,39.980 174.618 C 40.491 174.155,40.801 173.274,40.880 172.056 C 40.995 170.279,41.060 170.189,42.400 169.953 C 44.727 169.541,45.537 169.576,45.876 170.100 M82.800 177.535 C 82.800 178.855,83.351 179.200,85.458 179.200 C 86.788 179.200,86.845 179.142,86.725 177.900 C 86.538 175.953,82.800 175.606,82.800 177.535 M14.800 180.400 C 14.800 180.840,14.620 181.200,14.400 181.200 C 13.806 181.200,13.916 182.373,14.571 183.029 C 15.766 184.223,16.400 183.728,16.400 181.600 C 16.400 179.867,16.293 179.600,15.600 179.600 C 15.067 179.600,14.800 179.867,14.800 180.400 M63.037 217.687 C 63.192 221.269,63.430 225.100,63.566 226.200 L 63.813 228.200 65.939 228.068 C 67.108 227.996,69.157 227.714,70.491 227.442 L 72.918 226.947 72.825 223.573 C 72.774 221.718,72.522 218.220,72.266 215.800 L 71.800 211.400 67.277 211.287 L 62.754 211.173 63.037 217.687 M64.900 241.865 C 64.287 242.112,64.199 249.020,64.790 250.574 C 65.203 251.659,68.813 252.149,69.400 251.200 C 69.536 250.980,70.009 250.800,70.452 250.800 C 72.893 250.800,72.735 249.570,69.697 244.900 C 67.518 241.552,66.801 241.098,64.900 241.865 " stroke="none" fill="#f19f31" fill-rule="evenodd"></path><path id="path1" d="M56.174 170.300 C 56.334 172.225,56.628 175.690,56.826 178.000 C 57.025 180.310,57.304 184.090,57.448 186.400 C 57.792 191.947,58.109 192.172,63.900 190.971 C 64.973 190.749,65.118 188.170,64.347 182.989 C 63.835 179.545,63.949 179.305,66.185 179.126 L 67.770 179.000 68.385 184.600 L 69.000 190.200 72.200 190.200 L 75.400 190.200 75.281 183.800 C 75.102 174.178,74.160 171.472,71.245 172.203 C 69.679 172.596,63.918 173.196,63.599 173.000 C 63.441 172.902,63.218 171.665,63.105 170.253 C 62.826 166.782,62.847 166.800,59.117 166.800 L 55.882 166.800 56.174 170.300 M61.798 167.597 C 61.933 167.815,62.223 169.120,62.443 170.497 C 63.010 174.051,63.035 174.064,67.981 173.368 L 72.162 172.780 73.150 173.768 C 74.887 175.505,75.535 189.310,73.900 189.748 C 70.371 190.693,69.203 189.781,69.197 186.074 C 69.188 180.201,68.205 177.935,65.844 178.336 C 63.517 178.731,63.373 179.212,63.885 184.872 C 64.403 190.602,64.516 190.366,61.182 190.498 L 58.600 190.600 58.312 188.000 C 57.931 184.560,56.794 170.093,56.797 168.724 C 56.800 167.776,56.978 167.630,58.300 167.491 C 61.173 167.191,61.554 167.202,61.798 167.597 M42.400 169.953 C 41.060 170.189,40.995 170.279,40.880 172.056 C 40.801 173.274,40.491 174.155,39.980 174.618 C 38.931 175.568,38.907 178.411,39.940 179.346 C 40.550 179.898,40.730 180.882,40.956 184.908 C 41.303 191.061,41.926 192.624,44.000 192.550 C 55.984 192.121,58.280 190.766,56.361 185.260 C 55.677 183.297,51.005 183.297,50.496 185.260 C 50.171 186.516,48.905 187.369,48.120 186.863 C 47.895 186.718,47.584 185.114,47.428 183.298 C 47.101 179.484,46.872 179.727,51.200 179.297 L 54.200 179.000 54.324 177.058 C 54.512 174.097,53.824 173.557,50.032 173.692 L 47.002 173.800 46.601 172.200 C 45.915 169.463,45.731 169.364,42.400 169.953 M85.855 170.600 C 85.676 171.067,84.847 171.206,82.113 171.228 C 75.186 171.284,75.244 171.129,76.655 185.800 C 77.052 189.929,77.917 190.180,88.073 189.122 L 92.745 188.635 93.611 187.094 C 95.125 184.402,94.256 183.200,90.794 183.200 C 88.756 183.200,88.029 183.348,87.855 183.800 C 87.581 184.516,83.805 184.655,83.378 183.965 C 82.868 183.139,83.815 182.846,87.889 182.567 C 92.060 182.282,92.353 182.165,93.844 180.200 C 94.269 179.639,94.513 179.550,94.658 179.900 C 94.773 180.175,95.033 180.400,95.237 180.400 C 95.440 180.400,95.382 180.040,95.107 179.600 C 94.406 178.477,93.722 178.604,93.006 179.988 C 92.125 181.692,91.275 182.000,87.459 182.000 C 83.303 182.000,82.800 182.173,82.800 183.600 C 82.800 185.251,86.100 185.916,87.824 184.613 C 88.292 184.258,89.516 184.020,90.913 184.013 C 93.625 183.998,94.066 184.533,93.068 186.626 C 92.345 188.142,92.026 188.252,87.400 188.567 C 85.640 188.687,83.009 188.903,81.553 189.046 C 77.547 189.439,77.492 189.344,76.836 180.808 L 76.300 173.845 77.303 172.982 C 78.101 172.296,78.998 172.075,81.679 171.908 C 84.594 171.726,87.600 170.854,87.600 170.190 C 87.600 169.707,86.059 170.069,85.855 170.600 M45.367 170.643 C 45.792 170.806,46.000 171.390,46.000 172.419 C 46.000 174.406,46.373 174.600,50.180 174.600 L 53.359 174.600 53.721 176.109 C 54.248 178.303,53.668 178.800,50.584 178.800 C 46.744 178.800,46.800 178.740,46.800 182.814 C 46.800 187.795,49.299 189.719,51.067 186.100 C 53.110 181.919,57.497 185.478,55.554 189.740 C 55.023 190.906,54.290 191.083,47.800 191.616 C 42.512 192.050,42.004 191.876,41.997 189.624 C 41.984 185.832,41.124 179.389,40.590 179.091 C 39.823 178.661,39.837 176.049,40.613 175.024 C 40.936 174.596,41.200 173.483,41.200 172.549 C 41.200 170.933,41.263 170.843,42.500 170.689 C 43.215 170.601,44.010 170.499,44.267 170.464 C 44.524 170.429,45.019 170.509,45.367 170.643 M82.480 176.080 C 80.417 178.143,83.762 180.587,86.967 179.357 C 87.790 179.042,87.792 177.049,86.971 176.229 C 86.223 175.480,83.180 175.380,82.480 176.080 M86.725 177.900 C 86.845 179.142,86.788 179.200,85.458 179.200 C 83.351 179.200,82.800 178.855,82.800 177.535 C 82.800 175.606,86.538 175.953,86.725 177.900 M100.200 196.000 C 100.064 196.220,100.334 196.400,100.800 196.400 C 101.266 196.400,101.536 196.220,101.400 196.000 C 101.264 195.780,100.994 195.600,100.800 195.600 C 100.606 195.600,100.336 195.780,100.200 196.000 M92.300 196.957 C 91.915 197.249,91.600 197.963,91.600 198.544 C 91.600 199.830,92.294 199.954,92.472 198.700 C 92.570 198.013,92.995 197.705,94.270 197.397 C 95.188 197.175,96.073 196.860,96.236 196.697 C 96.770 196.163,93.019 196.411,92.300 196.957 M58.600 198.885 C 51.560 199.082,45.663 199.380,45.495 199.547 C 45.327 199.714,45.376 202.359,45.604 205.425 C 45.832 208.491,46.193 213.340,46.406 216.200 C 46.618 219.060,46.979 223.650,47.206 226.400 C 48.872 246.564,49.188 251.758,48.773 252.180 C 48.315 252.646,48.281 253.600,48.723 253.600 C 49.868 253.600,49.886 250.941,48.825 238.200 C 48.243 231.219,46.958 214.914,46.357 206.885 C 46.063 202.961,46.015 200.238,46.235 200.036 C 46.436 199.852,54.916 199.583,65.080 199.438 L 83.560 199.176 84.817 200.298 C 86.207 201.541,86.187 201.427,87.195 213.800 C 87.445 216.880,87.819 221.276,88.025 223.569 C 88.944 233.790,88.218 237.194,84.882 238.306 C 82.512 239.096,82.641 241.456,85.094 242.185 C 85.897 242.423,85.866 242.327,84.794 241.256 C 83.225 239.686,83.278 239.452,85.332 238.903 C 88.083 238.167,89.643 234.388,89.172 229.600 C 88.988 227.730,88.648 223.770,88.416 220.800 C 88.183 217.830,87.815 213.502,87.597 211.182 C 87.379 208.861,87.200 205.823,87.200 204.429 C 87.200 201.970,87.148 201.843,85.453 200.147 L 83.705 198.400 77.553 198.463 C 74.169 198.498,65.640 198.688,58.600 198.885 M90.910 206.400 C 90.877 206.840,90.980 207.200,91.140 207.200 C 91.299 207.200,91.457 206.840,91.490 206.400 C 91.523 205.960,91.420 205.600,91.260 205.600 C 91.101 205.600,90.943 205.960,90.910 206.400 M62.341 210.909 C 61.992 211.563,62.562 225.571,63.033 227.900 C 63.188 228.667,63.465 228.797,64.908 228.779 C 67.415 228.747,72.757 227.803,73.257 227.303 C 73.811 226.749,72.875 211.839,72.234 211.013 C 71.504 210.071,62.838 209.979,62.341 210.909 M72.266 215.800 C 72.522 218.220,72.774 221.718,72.825 223.573 L 72.918 226.947 70.491 227.442 C 69.157 227.714,67.108 227.996,65.939 228.068 L 63.813 228.200 63.566 226.200 C 63.430 225.100,63.192 221.269,63.037 217.687 L 62.754 211.173 67.277 211.287 L 71.800 211.400 72.266 215.800 M91.600 218.753 C 91.600 221.351,92.167 221.702,92.319 219.197 C 92.383 218.137,92.248 217.153,92.018 217.011 C 91.749 216.845,91.600 217.464,91.600 218.753 M64.006 241.793 C 63.145 242.830,63.814 252.816,64.743 252.794 C 65.780 252.769,66.154 252.001,65.398 251.449 C 64.378 250.704,63.918 242.552,64.862 241.953 C 66.791 240.731,69.031 242.863,72.055 248.800 C 72.706 250.078,72.767 250.113,72.758 249.200 C 72.735 246.812,68.375 241.411,66.365 241.281 C 65.069 241.197,64.376 241.347,64.006 241.793 " stroke="none" fill="#603709" fill-rule="evenodd"></path><path id="path2" d="M58.300 167.491 C 56.978 167.630,56.800 167.776,56.797 168.724 C 56.794 170.093,57.931 184.560,58.312 188.000 L 58.600 190.600 61.182 190.498 C 64.516 190.366,64.403 190.602,63.885 184.872 C 63.373 179.212,63.517 178.731,65.844 178.336 C 68.205 177.935,69.188 180.201,69.197 186.074 C 69.203 189.781,70.371 190.693,73.900 189.748 C 75.535 189.310,74.887 175.505,73.150 173.768 L 72.162 172.780 67.981 173.368 C 63.035 174.064,63.010 174.051,62.443 170.497 C 61.870 166.904,62.127 167.091,58.300 167.491 M86.486 170.878 C 85.541 171.462,84.207 171.750,81.739 171.904 C 78.999 172.075,78.104 172.293,77.303 172.982 L 76.300 173.845 76.836 180.808 C 77.492 189.344,77.547 189.439,81.553 189.046 C 83.009 188.903,85.640 188.687,87.400 188.567 C 92.026 188.252,92.345 188.142,93.068 186.626 C 94.066 184.533,93.625 183.998,90.913 184.013 C 89.516 184.020,88.292 184.258,87.824 184.613 C 86.100 185.916,82.800 185.251,82.800 183.600 C 82.800 182.173,83.303 182.000,87.459 182.000 C 91.362 182.000,91.994 181.755,93.154 179.787 C 94.161 178.081,94.391 172.300,93.485 171.471 C 91.654 169.797,88.648 169.543,86.486 170.878 M42.500 170.689 C 41.263 170.843,41.200 170.933,41.200 172.549 C 41.200 173.483,40.936 174.596,40.613 175.024 C 39.837 176.049,39.823 178.661,40.590 179.091 C 41.124 179.389,41.984 185.832,41.997 189.624 C 42.004 191.876,42.512 192.050,47.800 191.616 C 54.290 191.083,55.023 190.906,55.554 189.740 C 57.497 185.478,53.110 181.919,51.067 186.100 C 49.299 189.719,46.800 187.795,46.800 182.814 C 46.800 178.740,46.744 178.800,50.584 178.800 C 53.668 178.800,54.248 178.303,53.721 176.109 L 53.359 174.600 50.180 174.600 C 46.373 174.600,46.000 174.406,46.000 172.419 C 46.000 170.924,45.449 170.302,44.267 170.464 C 44.010 170.499,43.215 170.601,42.500 170.689 M366.200 173.600 C 366.058 173.831,363.929 174.000,361.176 174.000 L 356.400 174.000 356.400 175.600 C 356.400 176.480,356.580 177.200,356.800 177.200 C 357.048 177.200,357.200 179.392,357.200 182.976 C 357.200 186.396,357.363 188.854,357.600 189.000 C 357.836 189.146,358.000 191.537,358.000 194.824 C 358.000 198.275,358.152 200.400,358.400 200.400 C 358.648 200.400,358.800 202.592,358.800 206.176 C 358.800 209.596,358.963 212.054,359.200 212.200 C 359.420 212.336,359.600 213.157,359.600 214.024 L 359.600 215.600 363.576 215.600 C 365.796 215.600,367.662 215.423,367.800 215.200 C 367.943 214.968,370.137 214.800,373.024 214.800 C 375.958 214.800,378.000 214.641,378.000 214.414 C 378.000 214.196,379.879 213.977,382.300 213.914 L 386.600 213.800 386.727 212.700 C 386.796 212.095,386.661 211.600,386.427 211.600 C 386.181 211.600,386.000 210.750,386.000 209.600 C 386.000 208.500,385.820 207.600,385.600 207.600 C 385.380 207.600,385.200 206.777,385.200 205.771 C 385.200 203.082,384.728 202.800,380.229 202.800 C 377.943 202.800,376.400 202.961,376.400 203.200 C 376.400 203.429,375.200 203.600,373.600 203.600 L 370.800 203.600 370.800 200.400 C 370.800 198.533,370.633 197.200,370.400 197.200 C 370.150 197.200,370.000 194.741,370.000 190.624 C 370.000 186.671,369.840 183.949,369.600 183.800 C 369.371 183.658,369.200 181.577,369.200 178.920 C 369.200 174.978,369.096 174.209,368.500 173.757 C 367.663 173.122,366.543 173.045,366.200 173.600 M86.971 176.229 C 87.792 177.049,87.790 179.042,86.967 179.357 C 84.553 180.284,82.000 179.381,82.000 177.600 C 82.000 175.644,85.439 174.696,86.971 176.229 M321.300 177.411 L 319.600 179.181 319.600 187.214 C 319.600 192.468,319.462 195.162,319.200 195.000 C 318.967 194.856,318.800 192.596,318.800 189.576 C 318.800 186.392,318.646 184.400,318.400 184.400 C 318.163 184.400,318.000 182.933,318.000 180.800 L 318.000 177.200 314.624 177.200 C 312.767 177.200,311.136 177.380,311.000 177.600 C 310.864 177.820,309.878 178.000,308.810 178.000 C 307.741 178.000,306.801 178.197,306.720 178.439 C 306.621 178.736,304.540 178.859,300.287 178.821 C 296.150 178.784,294.000 178.908,294.000 179.182 C 294.000 179.453,292.024 179.600,288.400 179.600 C 284.933 179.600,282.800 179.752,282.800 180.000 C 282.800 180.220,282.162 180.400,281.382 180.400 C 279.983 180.400,278.000 181.799,278.000 182.785 C 278.000 183.017,277.460 183.772,276.800 184.463 C 276.140 185.154,275.600 185.962,275.600 186.259 C 275.600 186.557,275.420 186.800,275.200 186.800 C 274.980 186.800,274.800 187.520,274.800 188.400 C 274.800 189.280,274.980 190.000,275.200 190.000 C 275.437 190.000,275.600 191.467,275.600 193.600 C 275.600 195.733,275.763 197.200,276.000 197.200 C 276.237 197.200,276.400 198.667,276.400 200.800 C 276.400 202.933,276.563 204.400,276.800 204.400 C 277.037 204.400,277.200 205.867,277.200 208.000 C 277.200 210.133,277.363 211.600,277.600 211.600 C 277.837 211.600,278.000 213.067,278.000 215.200 C 278.000 217.333,278.163 218.800,278.400 218.800 C 278.620 218.800,278.800 219.268,278.800 219.840 C 278.800 220.558,279.375 221.422,280.664 222.640 L 282.527 224.400 286.440 224.400 C 288.617 224.400,290.462 224.223,290.600 224.000 C 290.736 223.780,292.086 223.600,293.600 223.600 C 295.114 223.600,296.464 223.420,296.600 223.200 C 296.736 222.980,298.176 222.800,299.800 222.800 C 301.424 222.800,302.864 222.620,303.000 222.400 C 303.800 221.105,304.400 222.098,304.400 224.720 C 304.400 228.050,304.088 228.400,301.120 228.400 C 299.840 228.400,298.800 228.579,298.800 228.800 C 298.800 229.020,298.080 229.200,297.200 229.200 C 295.689 229.200,295.600 229.133,295.600 228.000 C 295.600 227.340,295.420 226.800,295.200 226.800 C 294.980 226.800,294.800 226.517,294.800 226.171 C 294.800 225.826,294.543 225.286,294.229 224.971 C 293.579 224.322,291.600 224.193,291.600 224.800 C 291.600 225.040,290.000 225.200,287.600 225.200 C 285.200 225.200,283.600 225.360,283.600 225.600 C 283.600 225.820,282.880 226.000,282.000 226.000 C 280.667 226.000,280.400 226.133,280.400 226.800 C 280.400 227.240,280.220 227.600,280.000 227.600 C 279.754 227.600,279.600 229.600,279.600 232.800 C 279.600 236.000,279.754 238.000,280.000 238.000 C 280.220 238.000,280.400 238.233,280.400 238.517 C 280.400 238.801,281.167 239.881,282.105 240.917 L 283.809 242.800 289.881 242.800 C 293.497 242.800,296.053 242.638,296.200 242.400 C 296.349 242.160,299.063 242.000,303.000 242.000 C 306.937 242.000,309.651 241.840,309.800 241.600 C 309.937 241.379,311.740 241.200,313.832 241.200 L 317.617 241.200 319.809 239.009 L 322.000 236.817 322.000 232.432 C 322.000 229.940,321.827 227.940,321.600 227.800 C 321.367 227.656,321.200 225.396,321.200 222.376 C 321.200 219.192,321.046 217.200,320.800 217.200 C 320.567 217.200,320.400 215.867,320.400 214.000 C 320.400 212.133,320.567 210.800,320.800 210.800 C 321.020 210.800,321.200 210.980,321.200 211.200 C 321.200 211.420,321.560 211.600,322.000 211.600 C 322.440 211.600,322.800 211.780,322.800 212.000 C 322.800 212.259,327.806 212.400,337.018 212.400 L 351.236 212.400 352.218 211.418 C 352.758 210.878,353.200 210.158,353.200 209.818 C 353.200 209.478,353.335 209.199,353.500 209.197 C 354.198 209.190,354.800 206.839,354.800 204.120 L 354.800 201.200 352.400 201.200 C 351.014 201.200,350.000 201.025,350.000 200.786 C 350.000 200.520,348.467 200.413,345.700 200.486 L 341.400 200.600 341.273 201.700 C 341.149 202.779,340.287 203.189,339.800 202.400 C 339.664 202.180,338.303 202.000,336.776 202.000 L 334.000 202.000 334.000 200.800 L 334.000 199.600 342.800 199.600 C 348.400 199.600,351.600 199.455,351.600 199.200 C 351.600 198.980,351.883 198.800,352.229 198.800 C 353.037 198.800,354.000 197.837,354.000 197.029 C 354.000 196.683,354.180 196.400,354.400 196.400 C 354.649 196.400,354.800 194.141,354.800 190.424 C 354.800 186.871,354.962 184.347,355.200 184.200 C 355.947 183.738,355.690 179.209,354.900 178.908 C 354.515 178.761,353.851 178.316,353.425 177.920 C 352.998 177.524,352.413 177.200,352.125 177.200 C 351.836 177.200,351.600 177.032,351.600 176.827 C 351.600 176.332,345.647 176.001,333.200 175.803 L 323.000 175.641 321.300 177.411 M262.800 182.400 C 262.800 182.633,261.467 182.800,259.600 182.800 C 257.733 182.800,256.400 182.967,256.400 183.200 C 256.400 183.433,255.067 183.600,253.200 183.600 C 251.333 183.600,250.000 183.767,250.000 184.000 C 250.000 184.220,248.997 184.400,247.771 184.400 C 245.478 184.400,244.400 184.966,244.400 186.171 C 244.400 186.517,244.220 186.800,244.000 186.800 C 243.747 186.800,243.600 189.659,243.600 194.576 C 243.600 199.329,243.756 202.449,244.000 202.600 C 244.250 202.755,244.400 206.796,244.400 213.400 C 244.400 220.004,244.550 224.045,244.800 224.200 C 245.020 224.336,245.200 224.977,245.200 225.624 C 245.200 226.664,245.339 226.800,246.400 226.800 C 247.060 226.800,247.600 226.620,247.600 226.400 C 247.600 226.161,249.143 226.000,251.429 226.000 C 256.571 226.000,256.400 226.239,256.400 219.029 L 256.400 213.200 258.400 213.200 C 259.500 213.200,260.400 213.020,260.400 212.800 C 260.400 212.580,260.940 212.400,261.600 212.400 C 262.753 212.400,262.800 212.469,262.800 214.176 C 262.800 215.153,262.980 216.064,263.200 216.200 C 263.420 216.336,263.600 218.057,263.600 220.024 C 263.600 222.141,263.763 223.600,264.000 223.600 C 264.220 223.600,264.400 223.960,264.400 224.400 C 264.400 225.093,264.667 225.200,266.400 225.200 C 267.500 225.200,268.400 225.027,268.400 224.814 C 268.400 224.601,270.144 224.378,272.300 224.314 L 276.200 224.200 276.320 221.900 C 276.394 220.484,276.278 219.600,276.020 219.600 C 275.755 219.600,275.600 218.134,275.600 215.624 C 275.600 213.404,275.423 211.538,275.200 211.400 C 274.979 211.264,274.800 209.470,274.800 207.400 C 274.800 205.330,274.621 203.536,274.400 203.400 C 274.179 203.263,274.000 201.463,274.000 199.376 C 274.000 197.125,273.838 195.600,273.600 195.600 C 273.360 195.600,273.200 194.000,273.200 191.600 C 273.200 189.200,273.040 187.600,272.800 187.600 C 272.580 187.600,272.400 187.132,272.400 186.560 C 272.400 185.939,271.948 185.094,271.275 184.460 C 270.657 183.877,270.033 183.085,269.888 182.700 C 269.589 181.904,262.800 181.617,262.800 182.400 M219.800 186.400 C 219.645 186.650,215.663 186.800,209.176 186.800 L 198.800 186.800 198.800 191.200 C 198.800 193.867,198.958 195.600,199.200 195.600 C 199.448 195.600,199.600 197.725,199.600 201.176 C 199.600 204.463,199.764 206.854,200.000 207.000 C 200.237 207.146,200.400 209.604,200.400 213.024 C 200.400 216.608,200.552 218.800,200.800 218.800 C 201.048 218.800,201.200 220.933,201.200 224.400 C 201.200 227.867,201.352 230.000,201.600 230.000 C 201.848 230.000,202.000 232.125,202.000 235.576 C 202.000 238.863,202.164 241.254,202.400 241.400 C 202.620 241.536,202.800 242.627,202.800 243.824 L 202.800 246.000 204.400 246.000 C 205.280 246.000,206.000 245.820,206.000 245.600 C 206.000 245.362,207.525 245.200,209.776 245.200 C 211.863 245.200,213.663 245.021,213.800 244.800 C 213.936 244.580,215.657 244.400,217.624 244.400 C 219.741 244.400,221.200 244.237,221.200 244.000 C 221.200 243.760,222.800 243.600,225.200 243.600 C 227.600 243.600,229.200 243.440,229.200 243.200 C 229.200 242.963,230.659 242.800,232.776 242.800 C 234.743 242.800,236.464 242.620,236.600 242.400 C 236.736 242.180,237.287 242.000,237.824 242.000 C 238.361 242.000,238.800 241.859,238.800 241.686 C 238.800 241.514,239.318 241.067,239.951 240.693 C 242.600 239.128,243.600 237.798,243.600 235.840 C 243.600 234.828,243.420 234.000,243.200 234.000 C 242.950 234.000,242.800 231.541,242.800 227.424 C 242.800 223.471,242.640 220.749,242.400 220.600 C 242.180 220.464,242.000 219.539,242.000 218.545 C 242.000 216.946,241.807 216.552,240.328 215.130 C 238.883 213.742,238.720 213.421,239.128 212.767 C 239.713 211.831,239.777 204.400,239.200 204.400 C 238.967 204.400,238.800 203.067,238.800 201.200 C 238.800 199.333,238.633 198.000,238.400 198.000 C 238.167 198.000,238.000 196.667,238.000 194.800 C 238.000 192.933,237.833 191.600,237.600 191.600 C 237.380 191.600,237.200 191.354,237.200 191.054 C 237.200 190.753,236.226 189.493,235.035 188.254 L 232.869 186.000 226.458 186.000 C 222.616 186.000,219.948 186.160,219.800 186.400 M191.000 187.200 C 190.853 187.438,188.329 187.600,184.776 187.600 L 178.800 187.600 178.800 194.000 C 178.800 199.598,178.720 200.400,178.160 200.400 C 177.809 200.400,177.017 200.940,176.400 201.600 C 175.783 202.260,175.063 202.800,174.800 202.800 C 174.537 202.800,173.817 203.340,173.200 204.000 C 170.932 206.428,170.800 206.063,170.800 197.371 C 170.800 191.120,170.685 189.428,170.229 188.971 C 169.579 188.322,166.575 188.194,166.200 188.800 C 166.058 189.031,163.929 189.200,161.176 189.200 C 158.259 189.200,156.400 189.356,156.400 189.600 C 156.400 189.820,155.500 190.000,154.400 190.000 L 152.400 190.000 152.400 195.200 C 152.400 198.400,152.554 200.400,152.800 200.400 C 153.048 200.400,153.200 202.533,153.200 206.000 C 153.200 209.467,153.352 211.600,153.600 211.600 C 153.848 211.600,154.000 213.725,154.000 217.176 C 154.000 220.463,154.164 222.854,154.400 223.000 C 154.634 223.145,154.800 225.463,154.800 228.600 C 154.800 231.737,154.966 234.055,155.200 234.200 C 155.436 234.346,155.600 236.730,155.600 240.000 C 155.600 243.270,155.764 245.654,156.000 245.800 C 156.220 245.936,156.400 246.757,156.400 247.624 L 156.400 249.200 159.200 249.200 C 160.800 249.200,162.000 249.029,162.000 248.800 C 162.000 248.580,162.979 248.400,164.176 248.400 C 165.373 248.400,166.464 248.220,166.600 248.000 C 166.736 247.780,167.726 247.600,168.800 247.600 C 169.874 247.600,170.864 247.420,171.000 247.200 C 171.136 246.980,171.687 246.800,172.224 246.800 C 173.262 246.800,173.750 243.587,172.800 243.000 C 172.161 242.605,172.270 225.662,172.915 225.071 C 174.854 223.298,176.400 223.178,176.400 224.800 C 176.400 225.460,176.580 226.000,176.800 226.000 C 177.020 226.000,177.200 226.540,177.200 227.200 C 177.200 227.860,177.380 228.400,177.600 228.400 C 177.820 228.400,178.000 228.940,178.000 229.600 C 178.000 230.260,178.180 230.800,178.400 230.800 C 178.620 230.800,178.800 231.340,178.800 232.000 C 178.800 232.660,178.980 233.200,179.200 233.200 C 179.420 233.200,179.600 233.740,179.600 234.400 C 179.600 235.060,179.780 235.600,180.000 235.600 C 180.220 235.600,180.400 236.140,180.400 236.800 C 180.400 237.460,180.580 238.000,180.800 238.000 C 181.020 238.000,181.200 238.439,181.200 238.976 C 181.200 239.513,181.380 240.064,181.600 240.200 C 181.820 240.336,182.000 240.876,182.000 241.400 C 182.000 241.924,182.180 242.464,182.400 242.600 C 182.620 242.736,182.800 243.197,182.800 243.624 C 182.800 244.051,182.980 244.400,183.200 244.400 C 183.420 244.400,183.600 244.863,183.600 245.429 C 183.600 247.196,186.552 248.572,187.400 247.200 C 187.536 246.980,187.997 246.800,188.424 246.800 C 188.851 246.800,189.200 246.620,189.200 246.400 C 189.200 246.180,189.740 246.000,190.400 246.000 C 191.060 246.000,191.600 245.820,191.600 245.600 C 191.600 245.380,191.949 245.200,192.376 245.200 C 192.803 245.200,193.264 245.020,193.400 244.800 C 193.536 244.580,194.087 244.400,194.624 244.400 C 195.161 244.400,195.600 244.220,195.600 244.000 C 195.600 243.780,196.140 243.600,196.800 243.600 C 197.867 243.600,198.000 243.467,198.000 242.400 C 198.000 241.740,198.180 241.200,198.400 241.200 C 198.620 241.200,198.800 240.300,198.800 239.200 C 198.800 238.100,198.620 237.200,198.400 237.200 C 198.180 237.200,198.000 236.660,198.000 236.000 C 198.000 235.340,197.820 234.800,197.600 234.800 C 197.380 234.800,197.200 234.440,197.200 234.000 C 197.200 233.560,197.020 233.200,196.800 233.200 C 196.580 233.200,196.400 232.660,196.400 232.000 C 196.400 231.340,196.220 230.800,196.000 230.800 C 195.780 230.800,195.600 230.260,195.600 229.600 C 195.600 228.940,195.420 228.400,195.200 228.400 C 194.980 228.400,194.800 228.051,194.800 227.624 C 194.800 227.197,194.620 226.736,194.400 226.600 C 194.180 226.464,194.000 225.913,194.000 225.376 C 194.000 224.839,193.820 224.400,193.600 224.400 C 193.380 224.400,193.200 223.860,193.200 223.200 C 193.200 222.540,193.020 222.000,192.800 222.000 C 192.580 222.000,192.400 221.651,192.400 221.224 C 192.400 220.797,192.220 220.336,192.000 220.200 C 191.780 220.064,191.600 219.513,191.600 218.976 C 191.600 218.439,191.420 218.000,191.200 218.000 C 190.980 218.000,190.800 217.460,190.800 216.800 C 190.800 216.140,190.620 215.600,190.400 215.600 C 190.180 215.600,190.000 215.161,190.000 214.624 C 190.000 214.087,189.820 213.536,189.600 213.400 C 189.019 213.041,189.110 212.400,189.741 212.400 C 190.038 212.400,190.806 211.905,191.448 211.300 C 192.089 210.695,193.106 209.945,193.707 209.632 L 194.800 209.065 194.800 202.356 C 194.800 198.315,194.959 195.549,195.200 195.400 C 195.425 195.261,195.600 193.329,195.600 190.976 L 195.600 186.800 193.424 186.800 C 192.227 186.800,191.136 186.980,191.000 187.200 M340.400 188.576 C 340.400 189.553,340.580 190.464,340.800 190.600 C 341.788 191.211,341.010 191.600,338.800 191.600 C 337.467 191.600,336.400 191.422,336.400 191.200 C 336.400 190.980,335.680 190.800,334.800 190.800 L 333.200 190.800 333.200 188.800 L 333.200 186.800 336.800 186.800 L 340.400 186.800 340.400 188.576 M133.400 192.000 C 133.264 192.220,131.903 192.400,130.376 192.400 C 128.792 192.400,127.600 192.572,127.600 192.800 C 127.600 193.033,126.267 193.200,124.400 193.200 C 122.533 193.200,121.200 193.367,121.200 193.600 C 121.200 193.831,119.941 194.000,118.224 194.000 C 116.587 194.000,115.136 194.180,115.000 194.400 C 114.864 194.620,114.109 194.800,113.323 194.800 C 111.878 194.800,110.002 196.325,110.000 197.500 C 110.000 197.775,109.820 198.000,109.600 198.000 C 109.356 198.000,109.200 199.867,109.200 202.800 C 109.200 205.733,109.356 207.600,109.600 207.600 C 109.849 207.600,110.000 209.925,110.000 213.776 C 110.000 217.463,110.161 220.052,110.400 220.200 C 110.620 220.336,110.800 221.413,110.800 222.592 C 110.800 225.310,113.018 227.600,115.648 227.600 C 116.476 227.600,117.264 227.780,117.400 228.000 C 117.554 228.249,121.337 228.400,127.424 228.400 L 137.200 228.400 137.200 232.400 L 137.200 236.400 135.024 236.400 C 133.827 236.400,132.736 236.580,132.600 236.800 C 132.079 237.642,127.600 237.284,127.600 236.400 C 127.600 235.960,127.420 235.600,127.200 235.600 C 126.980 235.600,126.800 234.880,126.800 234.000 C 126.800 233.120,126.620 232.400,126.400 232.400 C 126.180 232.400,126.000 232.040,126.000 231.600 C 126.000 230.723,123.105 230.383,122.600 231.200 C 122.457 231.432,120.263 231.600,117.376 231.600 L 112.400 231.600 112.400 234.376 C 112.400 235.903,112.220 237.264,112.000 237.400 C 111.768 237.543,111.600 239.737,111.600 242.624 C 111.600 245.675,111.755 247.600,112.000 247.600 C 112.220 247.600,112.400 247.960,112.400 248.400 C 112.400 248.840,112.580 249.200,112.800 249.200 C 113.020 249.200,113.200 249.478,113.200 249.817 C 113.200 250.156,113.560 250.820,114.000 251.292 C 114.440 251.764,114.800 252.387,114.800 252.675 C 114.800 253.316,121.009 253.433,121.400 252.800 C 121.540 252.573,123.530 252.400,126.000 252.400 C 128.470 252.400,130.460 252.227,130.600 252.000 C 130.740 251.773,132.730 251.600,135.200 251.600 C 137.670 251.600,139.660 251.427,139.800 251.200 C 139.940 250.973,141.930 250.800,144.400 250.800 C 146.870 250.800,148.860 250.627,149.000 250.400 C 149.136 250.180,149.517 250.000,149.847 250.000 C 150.176 250.000,151.241 249.145,152.212 248.100 L 153.977 246.200 153.989 240.100 C 153.996 236.292,153.850 234.000,153.600 234.000 C 153.353 234.000,153.200 231.960,153.200 228.680 C 153.200 223.692,152.769 221.212,151.900 221.203 C 151.735 221.201,151.600 220.840,151.600 220.400 C 151.600 219.960,151.420 219.600,151.200 219.600 C 150.980 219.600,150.800 219.322,150.800 218.983 C 150.800 218.644,150.440 217.980,150.000 217.508 C 149.560 217.036,149.200 216.422,149.200 216.144 C 149.200 215.767,147.598 215.584,142.900 215.426 C 139.435 215.309,134.395 215.110,131.700 214.983 L 126.800 214.753 126.800 211.748 C 126.800 208.030,127.149 207.600,130.171 207.600 C 131.397 207.600,132.400 207.420,132.400 207.200 C 132.400 206.593,134.379 206.722,135.029 207.371 C 135.343 207.686,135.600 208.406,135.600 208.971 C 135.600 209.537,135.780 210.000,136.000 210.000 C 136.220 210.000,136.400 210.283,136.400 210.629 C 136.400 212.114,140.615 213.270,141.400 212.000 C 141.536 211.780,142.987 211.600,144.624 211.600 C 146.341 211.600,147.600 211.431,147.600 211.200 C 147.600 210.980,147.878 210.800,148.218 210.800 C 150.005 210.800,150.800 209.020,150.800 205.018 C 150.800 202.739,150.639 201.200,150.400 201.200 C 150.167 201.200,150.000 199.867,150.000 198.000 C 150.000 196.133,149.833 194.800,149.600 194.800 C 149.380 194.800,149.200 194.440,149.200 194.000 C 149.200 193.378,148.933 193.200,148.000 193.200 C 147.340 193.200,146.800 193.020,146.800 192.800 C 146.800 192.580,145.900 192.400,144.800 192.400 C 143.700 192.400,142.800 192.220,142.800 192.000 C 142.800 191.757,141.008 191.600,138.224 191.600 C 135.604 191.600,133.542 191.771,133.400 192.000 M302.000 198.576 C 302.000 201.729,302.165 204.055,302.400 204.200 C 302.620 204.336,302.799 205.112,302.797 205.924 C 302.793 207.798,301.661 208.400,298.144 208.400 C 296.771 208.400,295.536 208.580,295.400 208.800 C 294.771 209.818,294.000 209.157,294.000 207.600 C 294.000 206.720,293.820 206.000,293.600 206.000 C 293.360 206.000,293.200 204.400,293.200 202.000 C 293.200 199.600,293.040 198.000,292.800 198.000 C 292.580 198.000,292.400 197.100,292.400 196.000 L 292.400 194.000 294.400 194.000 C 295.500 194.000,296.400 193.820,296.400 193.600 C 296.400 193.371,297.600 193.200,299.200 193.200 L 302.000 193.200 302.000 198.576 M261.200 196.976 C 261.200 198.173,261.380 199.264,261.600 199.400 C 261.820 199.536,262.000 200.357,262.000 201.224 L 262.000 202.800 259.200 202.800 L 256.400 202.800 256.400 201.424 C 256.400 200.667,256.220 199.936,256.000 199.800 C 255.780 199.664,255.600 198.728,255.600 197.720 C 255.600 195.414,256.303 194.830,259.100 194.813 L 261.200 194.800 261.200 196.976 M101.400 196.000 C 101.555 196.251,100.693 196.400,99.090 196.400 C 97.684 196.400,96.400 196.534,96.236 196.697 C 96.073 196.860,95.188 197.175,94.270 197.397 C 92.995 197.705,92.570 198.013,92.472 198.700 C 92.402 199.195,92.177 199.600,91.972 199.600 C 91.767 199.600,91.600 199.960,91.600 200.400 C 91.600 200.840,91.780 201.200,92.000 201.200 C 92.241 201.200,92.400 202.879,92.400 205.437 C 92.400 209.338,92.464 209.692,93.200 209.884 C 93.640 209.999,94.000 210.252,94.000 210.447 C 94.000 210.641,94.360 210.800,94.800 210.800 C 95.240 210.800,95.600 210.980,95.600 211.200 C 95.600 211.420,95.137 211.600,94.571 211.600 C 92.835 211.600,92.400 212.436,92.400 215.771 C 92.400 217.524,92.569 218.800,92.800 218.800 C 93.046 218.800,93.200 220.773,93.200 223.920 C 93.200 227.462,93.354 229.206,93.700 229.579 C 94.106 230.016,94.088 230.058,93.600 229.800 C 93.112 229.542,93.094 229.584,93.500 230.021 C 93.850 230.398,94.000 232.213,94.000 236.056 C 94.000 239.289,94.165 241.655,94.400 241.800 C 94.635 241.945,94.800 244.280,94.800 247.452 C 94.800 251.603,94.933 252.990,95.371 253.429 C 96.030 254.087,97.437 254.187,97.800 253.600 C 97.936 253.380,99.297 253.200,100.824 253.200 C 102.351 253.200,103.600 253.028,103.600 252.817 C 103.600 252.606,104.995 252.381,106.700 252.317 L 109.800 252.200 109.906 240.626 C 109.975 233.182,109.868 228.908,109.606 228.646 C 109.356 228.396,109.200 224.890,109.200 219.520 L 109.200 210.800 107.200 210.800 C 104.864 210.800,104.801 210.684,106.400 209.339 C 107.430 208.472,107.600 208.053,107.600 206.388 C 107.600 205.321,107.780 204.336,108.000 204.200 C 108.926 203.628,108.468 197.632,107.418 196.582 C 106.393 195.557,100.791 195.015,101.400 196.000 M223.029 199.371 C 223.422 199.765,223.600 200.877,223.600 202.948 C 223.600 204.601,223.780 206.064,224.000 206.200 C 224.220 206.336,224.400 206.887,224.400 207.424 C 224.400 208.457,221.971 208.924,221.400 208.000 C 221.264 207.780,219.903 207.600,218.376 207.600 L 215.600 207.600 215.600 204.000 C 215.600 201.867,215.437 200.400,215.200 200.400 C 214.980 200.400,214.800 200.040,214.800 199.600 C 214.800 198.566,222.023 198.366,223.029 199.371 M58.285 199.500 C 47.936 199.597,46.339 199.694,46.131 200.235 C 46.000 200.578,46.107 203.680,46.371 207.129 C 47.091 216.569,48.336 232.340,48.825 238.200 C 49.925 251.412,49.906 252.786,48.614 253.683 C 48.346 253.870,48.376 254.136,48.703 254.463 C 48.977 254.737,49.200 255.644,49.200 256.480 L 49.200 258.000 51.600 258.000 C 52.933 258.000,54.000 257.822,54.000 257.600 C 54.000 257.378,55.059 257.200,56.376 257.200 C 57.683 257.200,58.864 257.020,59.000 256.800 C 59.136 256.580,60.272 256.394,61.524 256.387 C 62.779 256.380,64.114 256.136,64.500 255.843 C 65.280 255.251,65.463 252.954,64.749 252.716 C 63.655 252.352,63.140 242.480,64.170 241.625 C 66.588 239.618,73.116 245.703,72.620 249.500 C 72.527 250.215,72.619 250.800,72.825 250.800 C 73.031 250.800,73.200 251.120,73.200 251.512 C 73.200 251.903,73.560 252.483,74.000 252.800 C 74.440 253.117,74.800 253.615,74.800 253.906 C 74.800 254.805,76.708 256.400,77.782 256.400 C 78.342 256.400,78.800 256.220,78.800 256.000 C 78.800 255.780,79.239 255.600,79.776 255.600 C 80.313 255.600,80.864 255.420,81.000 255.200 C 81.136 254.980,81.597 254.800,82.024 254.800 C 82.451 254.800,82.800 254.620,82.800 254.400 C 82.800 254.180,83.340 254.000,84.000 254.000 C 84.660 254.000,85.200 253.820,85.200 253.600 C 85.200 253.380,85.740 253.200,86.400 253.200 C 87.060 253.200,87.600 253.041,87.600 252.847 C 87.600 252.652,87.960 252.399,88.400 252.284 C 88.941 252.143,89.200 251.738,89.200 251.037 C 89.200 250.467,89.380 250.000,89.600 250.000 C 89.820 250.000,90.000 249.640,90.000 249.200 C 90.000 248.760,89.820 248.400,89.600 248.400 C 89.380 248.400,89.200 248.080,89.200 247.688 C 89.200 247.297,88.840 246.717,88.400 246.400 C 87.960 246.083,87.600 245.580,87.600 245.283 C 87.600 244.986,87.328 244.471,86.996 244.139 C 86.664 243.807,86.512 243.342,86.658 243.106 C 86.815 242.851,86.736 242.793,86.462 242.962 C 86.208 243.119,86.000 243.060,86.000 242.831 C 86.000 242.602,85.545 242.301,84.989 242.162 C 82.633 241.570,82.564 239.079,84.882 238.306 C 88.218 237.194,88.944 233.790,88.025 223.569 C 87.819 221.276,87.445 216.880,87.195 213.800 C 86.189 201.447,86.205 201.539,84.830 200.311 L 83.587 199.200 76.894 199.294 C 73.212 199.345,64.838 199.438,58.285 199.500 M72.234 211.013 C 72.875 211.839,73.811 226.749,73.257 227.303 C 72.757 227.803,67.415 228.747,64.908 228.779 C 63.465 228.797,63.188 228.667,63.033 227.900 C 62.562 225.571,61.992 211.563,62.341 210.909 C 62.838 209.979,71.504 210.071,72.234 211.013 M222.600 220.000 C 222.736 220.220,223.737 220.400,224.824 220.400 L 226.800 220.400 226.800 224.800 L 226.800 229.200 225.624 229.200 C 224.977 229.200,224.336 229.380,224.200 229.600 C 224.064 229.820,223.254 230.000,222.400 230.000 C 221.546 230.000,220.736 230.180,220.600 230.400 C 219.959 231.437,218.000 230.834,218.000 229.600 C 218.000 228.940,217.820 228.400,217.600 228.400 C 217.358 228.400,217.200 226.667,217.200 224.000 L 217.200 219.600 219.776 219.600 C 221.193 219.600,222.464 219.780,222.600 220.000 M272.400 226.400 C 272.400 226.620,271.511 226.800,270.424 226.800 C 269.337 226.800,268.336 226.980,268.200 227.200 C 268.064 227.420,267.074 227.600,266.000 227.600 C 264.926 227.600,263.936 227.780,263.800 228.000 C 263.664 228.220,262.764 228.400,261.800 228.400 C 260.836 228.400,259.936 228.580,259.800 228.800 C 259.664 229.020,258.663 229.200,257.576 229.200 C 256.489 229.200,255.600 229.380,255.600 229.600 C 255.600 229.820,254.700 230.000,253.600 230.000 C 252.500 230.000,251.600 230.180,251.600 230.400 C 251.600 230.620,250.700 230.800,249.600 230.800 C 248.500 230.800,247.600 230.980,247.600 231.200 C 247.600 231.420,247.060 231.600,246.400 231.600 C 245.333 231.600,245.200 231.733,245.200 232.800 C 245.200 233.460,245.380 234.000,245.600 234.000 C 245.820 234.000,246.000 234.540,246.000 235.200 C 246.000 235.860,246.180 236.400,246.400 236.400 C 246.620 236.400,246.800 236.940,246.800 237.600 C 246.800 238.260,246.980 238.800,247.200 238.800 C 247.420 238.800,247.600 239.160,247.600 239.600 C 247.600 240.473,250.101 240.807,250.600 240.000 C 250.736 239.780,251.726 239.600,252.800 239.600 C 253.874 239.600,254.864 239.420,255.000 239.200 C 255.136 238.980,256.306 238.800,257.600 238.800 C 258.894 238.800,260.064 238.620,260.200 238.400 C 260.336 238.180,261.416 238.000,262.600 238.000 C 263.784 238.000,264.864 237.820,265.000 237.600 C 265.136 237.380,266.216 237.200,267.400 237.200 C 268.584 237.200,269.664 237.020,269.800 236.800 C 269.936 236.580,271.016 236.400,272.200 236.400 C 273.384 236.400,274.464 236.220,274.600 236.000 C 274.736 235.780,275.557 235.600,276.424 235.600 L 278.000 235.600 278.000 233.600 C 278.000 232.500,277.820 231.600,277.600 231.600 C 277.380 231.600,277.200 230.880,277.200 230.000 C 277.200 229.120,277.020 228.400,276.800 228.400 C 276.580 228.400,276.400 227.860,276.400 227.200 C 276.400 226.027,276.356 226.000,274.400 226.000 C 273.300 226.000,272.400 226.180,272.400 226.400 " stroke="none" fill="#040404" fill-rule="evenodd"></path></g></svg>