<svg id="svg" version="1.1" xmlns="http://www.w3.org/2000/svg" xmlns:xlink="http://www.w3.org/1999/xlink" width="400" height="400" viewBox="0, 0, 400,400"><g id="svgg"><path id="path0" d="M69.751 71.300 C 69.901 73.555,70.185 77.470,70.384 80.000 C 70.582 82.530,70.940 87.120,71.179 90.200 C 71.705 96.977,71.996 98.222,73.036 98.140 C 75.558 97.944,79.750 97.210,80.046 96.914 C 80.244 96.716,80.197 94.327,79.936 91.383 C 79.684 88.532,79.461 85.390,79.439 84.400 L 79.400 82.600 81.702 82.235 C 84.769 81.749,84.520 81.090,85.407 92.000 C 85.830 97.192,85.490 96.800,89.559 96.800 C 94.223 96.800,94.053 97.104,93.602 89.576 C 92.850 77.030,92.815 76.805,91.401 75.261 L 90.132 73.877 85.533 74.538 C 83.004 74.902,80.393 75.200,79.732 75.200 L 78.529 75.200 78.020 71.200 L 77.510 67.200 73.495 67.200 L 69.479 67.200 69.751 71.300 M55.831 70.350 C 55.663 70.622,54.297 70.800,52.376 70.800 L 49.200 70.800 49.200 73.512 C 49.200 75.765,49.065 76.321,48.400 76.800 C 47.843 77.202,47.600 77.835,47.600 78.888 C 47.600 79.720,47.420 80.400,47.200 80.400 C 46.980 80.400,46.800 80.580,46.800 80.800 C 46.800 81.020,47.064 81.200,47.386 81.200 C 47.708 81.200,48.188 81.605,48.451 82.100 C 48.715 82.595,49.188 83.190,49.503 83.422 C 49.924 83.732,50.167 85.405,50.423 89.741 C 50.927 98.280,51.691 100.524,53.866 99.847 C 54.270 99.721,56.959 99.440,59.842 99.223 C 69.473 98.497,70.406 97.878,69.811 92.612 C 69.448 89.406,69.218 89.200,66.000 89.200 C 63.044 89.200,62.550 89.497,62.335 91.400 C 62.208 92.525,62.082 92.608,60.300 92.722 L 58.400 92.844 58.325 89.222 C 58.284 87.230,58.239 85.105,58.225 84.500 L 58.200 83.400 62.104 83.145 C 66.791 82.839,67.204 82.572,67.187 79.851 C 67.167 76.510,66.752 76.242,62.007 76.504 C 57.570 76.748,57.207 76.569,57.194 74.126 C 57.186 72.582,56.177 69.789,55.831 70.350 M103.000 72.795 C 94.647 73.220,94.020 73.792,94.731 80.342 C 94.985 82.684,95.406 86.902,95.667 89.715 L 96.141 94.829 97.504 95.476 C 98.926 96.151,103.464 95.931,112.714 94.740 C 116.823 94.211,118.733 91.664,117.186 88.774 C 116.561 87.607,110.711 87.627,109.707 88.800 C 109.157 89.442,108.527 89.600,106.511 89.600 L 104.000 89.600 104.000 88.400 C 104.000 87.740,104.135 87.195,104.300 87.188 C 116.650 86.708,116.800 86.616,116.800 79.559 C 116.800 71.912,117.133 72.075,103.000 72.795 M108.320 79.280 C 109.145 80.105,108.918 82.309,107.977 82.607 C 104.976 83.560,101.652 81.265,103.248 79.343 C 103.813 78.662,107.654 78.614,108.320 79.280 M318.800 82.870 C 315.390 83.055,309.990 83.341,306.800 83.504 L 301.000 83.800 300.894 95.659 L 300.788 107.518 292.361 113.829 C 286.402 118.292,283.843 119.993,283.623 119.638 C 283.453 119.362,283.204 115.955,283.070 112.068 C 282.619 98.937,281.991 86.309,281.771 85.953 C 281.488 85.495,278.467 85.504,273.868 85.977 C 271.851 86.185,267.320 86.557,263.800 86.804 C 255.057 87.419,249.869 87.968,249.542 88.312 C 249.264 88.605,249.622 95.848,250.397 105.600 C 250.633 108.570,250.998 113.610,251.209 116.800 C 251.420 119.990,251.775 125.120,251.998 128.200 C 252.221 131.280,252.582 136.410,252.800 139.600 C 253.018 142.790,253.382 147.920,253.609 151.000 C 253.836 154.080,254.193 159.120,254.402 162.200 C 254.612 165.280,254.971 170.410,255.200 173.600 C 255.428 176.790,255.795 182.010,256.014 185.200 C 257.246 203.129,257.027 201.832,258.744 201.397 C 259.813 201.127,262.394 200.655,266.400 200.000 C 267.610 199.802,269.590 199.459,270.800 199.237 C 276.429 198.207,282.757 197.121,284.309 196.918 C 285.249 196.795,286.125 196.522,286.255 196.311 C 286.724 195.553,286.268 181.034,285.191 162.426 C 284.755 154.899,284.528 155.558,288.598 152.538 C 289.919 151.558,291.303 150.507,291.674 150.204 C 294.903 147.562,294.447 146.978,298.376 158.800 C 300.168 164.190,301.791 168.960,301.983 169.400 C 302.176 169.840,302.426 170.560,302.540 171.000 C 302.654 171.440,304.031 175.490,305.601 180.000 C 307.171 184.510,308.609 188.740,308.797 189.400 C 311.096 197.469,311.770 198.240,315.335 196.872 C 316.471 196.436,318.840 195.540,320.600 194.880 C 322.360 194.220,325.690 192.955,328.000 192.069 C 330.310 191.184,332.886 190.226,333.725 189.940 C 337.077 188.800,337.967 182.900,335.618 177.400 C 335.215 176.457,333.029 170.655,332.000 167.800 C 331.604 166.700,330.722 164.315,330.040 162.500 C 329.358 160.685,328.242 157.715,327.560 155.900 C 326.878 154.085,325.961 151.610,325.521 150.400 C 325.082 149.190,324.577 147.840,324.400 147.400 C 324.223 146.960,323.683 145.520,323.200 144.200 C 322.717 142.880,322.179 141.440,322.004 141.000 C 320.562 137.373,320.000 135.843,320.000 135.542 C 320.000 135.349,319.625 134.393,319.166 133.418 C 317.943 130.815,318.104 130.573,324.036 126.114 L 329.472 122.028 329.745 113.714 C 330.594 87.809,330.718 82.991,330.544 82.710 C 330.325 82.355,327.577 82.392,318.800 82.870 M221.159 90.575 C 221.039 90.694,219.335 90.971,217.371 91.191 C 215.407 91.411,212.450 91.781,210.800 92.013 C 209.150 92.246,206.360 92.606,204.600 92.813 C 202.840 93.020,200.050 93.379,198.400 93.610 C 196.750 93.841,194.050 94.197,192.400 94.399 C 190.750 94.602,187.960 94.962,186.200 95.200 C 182.552 95.692,177.919 96.287,173.713 96.804 C 169.917 97.270,169.784 97.360,167.067 101.319 L 164.736 104.716 165.150 110.058 C 165.379 112.996,165.757 118.460,165.991 122.200 C 166.225 125.940,166.602 131.970,166.828 135.600 C 167.055 139.230,167.434 144.493,167.670 147.294 L 168.099 152.389 171.262 155.486 C 175.294 159.433,174.098 159.065,183.800 159.336 C 207.195 159.989,218.591 160.433,218.848 160.702 C 219.005 160.866,219.329 164.780,219.570 169.400 C 220.085 179.282,220.383 178.617,215.269 178.979 C 213.361 179.114,210.450 179.389,208.800 179.591 C 198.070 180.899,198.202 180.933,197.208 176.600 C 195.466 169.002,195.152 168.190,193.991 168.261 C 193.446 168.294,190.030 168.540,186.400 168.807 C 182.770 169.074,177.880 169.407,175.533 169.546 C 173.185 169.686,171.115 169.950,170.933 170.133 C 170.750 170.316,170.542 176.661,170.472 184.232 L 170.344 197.999 172.802 202.309 C 176.689 209.125,175.714 208.520,182.020 208.027 C 184.979 207.795,189.470 207.420,192.000 207.192 C 194.530 206.965,198.670 206.605,201.200 206.392 C 203.730 206.179,207.870 205.819,210.400 205.592 C 212.930 205.365,217.070 205.000,219.600 204.781 C 222.130 204.562,226.180 204.209,228.600 203.997 C 231.020 203.785,234.530 203.508,236.400 203.381 C 238.270 203.253,240.220 203.064,240.733 202.959 C 241.540 202.794,248.966 195.549,249.645 194.263 C 249.889 193.801,249.623 187.163,248.800 173.200 C 248.560 169.130,248.220 162.719,248.046 158.953 L 247.728 152.105 246.195 149.353 C 245.351 147.839,244.305 145.970,243.870 145.200 C 243.435 144.430,242.521 142.792,241.839 141.561 C 239.367 137.094,241.751 137.612,222.600 137.380 C 213.360 137.267,203.595 137.073,200.900 136.947 L 196.000 136.719 196.000 128.783 C 196.000 119.963,195.814 120.487,199.114 119.992 C 202.432 119.495,208.652 118.474,211.224 118.006 C 214.493 117.410,214.755 117.466,215.374 118.900 C 215.683 119.615,216.310 121.053,216.768 122.096 C 217.225 123.138,217.600 124.176,217.600 124.401 C 217.600 125.444,219.507 128.609,220.082 128.520 C 220.367 128.475,222.400 128.234,224.600 127.984 C 226.800 127.734,229.860 127.363,231.400 127.159 C 232.940 126.955,235.260 126.674,236.555 126.534 C 238.774 126.294,239.061 126.133,241.527 123.750 L 244.145 121.221 243.647 117.310 C 243.159 113.483,242.702 110.017,241.997 104.800 C 241.803 103.370,241.427 100.476,241.161 98.369 L 240.677 94.538 239.038 94.106 C 238.137 93.869,236.320 93.463,235.000 93.205 C 233.680 92.946,231.880 92.573,231.000 92.374 C 230.120 92.176,227.960 91.731,226.200 91.386 C 224.440 91.041,222.635 90.668,222.188 90.558 C 221.741 90.448,221.278 90.455,221.159 90.575 M150.764 98.569 C 150.611 98.722,147.350 98.995,133.871 99.981 C 128.383 100.383,128.671 99.973,129.176 106.642 C 129.407 109.699,129.597 114.123,129.598 116.474 C 129.601 122.102,129.737 122.387,133.481 124.568 C 136.942 126.585,138.122 126.752,143.684 126.012 C 145.288 125.799,147.810 125.515,149.289 125.381 C 151.892 125.146,152.053 125.067,154.344 122.869 C 157.015 120.309,156.715 121.472,157.608 110.200 C 157.817 107.560,158.097 104.665,158.230 103.767 C 158.677 100.739,152.732 96.601,150.764 98.569 M85.800 103.620 C 80.520 103.770,69.990 103.940,62.400 104.000 C 54.810 104.060,46.440 104.219,43.800 104.354 L 39.000 104.600 39.081 107.600 C 39.158 110.449,39.556 116.158,40.392 126.400 C 41.221 136.564,41.594 141.253,41.999 146.600 C 42.232 149.680,42.593 154.270,42.801 156.800 C 43.009 159.330,43.369 163.920,43.601 167.000 C 43.833 170.080,44.191 174.670,44.396 177.200 C 44.601 179.730,44.963 184.410,45.199 187.600 C 45.435 190.790,45.793 195.380,45.995 197.800 C 46.197 200.220,46.557 204.900,46.795 208.200 C 47.033 211.500,47.356 215.010,47.514 216.000 L 47.800 217.800 49.400 217.698 C 50.909 217.602,53.159 217.277,58.500 216.384 C 62.271 215.754,65.224 215.277,68.400 214.786 C 70.050 214.531,72.480 214.102,73.800 213.833 L 76.200 213.345 76.092 205.372 C 76.033 200.988,75.876 195.303,75.743 192.740 C 75.462 187.300,75.353 187.456,79.698 187.070 C 81.580 186.903,82.522 186.977,82.809 187.315 C 83.251 187.834,91.261 200.030,96.788 208.600 C 100.390 214.185,100.683 214.522,101.600 214.145 C 102.487 213.781,118.010 208.388,119.349 207.979 C 121.395 207.354,122.266 206.501,123.194 204.216 L 124.103 201.974 122.852 199.960 C 122.163 198.853,121.600 197.872,121.600 197.780 C 121.600 197.688,119.953 194.865,117.940 191.506 C 113.942 184.835,112.800 182.860,112.800 182.617 C 112.800 182.529,113.835 182.244,115.100 181.984 C 120.169 180.939,119.804 181.253,122.461 175.672 C 124.551 171.283,124.833 170.414,124.627 169.012 C 124.403 167.492,124.049 163.359,123.188 152.200 C 122.985 149.560,122.630 145.150,122.401 142.400 C 122.171 139.650,121.814 135.150,121.607 132.400 C 121.400 129.650,121.032 125.150,120.789 122.400 C 120.546 119.650,120.211 115.349,120.045 112.842 C 119.772 108.712,119.655 108.212,118.791 107.513 C 118.267 107.088,116.939 105.944,115.839 104.971 L 113.839 103.200 104.620 103.275 C 99.549 103.315,91.080 103.471,85.800 103.620 M86.642 127.060 L 91.084 127.316 91.526 132.358 C 91.769 135.131,92.162 140.190,92.398 143.600 C 92.634 147.010,93.008 151.742,93.228 154.116 C 93.693 159.137,93.730 159.023,91.509 159.329 C 88.785 159.704,84.416 160.358,81.600 160.812 C 80.170 161.042,77.985 161.337,76.744 161.467 L 74.488 161.703 74.237 160.152 C 74.099 159.298,73.813 155.090,73.601 150.800 C 73.389 146.510,73.027 139.588,72.797 135.418 C 72.566 131.248,72.467 127.603,72.576 127.318 C 72.801 126.732,78.991 126.619,86.642 127.060 M154.600 127.655 C 152.620 127.841,148.570 128.180,145.600 128.408 C 136.313 129.120,130.611 129.697,130.322 129.953 C 130.170 130.089,130.215 132.810,130.423 136.000 C 131.144 147.076,131.577 153.431,131.991 159.000 C 132.220 162.080,132.584 167.300,132.800 170.600 C 133.016 173.900,133.380 179.120,133.608 182.200 C 134.179 189.908,134.715 197.801,135.006 202.800 C 135.401 209.579,135.080 209.285,141.123 208.414 C 144.848 207.878,149.135 207.315,153.600 206.775 C 158.478 206.186,161.547 205.619,161.732 205.273 C 161.889 204.978,161.499 189.521,160.818 169.000 C 160.585 161.960,160.217 149.921,160.001 142.246 C 159.631 129.119,159.416 127.034,158.451 127.258 C 158.313 127.291,156.580 127.469,154.600 127.655 M343.012 198.300 C 338.398 198.364,334.494 198.548,334.336 198.708 C 334.054 198.994,334.364 205.475,335.191 216.600 C 335.420 219.680,335.783 224.810,335.996 228.000 C 336.210 231.190,336.572 236.410,336.800 239.600 C 337.029 242.790,337.385 247.920,337.591 251.000 C 338.617 266.375,338.824 269.088,339.046 270.153 L 339.287 271.306 343.943 271.061 C 346.505 270.925,350.850 270.636,353.600 270.418 C 366.929 269.360,369.377 269.171,374.393 268.812 C 377.868 268.563,379.923 268.563,380.173 268.813 C 380.684 269.324,383.600 269.313,383.600 268.800 C 383.600 268.580,384.140 268.400,384.800 268.400 C 385.867 268.400,386.000 268.267,386.000 267.200 C 386.000 266.540,385.820 266.000,385.600 266.000 C 385.380 266.000,385.200 265.021,385.200 263.824 C 385.200 262.627,385.020 261.536,384.800 261.400 C 384.580 261.264,384.400 260.733,384.400 260.219 C 384.400 259.706,384.156 259.192,383.857 259.077 C 383.559 258.963,383.201 258.179,383.061 257.335 C 381.836 249.917,383.384 250.585,369.800 251.605 C 366.940 251.820,362.893 252.042,360.806 252.098 L 357.012 252.200 356.725 250.000 C 356.459 247.967,356.220 244.280,355.196 226.400 C 354.988 222.770,354.632 216.920,354.405 213.400 C 354.178 209.880,353.878 205.079,353.738 202.731 C 353.487 198.518,353.013 197.490,351.600 198.097 C 351.490 198.144,347.625 198.235,343.012 198.300 M270.453 204.328 C 268.832 206.018,267.284 207.760,267.014 208.200 C 266.629 208.827,266.603 214.615,266.892 235.000 C 267.306 264.076,267.002 261.352,270.000 262.892 C 270.550 263.174,271.839 263.907,272.864 264.520 L 274.728 265.634 294.864 265.220 C 305.939 264.992,316.743 264.804,318.873 264.803 L 322.746 264.800 325.298 260.500 C 328.544 255.031,328.449 255.341,327.988 251.705 C 327.387 246.962,328.012 247.400,321.095 246.877 C 306.417 245.768,307.442 245.654,305.984 248.559 L 305.402 249.718 299.001 249.453 C 295.480 249.308,291.970 249.048,291.200 248.875 L 289.800 248.562 289.940 245.381 C 290.128 241.099,288.770 241.391,305.750 241.982 L 320.721 242.504 323.860 240.346 L 327.000 238.189 327.280 235.994 C 327.433 234.787,327.747 230.740,327.976 227.000 C 328.205 223.260,328.570 217.548,328.786 214.307 C 329.264 207.155,329.583 207.936,324.921 204.855 L 321.070 202.310 310.235 201.982 C 304.276 201.801,293.550 201.564,286.400 201.455 L 273.400 201.257 270.453 204.328 M254.749 204.984 C 254.648 205.085,252.645 205.350,250.299 205.572 C 244.416 206.130,244.361 206.151,243.100 208.421 C 241.766 210.821,241.588 210.839,239.919 208.749 L 238.600 207.098 234.600 207.352 C 229.272 207.689,220.984 208.284,214.600 208.787 C 211.740 209.012,206.479 209.381,202.910 209.607 C 199.340 209.833,196.070 210.149,195.643 210.309 C 194.475 210.746,186.805 221.597,186.814 222.800 C 186.822 223.986,187.419 230.028,188.000 234.800 C 188.228 236.670,188.595 239.910,188.817 242.000 C 189.038 244.090,189.395 247.375,189.610 249.300 C 189.824 251.225,190.180 254.420,190.400 256.400 C 190.620 258.380,190.976 261.575,191.190 263.500 C 191.405 265.425,191.762 268.710,191.984 270.800 C 193.197 282.201,192.601 280.716,197.600 284.802 C 198.810 285.791,200.160 286.927,200.600 287.327 C 201.173 287.848,201.741 287.985,202.600 287.807 C 203.805 287.558,207.055 287.124,213.000 286.418 C 214.760 286.209,217.640 285.835,219.400 285.586 C 221.160 285.337,223.860 284.981,225.400 284.794 C 226.940 284.607,229.910 284.228,232.000 283.952 C 234.090 283.675,236.520 283.438,237.400 283.425 L 239.000 283.400 239.302 286.200 C 240.463 296.973,240.641 296.239,236.727 296.844 C 230.584 297.795,223.501 298.861,223.200 298.881 C 222.332 298.939,221.933 298.323,220.560 294.800 L 219.001 290.800 217.601 290.817 C 215.034 290.849,199.446 292.323,198.100 292.661 C 195.830 293.231,194.801 296.913,194.800 304.469 L 194.800 311.137 198.442 315.969 L 202.083 320.800 204.342 320.803 C 205.584 320.804,208.850 320.630,211.600 320.415 C 214.350 320.200,220.290 319.832,224.800 319.596 C 229.310 319.360,235.430 318.999,238.400 318.795 C 241.370 318.590,247.670 318.211,252.400 317.951 L 261.000 317.480 264.946 313.640 L 268.892 309.800 268.637 305.000 C 268.496 302.360,268.206 297.950,267.992 295.200 C 267.778 292.450,267.426 287.770,267.210 284.800 C 266.994 281.830,266.630 276.880,266.400 273.800 C 266.170 270.720,265.808 265.770,265.594 262.800 C 265.381 259.830,265.020 255.060,264.792 252.200 C 264.565 249.340,264.203 244.525,263.989 241.500 C 263.775 238.475,263.413 233.435,263.185 230.300 C 262.957 227.165,262.607 222.350,262.407 219.600 C 262.206 216.850,261.932 212.800,261.796 210.600 C 261.410 204.343,261.704 204.800,258.059 204.800 C 256.340 204.800,254.850 204.883,254.749 204.984 M168.200 213.616 C 166.880 213.785,164.180 214.120,162.200 214.361 C 160.220 214.601,157.160 214.985,155.400 215.212 C 153.640 215.440,150.760 215.795,149.000 216.000 C 147.240 216.205,144.360 216.559,142.600 216.786 C 140.840 217.013,138.140 217.314,136.600 217.454 C 133.060 217.777,132.900 217.867,131.024 220.591 L 129.468 222.851 129.929 233.725 C 130.183 239.706,130.583 249.910,130.818 256.400 C 131.054 262.890,131.461 273.330,131.723 279.600 L 132.200 291.000 133.200 290.965 C 133.750 290.945,136.450 290.704,139.200 290.429 C 141.950 290.154,145.280 289.834,146.600 289.717 C 150.355 289.386,150.161 290.065,149.860 278.351 C 149.566 266.918,149.447 267.447,152.400 267.083 C 153.390 266.961,155.730 266.634,157.600 266.357 C 159.470 266.079,161.810 265.840,162.800 265.826 L 164.600 265.800 164.857 268.800 C 164.998 270.450,165.319 273.690,165.571 276.000 C 165.823 278.310,166.176 281.875,166.357 283.922 C 166.804 288.995,165.246 288.628,180.344 287.214 C 186.853 286.605,186.460 287.462,185.207 276.600 C 185.004 274.840,184.643 271.330,184.406 268.800 C 184.168 266.270,183.808 262.580,183.606 260.600 C 182.241 247.194,181.863 243.406,181.192 236.400 C 180.949 233.870,180.582 230.488,180.375 228.884 C 180.169 227.280,180.000 225.176,180.000 224.210 C 180.000 221.705,179.577 220.850,176.337 216.803 C 173.121 212.787,173.507 212.938,168.200 213.616 M299.995 219.126 L 304.991 219.400 305.308 221.600 C 305.969 226.177,305.541 230.205,304.400 230.161 C 302.222 230.077,292.123 229.169,290.900 228.947 L 289.600 228.711 289.600 223.822 C 289.600 218.081,289.392 218.449,292.519 218.674 C 293.884 218.772,297.248 218.976,299.995 219.126 M100.767 220.963 C 100.675 221.053,92.500 221.346,82.600 221.613 C 72.700 221.880,61.090 222.212,56.800 222.349 L 49.000 222.600 48.853 223.800 C 48.773 224.460,48.916 227.880,49.172 231.400 C 49.690 238.511,50.169 245.248,50.788 254.100 C 51.014 257.345,51.387 262.655,51.615 265.900 C 52.917 284.445,53.426 291.802,54.001 300.400 C 54.229 303.810,54.586 308.850,54.794 311.600 C 55.003 314.350,55.288 318.436,55.428 320.681 C 55.765 326.060,55.729 326.023,60.200 325.568 C 62.180 325.366,65.600 325.021,67.800 324.802 C 70.000 324.582,73.510 324.221,75.600 324.000 C 77.690 323.779,81.200 323.419,83.400 323.200 C 85.600 322.981,89.110 322.617,91.200 322.389 C 93.290 322.162,96.620 321.812,98.600 321.611 C 100.580 321.410,104.090 321.045,106.400 320.798 C 108.710 320.552,112.168 320.210,114.085 320.038 L 117.570 319.725 120.631 316.962 C 122.315 315.443,124.329 313.640,125.108 312.954 L 126.523 311.709 126.266 306.954 C 126.125 304.340,125.820 299.140,125.589 295.400 C 125.357 291.660,125.027 285.817,124.854 282.415 L 124.539 276.231 121.069 273.009 C 117.134 269.355,117.183 269.489,118.800 266.862 C 120.133 264.695,120.337 262.435,119.615 257.846 C 119.403 256.501,119.034 253.780,118.794 251.800 C 118.555 249.820,118.200 246.940,118.005 245.400 C 117.811 243.860,117.448 240.800,117.199 238.600 C 116.163 229.442,116.372 229.891,110.062 223.300 L 107.668 220.800 104.301 220.800 C 102.449 220.800,100.858 220.874,100.767 220.963 M234.883 234.000 C 235.038 235.870,235.361 240.370,235.601 244.000 C 235.840 247.630,236.218 252.575,236.440 254.989 C 236.919 260.196,236.907 260.216,232.861 260.592 C 230.140 260.845,227.393 261.209,221.880 262.046 C 217.996 262.636,217.969 262.612,217.561 258.120 C 217.385 256.184,217.046 252.710,216.809 250.400 C 216.380 246.234,215.888 241.241,215.363 235.741 L 215.091 232.882 217.245 232.461 C 218.430 232.230,221.020 231.831,223.000 231.576 C 224.980 231.321,227.410 230.968,228.400 230.792 C 229.390 230.616,231.190 230.501,232.400 230.536 L 234.600 230.600 234.883 234.000 M161.676 235.800 C 161.827 237.340,162.148 240.400,162.389 242.600 C 162.629 244.800,162.935 247.635,163.069 248.900 L 163.311 251.200 156.499 251.200 L 149.687 251.200 149.395 243.400 C 149.049 234.175,148.797 234.725,153.682 234.037 C 155.727 233.749,157.940 233.366,158.600 233.186 C 161.104 232.501,161.373 232.730,161.676 235.800 M87.400 241.416 C 93.073 241.780,92.610 241.436,93.168 245.693 C 93.435 247.732,93.813 250.570,94.008 252.000 C 94.203 253.430,94.479 256.024,94.621 257.764 L 94.880 260.927 89.540 260.618 C 86.603 260.448,82.580 260.195,80.600 260.055 L 77.000 259.800 76.722 257.200 C 76.298 253.224,75.580 246.095,75.317 243.241 L 75.081 240.681 79.440 240.933 C 81.838 241.072,85.420 241.289,87.400 241.416 M84.516 278.771 C 86.542 278.974,90.668 279.367,93.684 279.643 C 100.215 280.241,99.503 278.991,99.676 290.164 L 99.800 298.127 97.600 298.688 C 96.390 298.997,94.770 299.417,94.000 299.621 C 85.335 301.919,80.427 302.812,80.380 302.100 C 80.055 297.121,79.543 289.685,79.210 285.077 C 78.663 277.514,78.145 278.130,84.516 278.771 M180.200 293.645 C 178.220 294.059,175.610 294.592,174.400 294.831 C 173.190 295.070,171.480 295.416,170.600 295.601 C 169.720 295.785,167.920 296.137,166.600 296.382 C 165.280 296.627,163.480 296.991,162.600 297.190 C 161.720 297.389,158.930 297.939,156.400 298.411 C 153.870 298.884,150.000 299.615,147.800 300.036 C 145.600 300.457,142.810 300.987,141.600 301.215 C 140.390 301.442,138.680 301.793,137.800 301.994 C 136.920 302.194,135.525 302.466,134.700 302.598 C 133.603 302.772,133.200 303.032,133.200 303.565 C 133.200 304.236,135.516 311.956,136.480 314.500 C 136.978 315.813,136.929 315.811,143.000 314.792 C 145.640 314.349,148.880 313.818,150.200 313.613 C 151.520 313.408,153.680 313.048,155.000 312.814 C 156.320 312.580,158.480 312.220,159.800 312.014 C 161.120 311.808,163.280 311.448,164.600 311.214 C 165.920 310.980,168.080 310.623,169.400 310.421 C 170.720 310.218,173.420 309.777,175.400 309.439 C 177.380 309.102,180.260 308.616,181.800 308.361 C 189.689 307.050,189.317 307.329,188.412 303.400 C 185.617 291.258,186.515 292.326,180.200 293.645 " stroke="none" fill="#070404" fill-rule="evenodd"></path><path id="path1" d="M195.000 6.400 C 194.853 6.639,192.270 6.800,188.600 6.800 C 184.930 6.800,182.347 6.961,182.200 7.200 C 182.064 7.421,180.270 7.600,178.200 7.600 C 176.130 7.600,174.336 7.779,174.200 8.000 C 174.064 8.220,172.894 8.400,171.600 8.400 C 170.306 8.400,169.136 8.580,169.000 8.800 C 168.864 9.020,167.694 9.200,166.400 9.200 C 165.106 9.200,163.936 9.380,163.800 9.600 C 163.664 9.820,162.764 10.000,161.800 10.000 C 160.836 10.000,159.936 10.180,159.800 10.400 C 159.664 10.620,158.854 10.800,158.000 10.800 C 157.146 10.800,156.336 10.980,156.200 11.200 C 156.064 11.420,155.344 11.600,154.600 11.600 C 153.856 11.600,153.136 11.780,153.000 12.000 C 152.864 12.220,152.133 12.400,151.376 12.400 C 150.619 12.400,150.000 12.580,150.000 12.800 C 150.000 13.020,149.280 13.200,148.400 13.200 C 147.520 13.200,146.800 13.380,146.800 13.600 C 146.800 13.820,146.260 14.000,145.600 14.000 C 144.940 14.000,144.400 14.180,144.400 14.400 C 144.400 14.620,143.781 14.800,143.024 14.800 C 142.267 14.800,141.536 14.980,141.400 15.200 C 141.264 15.420,140.623 15.600,139.976 15.600 C 139.329 15.600,138.800 15.780,138.800 16.000 C 138.800 16.220,138.260 16.400,137.600 16.400 C 136.940 16.400,136.400 16.580,136.400 16.800 C 136.400 17.020,135.961 17.200,135.424 17.200 C 134.887 17.200,134.336 17.380,134.200 17.600 C 134.064 17.820,133.603 18.000,133.176 18.000 C 132.749 18.000,132.400 18.180,132.400 18.400 C 132.400 18.620,131.860 18.800,131.200 18.800 C 130.540 18.800,130.000 18.980,130.000 19.200 C 130.000 19.420,129.561 19.600,129.024 19.600 C 128.487 19.600,127.936 19.780,127.800 20.000 C 127.664 20.220,127.203 20.400,126.776 20.400 C 126.349 20.400,126.000 20.580,126.000 20.800 C 126.000 21.020,125.640 21.200,125.200 21.200 C 124.760 21.200,124.400 21.380,124.400 21.600 C 124.400 21.820,123.860 22.000,123.200 22.000 C 122.540 22.000,122.000 22.180,122.000 22.400 C 122.000 22.620,121.640 22.800,121.200 22.800 C 120.760 22.800,120.400 22.980,120.400 23.200 C 120.400 23.420,120.040 23.600,119.600 23.600 C 119.160 23.600,118.800 23.780,118.800 24.000 C 118.800 24.220,118.440 24.400,118.000 24.400 C 117.560 24.400,117.200 24.580,117.200 24.800 C 117.200 25.020,116.840 25.200,116.400 25.200 C 115.960 25.200,115.600 25.380,115.600 25.600 C 115.600 25.820,115.265 26.000,114.856 26.000 C 113.944 26.000,109.200 28.405,109.200 28.867 C 109.200 29.050,108.840 29.200,108.400 29.200 C 107.960 29.200,107.600 29.380,107.600 29.600 C 107.600 29.820,107.240 30.000,106.800 30.000 C 106.360 30.000,106.000 30.180,106.000 30.400 C 106.000 30.620,105.640 30.800,105.200 30.800 C 104.760 30.800,104.400 30.980,104.400 31.200 C 104.400 31.420,104.080 31.600,103.688 31.600 C 103.297 31.600,102.717 31.960,102.400 32.400 C 102.083 32.840,101.503 33.200,101.112 33.200 C 100.720 33.200,100.400 33.380,100.400 33.600 C 100.400 33.820,100.080 34.000,99.688 34.000 C 99.297 34.000,98.717 34.360,98.400 34.800 C 98.083 35.240,97.503 35.600,97.112 35.600 C 96.720 35.600,96.400 35.750,96.400 35.932 C 96.400 36.115,95.905 36.520,95.300 36.832 C 94.695 37.145,93.851 37.715,93.425 38.100 C 92.998 38.485,92.453 38.800,92.213 38.800 C 91.973 38.800,91.517 39.160,91.200 39.600 C 90.883 40.040,90.343 40.400,90.000 40.400 C 89.657 40.400,89.117 40.760,88.800 41.200 C 88.483 41.640,87.943 42.000,87.600 42.000 C 87.257 42.000,86.717 42.360,86.400 42.800 C 86.083 43.240,85.615 43.600,85.360 43.600 C 85.105 43.600,84.155 44.320,83.248 45.200 C 82.341 46.080,81.402 46.800,81.160 46.800 C 80.919 46.800,80.217 47.340,79.600 48.000 C 78.983 48.660,78.299 49.200,78.080 49.200 C 77.861 49.200,76.762 50.100,75.639 51.200 C 74.515 52.300,73.424 53.200,73.214 53.200 C 71.824 53.200,56.328 69.710,56.574 70.930 C 56.715 71.628,56.966 73.011,57.131 74.002 C 57.594 76.779,57.537 76.750,62.013 76.503 C 66.752 76.242,67.167 76.511,67.187 79.851 C 67.204 82.572,66.791 82.839,62.104 83.145 L 58.200 83.400 58.225 84.500 C 58.239 85.105,58.284 87.230,58.325 89.222 L 58.400 92.844 60.300 92.722 C 62.082 92.608,62.208 92.525,62.335 91.400 C 62.550 89.497,63.044 89.200,66.000 89.200 C 69.218 89.200,69.448 89.406,69.811 92.612 C 70.406 97.878,69.473 98.497,59.842 99.223 C 56.959 99.440,54.270 99.721,53.866 99.847 C 51.691 100.524,50.927 98.280,50.423 89.741 C 50.167 85.405,49.924 83.732,49.503 83.422 C 49.188 83.190,48.715 82.595,48.451 82.100 C 47.896 81.058,46.000 80.828,46.000 81.804 C 46.000 82.136,45.460 82.972,44.800 83.663 C 44.140 84.354,43.600 85.122,43.600 85.371 C 43.600 85.620,43.240 86.083,42.800 86.400 C 42.360 86.717,42.000 87.209,42.000 87.492 C 42.000 87.775,41.460 88.572,40.800 89.263 C 40.140 89.954,39.600 90.762,39.600 91.059 C 39.600 91.357,39.450 91.600,39.268 91.600 C 39.085 91.600,38.680 92.095,38.368 92.700 C 38.055 93.305,37.485 94.149,37.100 94.575 C 36.715 95.002,36.400 95.587,36.400 95.875 C 36.400 96.164,36.220 96.400,36.000 96.400 C 35.780 96.400,35.600 96.720,35.600 97.112 C 35.600 97.503,35.240 98.083,34.800 98.400 C 34.360 98.717,34.000 99.297,34.000 99.688 C 34.000 100.080,33.820 100.400,33.600 100.400 C 33.380 100.400,33.200 100.720,33.200 101.112 C 33.200 101.503,32.840 102.083,32.400 102.400 C 31.960 102.717,31.600 103.297,31.600 103.688 C 31.600 104.080,31.420 104.400,31.200 104.400 C 30.980 104.400,30.800 104.760,30.800 105.200 C 30.800 105.640,30.620 106.000,30.400 106.000 C 30.180 106.000,30.000 106.360,30.000 106.800 C 30.000 107.240,29.820 107.600,29.600 107.600 C 29.380 107.600,29.200 107.960,29.200 108.400 C 29.200 108.840,29.047 109.200,28.860 109.200 C 28.673 109.200,27.934 110.415,27.218 111.900 C 26.502 113.385,25.755 114.913,25.558 115.295 C 25.361 115.677,25.200 116.262,25.200 116.595 C 25.200 116.928,25.020 117.200,24.800 117.200 C 24.580 117.200,24.400 117.560,24.400 118.000 C 24.400 118.440,24.220 118.800,24.000 118.800 C 23.780 118.800,23.600 119.160,23.600 119.600 C 23.600 120.040,23.420 120.400,23.200 120.400 C 22.980 120.400,22.800 120.760,22.800 121.200 C 22.800 121.640,22.620 122.000,22.400 122.000 C 22.180 122.000,22.000 122.439,22.000 122.976 C 22.000 123.513,21.820 124.064,21.600 124.200 C 21.380 124.336,21.200 124.797,21.200 125.224 C 21.200 125.651,21.020 126.000,20.800 126.000 C 20.580 126.000,20.400 126.349,20.400 126.776 C 20.400 127.203,20.220 127.664,20.000 127.800 C 19.780 127.936,19.600 128.487,19.600 129.024 C 19.600 129.561,19.420 130.000,19.200 130.000 C 18.980 130.000,18.800 130.349,18.800 130.776 C 18.800 131.203,18.620 131.664,18.400 131.800 C 18.180 131.936,18.000 132.487,18.000 133.024 C 18.000 133.561,17.820 134.000,17.600 134.000 C 17.380 134.000,17.200 134.540,17.200 135.200 C 17.200 135.860,17.020 136.400,16.800 136.400 C 16.580 136.400,16.400 136.940,16.400 137.600 C 16.400 138.260,16.220 138.800,16.000 138.800 C 15.780 138.800,15.600 139.340,15.600 140.000 C 15.600 140.660,15.420 141.200,15.200 141.200 C 14.980 141.200,14.800 141.920,14.800 142.800 C 14.800 143.680,14.620 144.400,14.400 144.400 C 14.180 144.400,14.000 144.940,14.000 145.600 C 14.000 146.260,13.820 146.800,13.600 146.800 C 13.380 146.800,13.200 147.419,13.200 148.176 C 13.200 148.933,13.020 149.664,12.800 149.800 C 12.580 149.936,12.400 150.757,12.400 151.624 C 12.400 152.491,12.220 153.200,12.000 153.200 C 11.780 153.200,11.600 153.920,11.600 154.800 C 11.600 155.680,11.420 156.400,11.200 156.400 C 10.980 156.400,10.800 157.120,10.800 158.000 C 10.800 158.880,10.620 159.600,10.400 159.600 C 10.180 159.600,10.000 160.489,10.000 161.576 C 10.000 162.663,9.820 163.664,9.600 163.800 C 9.380 163.936,9.200 165.027,9.200 166.224 C 9.200 167.421,9.020 168.400,8.800 168.400 C 8.578 168.400,8.400 169.459,8.400 170.776 C 8.400 172.083,8.220 173.264,8.000 173.400 C 7.780 173.536,7.600 175.156,7.600 177.000 C 7.600 178.844,7.420 180.464,7.200 180.600 C 6.963 180.746,6.800 183.196,6.800 186.600 C 6.800 190.004,6.637 192.454,6.400 192.600 C 5.863 192.932,5.863 206.268,6.400 206.600 C 6.636 206.746,6.800 209.130,6.800 212.400 C 6.800 215.670,6.964 218.054,7.200 218.200 C 7.423 218.338,7.600 220.196,7.600 222.400 C 7.600 224.604,7.777 226.462,8.000 226.600 C 8.220 226.736,8.400 227.917,8.400 229.224 C 8.400 230.541,8.578 231.600,8.800 231.600 C 9.022 231.600,9.200 232.667,9.200 234.000 C 9.200 235.333,9.378 236.400,9.600 236.400 C 9.820 236.400,10.000 237.300,10.000 238.400 C 10.000 239.500,10.180 240.400,10.400 240.400 C 10.620 240.400,10.800 241.300,10.800 242.400 C 10.800 243.500,10.980 244.400,11.200 244.400 C 11.420 244.400,11.600 244.929,11.600 245.576 C 11.600 246.223,11.780 246.864,12.000 247.000 C 12.220 247.136,12.400 247.867,12.400 248.624 C 12.400 249.381,12.580 250.000,12.800 250.000 C 13.020 250.000,13.200 250.720,13.200 251.600 C 13.200 252.480,13.380 253.200,13.600 253.200 C 13.820 253.200,14.000 253.740,14.000 254.400 C 14.000 255.060,14.180 255.600,14.400 255.600 C 14.620 255.600,14.800 256.320,14.800 257.200 C 14.800 258.080,14.980 258.800,15.200 258.800 C 15.420 258.800,15.600 259.340,15.600 260.000 C 15.600 260.660,15.780 261.200,16.000 261.200 C 16.220 261.200,16.400 261.740,16.400 262.400 C 16.400 263.060,16.580 263.600,16.800 263.600 C 17.020 263.600,17.200 264.039,17.200 264.576 C 17.200 265.113,17.380 265.664,17.600 265.800 C 17.820 265.936,18.000 266.397,18.000 266.824 C 18.000 267.251,18.180 267.600,18.400 267.600 C 18.620 267.600,18.800 268.140,18.800 268.800 C 18.800 269.460,18.980 270.000,19.200 270.000 C 19.420 270.000,19.600 270.439,19.600 270.976 C 19.600 271.513,19.780 272.064,20.000 272.200 C 20.220 272.336,20.400 272.797,20.400 273.224 C 20.400 273.651,20.580 274.000,20.800 274.000 C 21.020 274.000,21.200 274.360,21.200 274.800 C 21.200 275.240,21.380 275.600,21.600 275.600 C 21.820 275.600,22.000 276.140,22.000 276.800 C 22.000 277.460,22.180 278.000,22.400 278.000 C 22.620 278.000,22.800 278.360,22.800 278.800 C 22.800 279.240,22.980 279.600,23.200 279.600 C 23.420 279.600,23.600 279.960,23.600 280.400 C 23.600 280.840,23.780 281.200,24.000 281.200 C 24.220 281.200,24.400 281.560,24.400 282.000 C 24.400 282.440,24.580 282.800,24.800 282.800 C 25.020 282.800,25.200 283.160,25.200 283.600 C 25.200 284.040,25.380 284.400,25.600 284.400 C 25.820 284.400,26.000 284.760,26.000 285.200 C 26.000 285.640,26.180 286.000,26.400 286.000 C 26.620 286.000,26.800 286.416,26.800 286.925 C 26.800 287.433,27.160 288.236,27.600 288.708 C 28.040 289.180,28.400 289.844,28.400 290.183 C 28.400 290.522,28.580 290.800,28.800 290.800 C 29.020 290.800,29.200 291.160,29.200 291.600 C 29.200 292.040,29.380 292.400,29.600 292.400 C 29.820 292.400,30.000 292.760,30.000 293.200 C 30.000 293.640,30.180 294.000,30.400 294.000 C 30.620 294.000,30.800 294.360,30.800 294.800 C 30.800 295.240,30.980 295.600,31.200 295.600 C 31.420 295.600,31.600 295.920,31.600 296.312 C 31.600 296.703,31.960 297.283,32.400 297.600 C 32.840 297.917,33.200 298.497,33.200 298.888 C 33.200 299.280,33.380 299.600,33.600 299.600 C 33.820 299.600,34.000 299.836,34.000 300.125 C 34.000 300.413,34.360 301.036,34.800 301.508 C 35.240 301.980,35.600 302.644,35.600 302.983 C 35.600 303.322,35.750 303.600,35.932 303.600 C 36.115 303.600,36.519 304.095,36.830 304.700 C 37.140 305.305,37.711 306.091,38.097 306.447 C 38.484 306.803,38.800 307.348,38.800 307.659 C 38.800 307.969,39.160 308.483,39.600 308.800 C 40.040 309.117,40.400 309.657,40.400 310.000 C 40.400 310.343,40.760 310.883,41.200 311.200 C 41.640 311.517,42.000 312.057,42.000 312.400 C 42.000 312.743,42.360 313.283,42.800 313.600 C 43.240 313.917,43.600 314.380,43.600 314.629 C 43.600 314.878,44.140 315.646,44.800 316.337 C 45.460 317.028,46.000 317.792,46.000 318.036 C 46.000 318.280,46.540 318.983,47.200 319.600 C 47.860 320.217,48.400 320.901,48.400 321.120 C 48.400 321.339,49.300 322.438,50.400 323.561 C 51.500 324.685,52.400 325.790,52.400 326.016 C 52.400 326.549,72.660 346.800,73.193 346.800 C 73.415 346.800,74.515 347.700,75.639 348.800 C 76.762 349.900,77.843 350.800,78.040 350.800 C 78.238 350.800,79.141 351.520,80.048 352.400 C 80.955 353.280,81.856 354.000,82.052 354.000 C 82.247 354.000,82.972 354.540,83.663 355.200 C 84.354 355.860,85.122 356.400,85.371 356.400 C 85.620 356.400,86.083 356.760,86.400 357.200 C 86.717 357.640,87.209 358.000,87.492 358.000 C 87.775 358.000,88.572 358.540,89.263 359.200 C 89.954 359.860,90.679 360.400,90.876 360.400 C 91.073 360.400,91.620 360.760,92.092 361.200 C 92.564 361.640,93.187 362.000,93.475 362.000 C 93.764 362.000,94.000 362.180,94.000 362.400 C 94.000 362.620,94.236 362.800,94.525 362.800 C 94.813 362.800,95.436 363.160,95.908 363.600 C 96.380 364.040,97.004 364.400,97.295 364.400 C 97.586 364.400,98.083 364.760,98.400 365.200 C 98.717 365.640,99.297 366.000,99.688 366.000 C 100.080 366.000,100.400 366.180,100.400 366.400 C 100.400 366.620,100.678 366.800,101.017 366.800 C 101.356 366.800,102.020 367.160,102.492 367.600 C 102.964 368.040,103.587 368.400,103.875 368.400 C 104.164 368.400,104.400 368.580,104.400 368.800 C 104.400 369.020,104.760 369.200,105.200 369.200 C 105.640 369.200,106.000 369.380,106.000 369.600 C 106.000 369.820,106.360 370.000,106.800 370.000 C 107.240 370.000,107.600 370.180,107.600 370.400 C 107.600 370.620,107.960 370.800,108.400 370.800 C 108.840 370.800,109.200 370.980,109.200 371.200 C 109.200 371.420,109.560 371.600,110.000 371.600 C 110.440 371.600,110.800 371.780,110.800 372.000 C 110.800 372.220,111.160 372.400,111.600 372.400 C 112.040 372.400,112.400 372.580,112.400 372.800 C 112.400 373.020,112.760 373.200,113.200 373.200 C 113.640 373.200,114.000 373.380,114.000 373.600 C 114.000 373.820,114.360 374.000,114.800 374.000 C 115.240 374.000,115.600 374.180,115.600 374.400 C 115.600 374.620,115.960 374.800,116.400 374.800 C 116.840 374.800,117.200 374.980,117.200 375.200 C 117.200 375.420,117.560 375.600,118.000 375.600 C 118.440 375.600,118.800 375.780,118.800 376.000 C 118.800 376.220,119.160 376.400,119.600 376.400 C 120.040 376.400,120.400 376.580,120.400 376.800 C 120.400 377.020,120.760 377.200,121.200 377.200 C 121.640 377.200,122.000 377.380,122.000 377.600 C 122.000 377.820,122.540 378.000,123.200 378.000 C 123.860 378.000,124.400 378.180,124.400 378.400 C 124.400 378.620,124.760 378.800,125.200 378.800 C 125.640 378.800,126.000 378.980,126.000 379.200 C 126.000 379.420,126.540 379.600,127.200 379.600 C 127.860 379.600,128.400 379.780,128.400 380.000 C 128.400 380.220,128.760 380.400,129.200 380.400 C 129.640 380.400,130.000 380.580,130.000 380.800 C 130.000 381.020,130.540 381.200,131.200 381.200 C 131.860 381.200,132.400 381.380,132.400 381.600 C 132.400 381.820,132.749 382.000,133.176 382.000 C 133.603 382.000,134.064 382.180,134.200 382.400 C 134.336 382.620,134.887 382.800,135.424 382.800 C 135.961 382.800,136.400 382.980,136.400 383.200 C 136.400 383.420,136.940 383.600,137.600 383.600 C 138.260 383.600,138.800 383.780,138.800 384.000 C 138.800 384.220,139.340 384.400,140.000 384.400 C 140.660 384.400,141.200 384.580,141.200 384.800 C 141.200 385.020,141.920 385.200,142.800 385.200 C 143.680 385.200,144.400 385.380,144.400 385.600 C 144.400 385.820,144.940 386.000,145.600 386.000 C 146.260 386.000,146.800 386.180,146.800 386.400 C 146.800 386.620,147.329 386.800,147.976 386.800 C 148.623 386.800,149.264 386.980,149.400 387.200 C 149.536 387.420,150.346 387.600,151.200 387.600 C 152.054 387.600,152.864 387.780,153.000 388.000 C 153.136 388.220,153.957 388.400,154.824 388.400 C 155.691 388.400,156.400 388.580,156.400 388.800 C 156.400 389.020,157.120 389.200,158.000 389.200 C 158.880 389.200,159.600 389.380,159.600 389.600 C 159.600 389.820,160.500 390.000,161.600 390.000 C 162.700 390.000,163.600 390.180,163.600 390.400 C 163.600 390.622,164.667 390.800,166.000 390.800 C 167.333 390.800,168.400 390.978,168.400 391.200 C 168.400 391.422,169.467 391.600,170.800 391.600 C 172.133 391.600,173.200 391.778,173.200 392.000 C 173.200 392.233,174.533 392.400,176.400 392.400 C 178.267 392.400,179.600 392.567,179.600 392.800 C 179.600 393.047,181.640 393.200,184.920 393.200 C 188.089 393.200,190.409 393.369,190.658 393.618 C 191.268 394.228,218.000 393.409,218.000 392.781 C 218.000 392.565,219.734 392.400,222.000 392.400 C 224.400 392.400,226.000 392.240,226.000 392.000 C 226.000 391.767,227.333 391.600,229.200 391.600 C 231.067 391.600,232.400 391.433,232.400 391.200 C 232.400 390.980,233.300 390.800,234.400 390.800 C 235.500 390.800,236.400 390.620,236.400 390.400 C 236.400 390.180,237.199 390.000,238.176 390.000 C 239.153 390.000,240.064 389.820,240.200 389.600 C 240.336 389.380,241.157 389.200,242.024 389.200 C 242.891 389.200,243.600 389.020,243.600 388.800 C 243.600 388.580,244.309 388.400,245.176 388.400 C 246.043 388.400,246.864 388.220,247.000 388.000 C 247.136 387.780,247.867 387.600,248.624 387.600 C 249.381 387.600,250.000 387.420,250.000 387.200 C 250.000 386.980,250.720 386.800,251.600 386.800 C 252.480 386.800,253.200 386.620,253.200 386.400 C 253.200 386.180,253.740 386.000,254.400 386.000 C 255.060 386.000,255.600 385.820,255.600 385.600 C 255.600 385.380,256.219 385.200,256.976 385.200 C 257.733 385.200,258.464 385.020,258.600 384.800 C 258.736 384.580,259.377 384.400,260.024 384.400 C 260.671 384.400,261.200 384.220,261.200 384.000 C 261.200 383.780,261.740 383.600,262.400 383.600 C 263.060 383.600,263.600 383.420,263.600 383.200 C 263.600 382.980,263.949 382.800,264.376 382.800 C 264.803 382.800,265.264 382.620,265.400 382.400 C 265.536 382.180,266.087 382.000,266.624 382.000 C 267.161 382.000,267.600 381.820,267.600 381.600 C 267.600 381.380,268.063 381.200,268.629 381.200 C 269.194 381.200,269.914 380.943,270.229 380.629 C 270.884 379.973,270.994 378.800,270.400 378.800 C 270.180 378.800,270.000 378.440,270.000 378.000 C 270.000 377.560,269.820 377.200,269.600 377.200 C 269.380 377.200,269.200 376.880,269.200 376.488 C 269.200 376.097,268.840 375.517,268.400 375.200 C 267.960 374.883,267.600 374.303,267.600 373.912 C 267.600 373.520,267.420 373.200,267.200 373.200 C 266.980 373.200,266.800 372.660,266.800 372.000 C 266.800 371.340,266.620 370.800,266.400 370.800 C 266.180 370.800,266.000 370.260,266.000 369.600 C 266.000 368.940,265.820 368.400,265.600 368.400 C 265.380 368.400,265.200 367.500,265.200 366.400 C 265.200 365.300,265.020 364.400,264.800 364.400 C 264.567 364.400,264.400 363.067,264.400 361.200 C 264.400 359.333,264.567 358.000,264.800 358.000 C 265.020 358.000,265.200 357.280,265.200 356.400 C 265.200 355.520,265.380 354.800,265.600 354.800 C 265.820 354.800,266.000 354.181,266.000 353.424 C 266.000 352.667,266.180 351.936,266.400 351.800 C 266.620 351.664,266.800 351.203,266.800 350.776 C 266.800 350.349,266.980 350.000,267.200 350.000 C 267.420 350.000,267.600 349.640,267.600 349.200 C 267.600 348.760,267.780 348.400,268.000 348.400 C 268.220 348.400,268.400 348.080,268.400 347.688 C 268.400 347.297,268.760 346.717,269.200 346.400 C 269.640 346.083,270.000 345.590,270.000 345.305 C 270.000 344.631,275.490 339.169,276.908 338.432 C 277.508 338.120,278.000 337.715,278.000 337.532 C 278.000 337.350,278.320 337.200,278.712 337.200 C 279.103 337.200,279.683 336.840,280.000 336.400 C 280.339 335.930,281.035 335.600,281.688 335.600 C 282.300 335.600,282.800 335.420,282.800 335.200 C 282.800 334.980,283.160 334.800,283.600 334.800 C 284.040 334.800,284.400 334.620,284.400 334.400 C 284.400 334.180,285.120 334.000,286.000 334.000 C 286.880 334.000,287.600 333.820,287.600 333.600 C 287.600 333.378,288.667 333.200,290.000 333.200 C 292.370 333.200,293.606 331.593,292.000 330.600 C 291.780 330.464,291.600 329.373,291.600 328.176 C 291.600 326.979,291.420 326.000,291.200 326.000 C 290.674 326.000,290.674 320.125,291.200 319.800 C 291.420 319.664,291.600 318.843,291.600 317.976 C 291.600 317.109,291.780 316.400,292.000 316.400 C 292.220 316.400,292.400 315.860,292.400 315.200 C 292.400 314.540,292.580 314.000,292.800 314.000 C 293.020 314.000,293.200 313.460,293.200 312.800 C 293.200 312.140,293.380 311.600,293.600 311.600 C 293.820 311.600,294.000 311.240,294.000 310.800 C 294.000 310.360,294.180 310.000,294.400 310.000 C 294.620 310.000,294.800 309.728,294.800 309.396 C 294.800 309.064,295.340 308.228,296.000 307.537 C 296.660 306.846,297.200 306.125,297.200 305.933 C 297.200 305.378,302.331 300.400,302.904 300.400 C 303.190 300.400,303.683 300.040,304.000 299.600 C 304.317 299.160,304.897 298.800,305.288 298.800 C 305.680 298.800,306.000 298.620,306.000 298.400 C 306.000 298.180,306.360 298.000,306.800 298.000 C 307.240 298.000,307.600 297.820,307.600 297.600 C 307.600 297.380,307.960 297.200,308.400 297.200 C 308.840 297.200,309.200 297.020,309.200 296.800 C 309.200 296.580,309.740 296.400,310.400 296.400 C 311.060 296.400,311.600 296.220,311.600 296.000 C 311.600 295.780,312.320 295.600,313.200 295.600 C 314.080 295.600,314.800 295.420,314.800 295.200 C 314.800 294.667,323.471 294.667,323.800 295.200 C 323.936 295.420,324.847 295.600,325.824 295.600 C 326.801 295.600,327.600 295.780,327.600 296.000 C 327.600 296.220,328.039 296.400,328.576 296.400 C 329.113 296.400,329.664 296.580,329.800 296.800 C 329.936 297.020,330.397 297.200,330.824 297.200 C 331.251 297.200,331.600 297.380,331.600 297.600 C 331.600 297.820,331.878 298.000,332.217 298.000 C 332.556 298.000,333.220 298.360,333.692 298.800 C 334.164 299.240,334.787 299.600,335.075 299.600 C 335.364 299.600,335.600 299.780,335.600 300.000 C 335.600 300.220,335.960 300.400,336.400 300.400 C 336.933 300.400,337.200 300.133,337.200 299.600 C 337.200 299.160,337.380 298.800,337.600 298.800 C 337.820 298.800,338.000 298.080,338.000 297.200 C 338.000 296.320,338.180 295.600,338.400 295.600 C 338.620 295.600,338.800 295.060,338.800 294.400 C 338.800 293.740,338.980 293.200,339.200 293.200 C 339.420 293.200,339.600 292.840,339.600 292.400 C 339.600 291.960,339.780 291.600,340.000 291.600 C 340.220 291.600,340.400 291.240,340.400 290.800 C 340.400 290.360,340.580 290.000,340.800 290.000 C 341.020 290.000,341.200 289.680,341.200 289.288 C 341.200 288.897,341.560 288.317,342.000 288.000 C 342.440 287.683,342.800 287.190,342.800 286.905 C 342.800 286.231,348.290 280.769,349.708 280.032 C 350.308 279.720,350.800 279.315,350.800 279.132 C 350.800 278.950,351.160 278.800,351.600 278.800 C 352.040 278.800,352.401 278.665,352.403 278.500 C 352.407 278.141,354.344 277.200,355.080 277.200 C 355.366 277.200,355.600 277.020,355.600 276.800 C 355.600 276.580,356.140 276.400,356.800 276.400 C 357.460 276.400,358.000 276.220,358.000 276.000 C 358.000 275.780,358.979 275.600,360.176 275.600 C 361.373 275.600,362.464 275.420,362.600 275.200 C 362.927 274.672,370.000 274.672,370.000 275.200 C 370.000 275.420,370.720 275.600,371.600 275.600 C 372.480 275.600,373.200 275.780,373.200 276.000 C 373.200 276.220,373.740 276.400,374.400 276.400 C 375.060 276.400,375.600 276.580,375.600 276.800 C 375.600 277.020,376.140 277.200,376.800 277.200 C 377.733 277.200,378.000 277.022,378.000 276.400 C 378.000 275.960,378.180 275.600,378.400 275.600 C 378.620 275.600,378.800 275.240,378.800 274.800 C 378.800 274.360,378.980 274.000,379.200 274.000 C 379.420 274.000,379.600 273.460,379.600 272.800 C 379.600 272.140,379.780 271.600,380.000 271.600 C 380.220 271.600,380.400 271.255,380.400 270.833 C 380.400 270.412,380.625 269.982,380.900 269.879 C 381.246 269.749,381.154 269.498,380.600 269.062 C 379.748 268.391,377.696 268.416,369.000 269.201 C 366.800 269.399,362.120 269.759,358.600 270.000 C 355.080 270.242,350.658 270.610,348.773 270.819 C 346.888 271.029,343.977 271.200,342.305 271.200 C 338.488 271.200,339.121 273.913,337.591 251.000 C 337.385 247.920,337.029 242.790,336.800 239.600 C 336.572 236.410,336.210 231.190,335.996 228.000 C 335.783 224.810,335.420 219.680,335.191 216.600 C 334.373 205.598,334.053 198.996,334.324 198.724 C 334.537 198.512,349.508 198.227,352.840 198.372 C 353.369 198.395,353.525 199.149,353.736 202.700 C 353.877 205.065,354.178 209.880,354.405 213.400 C 354.632 216.920,354.988 222.770,355.196 226.400 C 356.220 244.280,356.459 247.967,356.725 250.000 L 357.012 252.200 360.806 252.098 C 362.893 252.042,366.940 251.820,369.800 251.605 C 383.382 250.585,381.834 249.919,383.058 257.310 C 383.474 259.823,385.157 259.341,385.187 256.700 C 385.194 256.095,385.380 255.600,385.600 255.600 C 385.820 255.600,386.000 255.060,386.000 254.400 C 386.000 253.740,386.180 253.200,386.400 253.200 C 386.620 253.200,386.800 252.660,386.800 252.000 C 386.800 251.340,386.980 250.800,387.200 250.800 C 387.420 250.800,387.600 250.091,387.600 249.224 C 387.600 248.357,387.780 247.536,388.000 247.400 C 388.220 247.264,388.400 246.544,388.400 245.800 C 388.400 245.056,388.580 244.336,388.800 244.200 C 389.020 244.064,389.200 243.153,389.200 242.176 C 389.200 241.199,389.380 240.400,389.600 240.400 C 389.820 240.400,390.000 239.500,390.000 238.400 C 390.000 237.300,390.180 236.400,390.400 236.400 C 390.620 236.400,390.800 235.511,390.800 234.424 C 390.800 233.337,390.980 232.336,391.200 232.200 C 391.420 232.064,391.600 230.804,391.600 229.400 C 391.600 227.996,391.780 226.736,392.000 226.600 C 392.220 226.464,392.400 224.844,392.400 223.000 C 392.400 221.156,392.580 219.536,392.800 219.400 C 393.038 219.253,393.200 216.737,393.200 213.200 C 393.200 209.663,393.362 207.147,393.600 207.000 C 393.840 206.851,394.000 204.137,394.000 200.200 C 394.000 196.263,393.840 193.549,393.600 193.400 C 393.366 193.255,393.200 190.937,393.200 187.800 C 393.200 184.663,393.034 182.345,392.800 182.200 C 392.577 182.062,392.400 180.196,392.400 177.976 C 392.400 175.592,392.240 174.000,392.000 174.000 C 391.771 174.000,391.600 172.800,391.600 171.200 C 391.600 169.600,391.429 168.400,391.200 168.400 C 390.978 168.400,390.800 167.333,390.800 166.000 C 390.800 164.667,390.622 163.600,390.400 163.600 C 390.180 163.600,390.000 162.700,390.000 161.600 C 390.000 160.500,389.820 159.600,389.600 159.600 C 389.380 159.600,389.200 158.880,389.200 158.000 C 389.200 157.120,389.020 156.400,388.800 156.400 C 388.580 156.400,388.400 155.680,388.400 154.800 C 388.400 153.920,388.220 153.200,388.000 153.200 C 387.780 153.200,387.600 152.480,387.600 151.600 C 387.600 150.720,387.420 150.000,387.200 150.000 C 386.980 150.000,386.800 149.280,386.800 148.400 C 386.800 147.520,386.620 146.800,386.400 146.800 C 386.180 146.800,386.000 146.260,386.000 145.600 C 386.000 144.940,385.820 144.400,385.600 144.400 C 385.380 144.400,385.200 143.871,385.200 143.224 C 385.200 142.577,385.020 141.936,384.800 141.800 C 384.580 141.664,384.400 140.933,384.400 140.176 C 384.400 139.419,384.220 138.800,384.000 138.800 C 383.780 138.800,383.600 138.260,383.600 137.600 C 383.600 136.940,383.420 136.400,383.200 136.400 C 382.980 136.400,382.800 136.040,382.800 135.600 C 382.800 135.160,382.620 134.800,382.400 134.800 C 382.180 134.800,382.000 134.260,382.000 133.600 C 382.000 132.940,381.820 132.400,381.600 132.400 C 381.380 132.400,381.200 131.860,381.200 131.200 C 381.200 130.540,381.020 130.000,380.800 130.000 C 380.580 130.000,380.400 129.651,380.400 129.224 C 380.400 128.797,380.220 128.336,380.000 128.200 C 379.780 128.064,379.600 127.513,379.600 126.976 C 379.600 126.439,379.420 126.000,379.200 126.000 C 378.980 126.000,378.800 125.640,378.800 125.200 C 378.800 124.760,378.620 124.400,378.400 124.400 C 378.180 124.400,378.000 123.860,378.000 123.200 C 378.000 122.540,377.820 122.000,377.600 122.000 C 377.380 122.000,377.200 121.640,377.200 121.200 C 377.200 120.760,377.020 120.400,376.800 120.400 C 376.580 120.400,376.400 120.040,376.400 119.600 C 376.400 119.160,376.220 118.800,376.000 118.800 C 375.780 118.800,375.600 118.440,375.600 118.000 C 375.600 117.560,375.420 117.200,375.200 117.200 C 374.980 117.200,374.800 116.840,374.800 116.400 C 374.800 115.960,374.620 115.600,374.400 115.600 C 374.180 115.600,374.000 115.240,374.000 114.800 C 374.000 114.360,373.820 114.000,373.600 114.000 C 373.380 114.000,373.200 113.640,373.200 113.200 C 373.200 112.760,373.020 112.400,372.800 112.400 C 372.580 112.400,372.400 112.040,372.400 111.600 C 372.400 111.160,372.220 110.800,372.000 110.800 C 371.780 110.800,371.600 110.440,371.600 110.000 C 371.600 109.560,371.420 109.200,371.200 109.200 C 370.980 109.200,370.800 108.840,370.800 108.400 C 370.800 107.960,370.620 107.600,370.400 107.600 C 370.180 107.600,370.000 107.240,370.000 106.800 C 370.000 106.360,369.820 106.000,369.600 106.000 C 369.380 106.000,369.200 105.640,369.200 105.200 C 369.200 104.760,369.020 104.400,368.800 104.400 C 368.580 104.400,368.400 104.080,368.400 103.688 C 368.400 103.297,368.040 102.717,367.600 102.400 C 367.160 102.083,366.800 101.503,366.800 101.112 C 366.800 100.720,366.620 100.400,366.400 100.400 C 366.180 100.400,366.000 100.080,366.000 99.688 C 366.000 99.297,365.640 98.717,365.200 98.400 C 364.760 98.083,364.400 97.503,364.400 97.112 C 364.400 96.720,364.220 96.400,364.000 96.400 C 363.780 96.400,363.600 96.080,363.600 95.688 C 363.600 95.297,363.240 94.717,362.800 94.400 C 362.360 94.083,362.000 93.569,362.000 93.259 C 362.000 92.948,361.684 92.403,361.297 92.047 C 360.911 91.691,360.340 90.905,360.030 90.300 C 359.719 89.695,359.315 89.200,359.132 89.200 C 358.950 89.200,358.800 88.957,358.800 88.659 C 358.800 88.362,358.260 87.554,357.600 86.863 C 356.940 86.172,356.400 85.408,356.400 85.164 C 356.400 84.920,355.860 84.217,355.200 83.600 C 354.540 82.983,354.000 82.267,354.000 82.008 C 354.000 81.749,353.280 80.846,352.400 80.000 C 351.520 79.154,350.800 78.287,350.800 78.072 C 350.800 77.857,349.900 76.762,348.800 75.639 C 347.700 74.515,346.800 73.423,346.800 73.212 C 346.800 72.694,327.329 53.200,326.812 53.200 C 326.587 53.200,325.485 52.300,324.361 51.200 C 323.238 50.100,322.157 49.200,321.960 49.200 C 321.762 49.200,320.859 48.480,319.952 47.600 C 319.045 46.720,318.095 46.000,317.840 46.000 C 317.585 46.000,317.117 45.640,316.800 45.200 C 316.483 44.760,315.975 44.400,315.672 44.400 C 315.369 44.400,314.617 43.860,314.000 43.200 C 313.383 42.540,312.657 42.000,312.386 42.000 C 312.116 42.000,311.603 41.684,311.247 41.297 C 310.891 40.911,310.105 40.340,309.500 40.030 C 308.895 39.719,308.400 39.315,308.400 39.132 C 308.400 38.950,308.106 38.800,307.747 38.800 C 307.388 38.800,306.803 38.484,306.447 38.097 C 306.091 37.711,305.305 37.140,304.700 36.830 C 304.095 36.519,303.600 36.115,303.600 35.932 C 303.600 35.750,303.322 35.600,302.983 35.600 C 302.644 35.600,301.980 35.240,301.508 34.800 C 301.036 34.360,300.413 34.000,300.125 34.000 C 299.836 34.000,299.600 33.820,299.600 33.600 C 299.600 33.380,299.240 33.200,298.800 33.200 C 298.360 33.200,298.000 33.020,298.000 32.800 C 298.000 32.580,297.764 32.400,297.475 32.400 C 297.187 32.400,296.564 32.040,296.092 31.600 C 295.620 31.160,294.956 30.800,294.617 30.800 C 294.278 30.800,294.000 30.620,294.000 30.400 C 294.000 30.180,293.640 30.000,293.200 30.000 C 292.760 30.000,292.400 29.820,292.400 29.600 C 292.400 29.380,292.040 29.200,291.600 29.200 C 291.160 29.200,290.800 29.020,290.800 28.800 C 290.800 28.580,290.440 28.400,290.000 28.400 C 289.560 28.400,289.200 28.220,289.200 28.000 C 289.200 27.780,288.975 27.596,288.700 27.591 C 288.425 27.586,287.750 27.230,287.200 26.800 C 286.650 26.370,285.795 26.014,285.300 26.009 C 284.805 26.004,284.400 25.820,284.400 25.600 C 284.400 25.380,284.040 25.200,283.600 25.200 C 283.160 25.200,282.800 25.020,282.800 24.800 C 282.800 24.580,282.440 24.400,282.000 24.400 C 281.560 24.400,281.200 24.220,281.200 24.000 C 281.200 23.780,280.840 23.600,280.400 23.600 C 279.960 23.600,279.600 23.420,279.600 23.200 C 279.600 22.980,279.240 22.800,278.800 22.800 C 278.360 22.800,278.000 22.620,278.000 22.400 C 278.000 22.180,277.460 22.000,276.800 22.000 C 276.140 22.000,275.600 21.820,275.600 21.600 C 275.600 21.380,275.240 21.200,274.800 21.200 C 274.360 21.200,274.000 21.020,274.000 20.800 C 274.000 20.580,273.561 20.400,273.024 20.400 C 272.487 20.400,271.936 20.220,271.800 20.000 C 271.664 19.780,271.203 19.600,270.776 19.600 C 270.349 19.600,270.000 19.420,270.000 19.200 C 270.000 18.980,269.460 18.800,268.800 18.800 C 268.140 18.800,267.600 18.620,267.600 18.400 C 267.600 18.180,267.251 18.000,266.824 18.000 C 266.397 18.000,265.936 17.820,265.800 17.600 C 265.664 17.380,265.113 17.200,264.576 17.200 C 264.039 17.200,263.600 17.020,263.600 16.800 C 263.600 16.580,263.060 16.400,262.400 16.400 C 261.740 16.400,261.200 16.220,261.200 16.000 C 261.200 15.780,260.660 15.600,260.000 15.600 C 259.340 15.600,258.800 15.420,258.800 15.200 C 258.800 14.980,258.271 14.800,257.624 14.800 C 256.977 14.800,256.336 14.620,256.200 14.400 C 256.064 14.180,255.333 14.000,254.576 14.000 C 253.819 14.000,253.200 13.820,253.200 13.600 C 253.200 13.380,252.660 13.200,252.000 13.200 C 251.340 13.200,250.800 13.020,250.800 12.800 C 250.800 12.580,250.080 12.400,249.200 12.400 C 248.320 12.400,247.600 12.220,247.600 12.000 C 247.600 11.780,246.891 11.600,246.024 11.600 C 245.157 11.600,244.336 11.420,244.200 11.200 C 244.064 10.980,243.344 10.800,242.600 10.800 C 241.856 10.800,241.136 10.620,241.000 10.400 C 240.864 10.180,239.773 10.000,238.576 10.000 C 237.379 10.000,236.400 9.820,236.400 9.600 C 236.400 9.380,235.511 9.200,234.424 9.200 C 233.337 9.200,232.336 9.020,232.200 8.800 C 232.064 8.580,230.793 8.400,229.376 8.400 C 227.925 8.400,226.800 8.225,226.800 8.000 C 226.800 7.763,225.333 7.600,223.200 7.600 C 221.067 7.600,219.600 7.437,219.600 7.200 C 219.600 6.948,216.941 6.800,212.424 6.800 C 208.071 6.800,205.150 6.643,205.000 6.400 C 204.673 5.871,195.327 5.871,195.000 6.400 M78.020 71.200 L 78.529 75.200 79.732 75.200 C 80.393 75.200,83.004 74.902,85.533 74.538 L 90.132 73.877 91.401 75.261 C 92.815 76.805,92.850 77.030,93.602 89.576 C 94.053 97.104,94.223 96.800,89.559 96.800 C 85.490 96.800,85.830 97.192,85.407 92.000 C 84.520 81.090,84.769 81.749,81.702 82.235 L 79.400 82.600 79.439 84.400 C 79.461 85.390,79.684 88.532,79.936 91.383 C 80.197 94.327,80.244 96.716,80.046 96.914 C 79.750 97.210,75.558 97.944,73.036 98.140 C 71.996 98.222,71.705 96.977,71.179 90.200 C 70.940 87.120,70.582 82.530,70.384 80.000 C 70.185 77.470,69.901 73.555,69.751 71.300 L 69.479 67.200 73.495 67.200 L 77.510 67.200 78.020 71.200 M114.512 72.767 C 116.631 73.572,116.800 74.074,116.800 79.559 C 116.800 86.616,116.650 86.708,104.300 87.188 C 104.135 87.195,104.000 87.740,104.000 88.400 L 104.000 89.600 106.511 89.600 C 108.527 89.600,109.157 89.442,109.707 88.800 C 110.711 87.627,116.561 87.607,117.186 88.774 C 118.733 91.664,116.823 94.211,112.714 94.740 C 103.464 95.931,98.926 96.151,97.504 95.476 L 96.141 94.829 95.667 89.715 C 95.406 86.902,94.985 82.684,94.731 80.342 C 94.020 73.792,94.647 73.220,103.000 72.795 C 111.177 72.379,113.477 72.373,114.512 72.767 M103.248 79.343 C 101.652 81.265,104.976 83.560,107.977 82.607 C 108.918 82.309,109.145 80.105,108.320 79.280 C 107.654 78.614,103.813 78.662,103.248 79.343 M330.544 82.710 C 330.718 82.991,330.594 87.809,329.745 113.714 L 329.472 122.028 324.036 126.114 C 318.104 130.573,317.943 130.815,319.166 133.418 C 319.625 134.393,320.000 135.349,320.000 135.542 C 320.000 135.843,320.562 137.373,322.004 141.000 C 322.179 141.440,322.717 142.880,323.200 144.200 C 323.683 145.520,324.223 146.960,324.400 147.400 C 324.577 147.840,325.082 149.190,325.521 150.400 C 325.961 151.610,326.878 154.085,327.560 155.900 C 328.242 157.715,329.358 160.685,330.040 162.500 C 330.722 164.315,331.604 166.700,332.000 167.800 C 333.029 170.655,335.215 176.457,335.618 177.400 C 337.967 182.900,337.077 188.800,333.725 189.940 C 332.886 190.226,330.310 191.184,328.000 192.069 C 325.690 192.955,322.360 194.220,320.600 194.880 C 318.840 195.540,316.471 196.436,315.335 196.872 C 311.770 198.240,311.096 197.469,308.797 189.400 C 308.609 188.740,307.171 184.510,305.601 180.000 C 304.031 175.490,302.654 171.440,302.540 171.000 C 302.426 170.560,302.176 169.840,301.983 169.400 C 301.791 168.960,300.168 164.190,298.376 158.800 C 294.447 146.978,294.903 147.562,291.674 150.204 C 291.303 150.507,289.919 151.558,288.598 152.538 C 284.528 155.558,284.755 154.899,285.191 162.426 C 286.268 181.034,286.724 195.553,286.255 196.311 C 286.125 196.522,285.249 196.795,284.309 196.918 C 282.757 197.121,276.429 198.207,270.800 199.237 C 269.590 199.459,267.610 199.802,266.400 200.000 C 262.394 200.655,259.813 201.127,258.744 201.397 C 257.270 201.770,257.132 201.385,256.748 195.844 C 256.563 193.180,256.233 188.390,256.014 185.200 C 255.795 182.010,255.428 176.790,255.200 173.600 C 254.971 170.410,254.612 165.280,254.402 162.200 C 254.193 159.120,253.836 154.080,253.609 151.000 C 253.382 147.920,253.018 142.790,252.800 139.600 C 252.582 136.410,252.221 131.280,251.998 128.200 C 251.775 125.120,251.420 119.990,251.209 116.800 C 250.998 113.610,250.633 108.570,250.397 105.600 C 249.622 95.848,249.264 88.605,249.542 88.312 C 249.869 87.968,255.057 87.419,263.800 86.804 C 267.320 86.557,271.851 86.185,273.868 85.977 C 278.467 85.504,281.488 85.495,281.771 85.953 C 281.991 86.309,282.619 98.937,283.070 112.068 C 283.204 115.955,283.453 119.362,283.623 119.638 C 283.843 119.993,286.402 118.292,292.361 113.829 L 300.788 107.518 300.894 95.659 L 301.000 83.800 306.800 83.504 C 309.990 83.341,315.390 83.055,318.800 82.870 C 327.577 82.392,330.325 82.355,330.544 82.710 M226.200 91.386 C 227.960 91.731,230.120 92.176,231.000 92.374 C 231.880 92.573,233.680 92.946,235.000 93.205 C 236.320 93.463,238.137 93.869,239.038 94.106 L 240.677 94.538 241.161 98.369 C 241.427 100.476,241.803 103.370,241.997 104.800 C 242.702 110.017,243.159 113.483,243.647 117.310 L 244.145 121.221 241.527 123.750 C 239.061 126.133,238.774 126.294,236.555 126.534 C 235.260 126.674,232.940 126.955,231.400 127.159 C 229.860 127.363,226.800 127.734,224.600 127.984 C 222.400 128.234,220.367 128.475,220.082 128.520 C 219.507 128.609,217.600 125.444,217.600 124.401 C 217.600 124.176,217.225 123.138,216.768 122.096 C 216.310 121.053,215.683 119.615,215.374 118.900 C 214.755 117.466,214.493 117.410,211.224 118.006 C 208.652 118.474,202.432 119.495,199.114 119.992 C 195.814 120.487,196.000 119.963,196.000 128.783 L 196.000 136.719 200.900 136.947 C 203.595 137.073,213.360 137.267,222.600 137.380 C 241.751 137.612,239.367 137.094,241.839 141.561 C 242.521 142.792,243.435 144.430,243.870 145.200 C 244.305 145.970,245.351 147.839,246.195 149.353 L 247.728 152.105 248.046 158.953 C 248.220 162.719,248.560 169.130,248.800 173.200 C 249.623 187.163,249.889 193.801,249.645 194.263 C 248.966 195.549,241.540 202.794,240.733 202.959 C 240.220 203.064,238.270 203.253,236.400 203.381 C 234.530 203.508,231.020 203.785,228.600 203.997 C 226.180 204.209,222.130 204.562,219.600 204.781 C 217.070 205.000,212.930 205.365,210.400 205.592 C 207.870 205.819,203.730 206.179,201.200 206.392 C 198.670 206.605,194.530 206.965,192.000 207.192 C 189.470 207.420,184.979 207.795,182.020 208.027 C 175.714 208.520,176.689 209.125,172.802 202.309 L 170.344 197.999 170.472 184.232 C 170.542 176.661,170.750 170.316,170.933 170.133 C 171.115 169.950,173.185 169.686,175.533 169.546 C 177.880 169.407,182.770 169.074,186.400 168.807 C 190.030 168.540,193.446 168.294,193.991 168.261 C 195.152 168.190,195.466 169.002,197.208 176.600 C 198.202 180.933,198.070 180.899,208.800 179.591 C 210.450 179.389,213.361 179.114,215.269 178.979 C 220.383 178.617,220.085 179.282,219.570 169.400 C 219.329 164.780,219.005 160.866,218.848 160.702 C 218.591 160.433,207.195 159.989,183.800 159.336 C 174.098 159.065,175.294 159.433,171.262 155.486 L 168.099 152.389 167.670 147.294 C 167.434 144.493,167.055 139.230,166.828 135.600 C 166.602 131.970,166.225 125.940,165.991 122.200 C 165.757 118.460,165.379 112.996,165.150 110.058 L 164.736 104.716 167.067 101.319 C 169.784 97.360,169.917 97.270,173.713 96.804 C 177.919 96.287,182.552 95.692,186.200 95.200 C 187.960 94.962,190.750 94.602,192.400 94.399 C 194.050 94.197,196.750 93.841,198.400 93.610 C 200.050 93.379,202.840 93.020,204.600 92.813 C 206.360 92.606,209.150 92.246,210.800 92.013 C 212.450 91.781,215.407 91.411,217.371 91.191 C 219.335 90.971,221.039 90.694,221.159 90.575 C 221.278 90.455,221.741 90.448,222.188 90.558 C 222.635 90.668,224.440 91.041,226.200 91.386 M156.604 100.267 C 158.364 102.027,158.457 102.227,158.230 103.767 C 158.097 104.665,157.817 107.560,157.608 110.200 C 156.715 121.472,157.015 120.309,154.344 122.869 C 152.053 125.067,151.892 125.146,149.289 125.381 C 147.810 125.515,145.288 125.799,143.684 126.012 C 138.122 126.752,136.942 126.585,133.481 124.568 C 129.737 122.387,129.601 122.102,129.598 116.474 C 129.597 114.123,129.407 109.699,129.176 106.642 C 128.671 99.973,128.383 100.383,133.871 99.981 C 147.350 98.995,150.611 98.722,150.764 98.569 C 151.725 97.608,154.855 98.518,156.604 100.267 M115.839 104.971 C 116.939 105.944,118.267 107.088,118.791 107.513 C 119.655 108.212,119.772 108.712,120.045 112.842 C 120.211 115.349,120.546 119.650,120.789 122.400 C 121.032 125.150,121.400 129.650,121.607 132.400 C 121.814 135.150,122.171 139.650,122.401 142.400 C 122.630 145.150,122.985 149.560,123.188 152.200 C 124.049 163.359,124.403 167.492,124.627 169.012 C 124.833 170.414,124.551 171.283,122.461 175.672 C 119.804 181.253,120.169 180.939,115.100 181.984 C 113.835 182.244,112.800 182.529,112.800 182.617 C 112.800 182.860,113.942 184.835,117.940 191.506 C 119.953 194.865,121.600 197.688,121.600 197.780 C 121.600 197.872,122.163 198.853,122.852 199.960 L 124.103 201.974 123.194 204.216 C 122.266 206.501,121.395 207.354,119.349 207.979 C 118.010 208.388,102.487 213.781,101.600 214.145 C 100.683 214.522,100.390 214.185,96.788 208.600 C 91.261 200.030,83.251 187.834,82.809 187.315 C 82.522 186.977,81.580 186.903,79.698 187.070 C 75.353 187.456,75.462 187.300,75.743 192.740 C 75.876 195.303,76.033 200.988,76.092 205.372 L 76.200 213.345 73.800 213.833 C 72.480 214.102,70.050 214.531,68.400 214.786 C 65.224 215.277,62.271 215.754,58.500 216.384 C 53.159 217.277,50.909 217.602,49.400 217.698 L 47.800 217.800 47.514 216.000 C 47.356 215.010,47.033 211.500,46.795 208.200 C 46.557 204.900,46.197 200.220,45.995 197.800 C 45.793 195.380,45.435 190.790,45.199 187.600 C 44.963 184.410,44.601 179.730,44.396 177.200 C 44.191 174.670,43.833 170.080,43.601 167.000 C 43.369 163.920,43.009 159.330,42.801 156.800 C 42.593 154.270,42.232 149.680,41.999 146.600 C 41.594 141.253,41.221 136.564,40.392 126.400 C 39.556 116.158,39.158 110.449,39.081 107.600 L 39.000 104.600 43.800 104.354 C 46.440 104.219,54.810 104.060,62.400 104.000 C 69.990 103.940,80.520 103.770,85.800 103.620 C 91.080 103.471,99.549 103.315,104.620 103.275 L 113.839 103.200 115.839 104.971 M72.576 127.318 C 72.467 127.603,72.566 131.248,72.797 135.418 C 73.027 139.588,73.389 146.510,73.601 150.800 C 73.813 155.090,74.099 159.298,74.237 160.152 L 74.488 161.703 76.744 161.467 C 77.985 161.337,80.170 161.042,81.600 160.812 C 84.416 160.358,88.785 159.704,91.509 159.329 C 93.730 159.023,93.693 159.137,93.228 154.116 C 93.008 151.742,92.634 147.010,92.398 143.600 C 92.162 140.190,91.769 135.131,91.526 132.358 L 91.084 127.316 86.642 127.060 C 78.991 126.619,72.801 126.732,72.576 127.318 M159.155 127.746 C 159.456 128.108,159.740 132.990,160.001 142.246 C 160.217 149.921,160.585 161.960,160.818 169.000 C 161.499 189.521,161.889 204.978,161.732 205.273 C 161.547 205.619,158.478 206.186,153.600 206.775 C 149.135 207.315,144.848 207.878,141.123 208.414 C 135.080 209.285,135.401 209.579,135.006 202.800 C 134.715 197.801,134.179 189.908,133.608 182.200 C 133.380 179.120,133.016 173.900,132.800 170.600 C 132.584 167.300,132.220 162.080,131.991 159.000 C 131.577 153.431,131.144 147.076,130.423 136.000 C 130.215 132.810,130.170 130.089,130.322 129.953 C 130.611 129.697,136.313 129.120,145.600 128.408 C 150.973 127.996,157.972 127.370,158.451 127.258 C 158.589 127.226,158.906 127.446,159.155 127.746 M310.235 201.982 L 321.070 202.310 324.921 204.855 C 329.583 207.936,329.264 207.155,328.786 214.307 C 328.570 217.548,328.205 223.260,327.976 227.000 C 327.747 230.740,327.433 234.787,327.280 235.994 L 327.000 238.189 323.860 240.346 L 320.721 242.504 305.750 241.982 C 288.770 241.391,290.128 241.099,289.940 245.381 L 289.800 248.562 291.200 248.875 C 291.970 249.048,295.480 249.308,299.001 249.453 L 305.402 249.718 305.984 248.559 C 307.442 245.654,306.417 245.768,321.095 246.877 C 328.012 247.400,327.387 246.962,327.988 251.705 C 328.449 255.341,328.544 255.031,325.298 260.500 L 322.746 264.800 318.873 264.803 C 316.743 264.804,305.939 264.992,294.864 265.220 L 274.728 265.634 272.864 264.520 C 271.839 263.907,270.550 263.174,270.000 262.892 C 267.002 261.352,267.306 264.076,266.892 235.000 C 266.603 214.615,266.629 208.827,267.014 208.200 C 267.284 207.760,268.832 206.018,270.453 204.328 L 273.400 201.257 286.400 201.455 C 293.550 201.564,304.276 201.801,310.235 201.982 M261.367 205.700 C 261.467 206.195,261.660 208.400,261.796 210.600 C 261.932 212.800,262.206 216.850,262.407 219.600 C 262.607 222.350,262.957 227.165,263.185 230.300 C 263.413 233.435,263.775 238.475,263.989 241.500 C 264.203 244.525,264.565 249.340,264.792 252.200 C 265.020 255.060,265.381 259.830,265.594 262.800 C 265.808 265.770,266.170 270.720,266.400 273.800 C 266.630 276.880,266.994 281.830,267.210 284.800 C 267.426 287.770,267.778 292.450,267.992 295.200 C 268.206 297.950,268.496 302.360,268.637 305.000 L 268.892 309.800 264.946 313.640 L 261.000 317.480 252.400 317.951 C 247.670 318.211,241.370 318.590,238.400 318.795 C 235.430 318.999,229.310 319.360,224.800 319.596 C 220.290 319.832,214.350 320.200,211.600 320.415 C 208.850 320.630,205.584 320.804,204.342 320.803 L 202.083 320.800 198.442 315.969 L 194.800 311.137 194.800 304.469 C 194.801 296.913,195.830 293.231,198.100 292.661 C 199.446 292.323,215.034 290.849,217.601 290.817 L 219.001 290.800 220.560 294.800 C 221.933 298.323,222.332 298.939,223.200 298.881 C 223.501 298.861,230.584 297.795,236.727 296.844 C 240.641 296.239,240.463 296.973,239.302 286.200 L 239.000 283.400 237.400 283.425 C 236.520 283.438,234.090 283.675,232.000 283.952 C 229.910 284.228,226.940 284.607,225.400 284.794 C 223.860 284.981,221.160 285.337,219.400 285.586 C 217.640 285.835,214.760 286.209,213.000 286.418 C 207.055 287.124,203.805 287.558,202.600 287.807 C 201.741 287.985,201.173 287.848,200.600 287.327 C 200.160 286.927,198.810 285.791,197.600 284.802 C 192.601 280.716,193.197 282.201,191.984 270.800 C 191.762 268.710,191.405 265.425,191.190 263.500 C 190.976 261.575,190.620 258.380,190.400 256.400 C 190.180 254.420,189.824 251.225,189.610 249.300 C 189.395 247.375,189.038 244.090,188.817 242.000 C 188.595 239.910,188.228 236.670,188.000 234.800 C 187.419 230.028,186.822 223.986,186.814 222.800 C 186.805 221.597,194.475 210.746,195.643 210.309 C 196.070 210.149,199.340 209.833,202.910 209.607 C 206.479 209.381,211.740 209.012,214.600 208.787 C 220.984 208.284,229.272 207.689,234.600 207.352 L 238.600 207.098 239.919 208.749 C 241.588 210.839,241.766 210.821,243.100 208.421 C 244.361 206.151,244.416 206.130,250.299 205.572 C 252.645 205.350,254.648 205.085,254.749 204.984 C 255.495 204.239,261.196 204.855,261.367 205.700 M176.337 216.803 C 179.577 220.850,180.000 221.705,180.000 224.210 C 180.000 225.176,180.169 227.280,180.375 228.884 C 180.582 230.488,180.949 233.870,181.192 236.400 C 181.863 243.406,182.241 247.194,183.606 260.600 C 183.808 262.580,184.168 266.270,184.406 268.800 C 184.643 271.330,185.004 274.840,185.207 276.600 C 186.460 287.462,186.853 286.605,180.344 287.214 C 165.246 288.628,166.804 288.995,166.357 283.922 C 166.176 281.875,165.823 278.310,165.571 276.000 C 165.319 273.690,164.998 270.450,164.857 268.800 L 164.600 265.800 162.800 265.826 C 161.810 265.840,159.470 266.079,157.600 266.357 C 155.730 266.634,153.390 266.961,152.400 267.083 C 149.447 267.447,149.566 266.918,149.860 278.351 C 150.161 290.065,150.355 289.386,146.600 289.717 C 145.280 289.834,141.950 290.154,139.200 290.429 C 136.450 290.704,133.750 290.945,133.200 290.965 L 132.200 291.000 131.723 279.600 C 131.461 273.330,131.054 262.890,130.818 256.400 C 130.583 249.910,130.183 239.706,129.929 233.725 L 129.468 222.851 131.024 220.591 C 132.900 217.867,133.060 217.777,136.600 217.454 C 138.140 217.314,140.840 217.013,142.600 216.786 C 144.360 216.559,147.240 216.205,149.000 216.000 C 150.760 215.795,153.640 215.440,155.400 215.212 C 157.160 214.985,160.220 214.601,162.200 214.361 C 164.180 214.120,166.880 213.785,168.200 213.616 C 173.507 212.938,173.121 212.787,176.337 216.803 M289.819 218.714 C 289.699 218.835,289.600 221.133,289.600 223.822 L 289.600 228.711 290.900 228.947 C 292.123 229.169,302.222 230.077,304.400 230.161 C 305.541 230.205,305.969 226.177,305.308 221.600 L 304.991 219.400 299.995 219.126 C 297.248 218.976,293.884 218.772,292.519 218.674 C 291.155 218.576,289.940 218.594,289.819 218.714 M110.062 223.300 C 116.372 229.891,116.163 229.442,117.199 238.600 C 117.448 240.800,117.811 243.860,118.005 245.400 C 118.200 246.940,118.555 249.820,118.794 251.800 C 119.034 253.780,119.403 256.501,119.615 257.846 C 120.337 262.435,120.133 264.695,118.800 266.862 C 117.183 269.489,117.134 269.355,121.069 273.009 L 124.539 276.231 124.854 282.415 C 125.027 285.817,125.357 291.660,125.589 295.400 C 125.820 299.140,126.125 304.340,126.266 306.954 L 126.523 311.709 125.108 312.954 C 124.329 313.640,122.315 315.443,120.631 316.962 L 117.570 319.725 114.085 320.038 C 112.168 320.210,108.710 320.552,106.400 320.798 C 104.090 321.045,100.580 321.410,98.600 321.611 C 96.620 321.812,93.290 322.162,91.200 322.389 C 89.110 322.617,85.600 322.981,83.400 323.200 C 81.200 323.419,77.690 323.779,75.600 324.000 C 73.510 324.221,70.000 324.582,67.800 324.802 C 65.600 325.021,62.180 325.366,60.200 325.568 C 55.729 326.023,55.765 326.060,55.428 320.681 C 55.288 318.436,55.003 314.350,54.794 311.600 C 54.586 308.850,54.229 303.810,54.001 300.400 C 53.426 291.802,52.917 284.445,51.615 265.900 C 51.387 262.655,51.014 257.345,50.788 254.100 C 50.169 245.248,49.690 238.511,49.172 231.400 C 48.916 227.880,48.773 224.460,48.853 223.800 L 49.000 222.600 56.800 222.349 C 61.090 222.212,72.700 221.880,82.600 221.613 C 92.500 221.346,100.675 221.053,100.767 220.963 C 100.858 220.874,102.449 220.800,104.301 220.800 L 107.668 220.800 110.062 223.300 M228.400 230.792 C 227.410 230.968,224.980 231.321,223.000 231.576 C 221.020 231.831,218.430 232.230,217.245 232.461 L 215.091 232.882 215.363 235.741 C 215.888 241.241,216.380 246.234,216.809 250.400 C 217.046 252.710,217.385 256.184,217.561 258.120 C 217.969 262.612,217.996 262.636,221.880 262.046 C 227.393 261.209,230.140 260.845,232.861 260.592 C 236.907 260.216,236.919 260.196,236.440 254.989 C 236.218 252.575,235.840 247.630,235.601 244.000 C 235.361 240.370,235.038 235.870,234.883 234.000 L 234.600 230.600 232.400 230.536 C 231.190 230.501,229.390 230.616,228.400 230.792 M158.600 233.186 C 157.940 233.366,155.727 233.749,153.682 234.037 C 148.797 234.725,149.049 234.175,149.395 243.400 L 149.687 251.200 156.499 251.200 L 163.311 251.200 163.069 248.900 C 162.935 247.635,162.629 244.800,162.389 242.600 C 162.148 240.400,161.827 237.340,161.676 235.800 C 161.373 232.730,161.104 232.501,158.600 233.186 M75.317 243.241 C 75.580 246.095,76.298 253.224,76.722 257.200 L 77.000 259.800 80.600 260.055 C 82.580 260.195,86.603 260.448,89.540 260.618 L 94.880 260.927 94.621 257.764 C 94.479 256.024,94.203 253.430,94.008 252.000 C 93.813 250.570,93.435 247.732,93.168 245.693 C 92.742 242.445,92.578 241.965,91.841 241.816 C 91.000 241.647,87.622 241.406,79.440 240.933 L 75.081 240.681 75.317 243.241 M79.014 278.777 C 78.886 278.984,78.974 281.819,79.210 285.077 C 79.543 289.685,80.055 297.121,80.380 302.100 C 80.427 302.812,85.335 301.919,94.000 299.621 C 94.770 299.417,96.390 298.997,97.600 298.688 L 99.800 298.127 99.676 290.164 C 99.503 278.991,100.215 280.241,93.684 279.643 C 90.668 279.367,86.542 278.974,84.516 278.771 C 79.913 278.308,79.304 278.308,79.014 278.777 M185.982 293.700 C 186.298 294.482,187.043 297.455,188.412 303.400 C 189.317 307.329,189.689 307.050,181.800 308.361 C 180.260 308.616,177.380 309.102,175.400 309.439 C 173.420 309.777,170.720 310.218,169.400 310.421 C 168.080 310.623,165.920 310.980,164.600 311.214 C 163.280 311.448,161.120 311.808,159.800 312.014 C 158.480 312.220,156.320 312.580,155.000 312.814 C 153.680 313.048,151.520 313.408,150.200 313.613 C 148.880 313.818,145.640 314.349,143.000 314.792 C 136.929 315.811,136.978 315.813,136.480 314.500 C 135.516 311.956,133.200 304.236,133.200 303.565 C 133.200 303.032,133.603 302.772,134.700 302.598 C 135.525 302.466,136.920 302.194,137.800 301.994 C 138.680 301.793,140.390 301.442,141.600 301.215 C 142.810 300.987,145.600 300.457,147.800 300.036 C 150.000 299.615,153.870 298.884,156.400 298.411 C 158.930 297.939,161.720 297.389,162.600 297.190 C 163.480 296.991,165.280 296.627,166.600 296.382 C 167.920 296.137,169.720 295.785,170.600 295.601 C 171.480 295.416,173.190 295.070,174.400 294.831 C 175.610 294.592,178.220 294.059,180.200 293.645 C 185.093 292.623,185.547 292.627,185.982 293.700 " stroke="none" fill="#fba42d" fill-rule="evenodd"></path></g></svg>